<svg width="21" height="20" viewBox="0 0 21 20" fill="none"
    xmlns="http://www.w3.org/2000/svg">
    <g opacity="var(--volume, 1)">
        <path d="M0.666992 6.6669V13.3336H5.11142L10.667 18.8891V1.11133L5.11142 6.6669H0.666992Z" fill="var(--icon-color, #0FA9DA)"/>
        <path d="M15.6672 10.0006C15.6672 8.03947 14.5338 6.34499 12.8894 5.52832V14.4783C14.5338 13.6561 15.6672 11.9617 15.6672 10.0006Z" fill="var(--icon-color, #0FA9DA)" opacity="var(--volume05, 1)"/>
        <path d="M12.8894 0.255859V2.55029C16.1005 3.50586 18.4449 6.47805 18.4449 10.0003C18.4449 13.5225 16.1005 16.4947 12.8894 17.4503V19.7447C17.3394 18.7336 20.6672 14.7614 20.6672 10.0003C20.6672 5.23919 17.3394 1.26695 12.8894 0.255859Z" fill="var(--icon-color, #0FA9DA)" opacity="var(--volume1, 1)"/>
    </g>
    <g opacity="var(--mute, 0)">
        <path d="M15.6672 10.0006C15.6672 8.03947 14.5338 6.34499 12.8894 5.52832V7.98389L15.6172 10.7117C15.6505 10.4783 15.6672 10.2395 15.6672 10.0006Z" fill="var(--icon-color, #0FA9DA)"/>
        <path d="M18.4449 10.0003C18.4449 11.0447 18.2172 12.028 17.8449 12.9336L19.5283 14.617C20.2505 13.2336 20.6672 11.667 20.6672 10.0003C20.6672 5.24471 17.3394 1.26695 12.8894 0.255859V2.55029C16.1005 3.50586 18.4449 6.47805 18.4449 10.0003Z" fill="var(--icon-color, #0FA9DA)"/>
        <path d="M10.667 1.11133L8.34473 3.43357L10.667 5.75581V1.11133Z" fill="var(--icon-color, #0FA9DA)"/>
        <path d="M2.08366 0L0.666992 1.41667L5.91699 6.66667H0.666992V13.3333H5.11142L10.667 18.8889V11.4167L15.3948 16.1444C14.6503 16.7167 13.8114 17.1778 12.8892 17.4555V19.75C14.4169 19.4 15.8114 18.7 16.9836 17.7389L19.2503 20L20.667 18.5833L10.667 8.58333L2.08366 0Z" fill="var(--icon-color, #0FA9DA)"/>
    </g>
</svg>
