<svg width="26" height="26" viewBox="0 0 26 26" fill="none" xmlns="http://www.w3.org/2000/svg">
<path d="M6.25902 16.4535C6.56506 17.5786 7.50128 17.7844 7.56374 17.8239C9.10455 18.2589 17.7411 18.2602 19.305 17.8239C20.3761 17.5028 20.5729 16.5182 20.6097 16.4535C21.0176 14.2047 21.0444 11.2729 20.591 8.72116L20.6097 8.84804C20.3037 7.72298 19.3675 7.51713 19.305 7.47764C17.7848 7.04976 9.12579 7.03358 7.56374 7.47764C6.49261 7.79937 6.29587 8.78331 6.25902 8.84804C5.82244 11.2114 5.80058 13.9231 6.25902 16.4535ZM11.9338 15.0145V10.2935L15.8474 12.6576L11.9338 15.0145Z" fill="var(--icon-color, #006484)"/>
</svg>
