<svg width="45" height="45" viewBox="0 0 45 45" fill="none" xmlns="http://www.w3.org/2000/svg">
<path d="M43.3041 3H1.54775C1.36317 3 1.18616 3.07609 1.05564 3.21153C0.925129 3.34697 0.851807 3.53067 0.851807 3.72221V5.88884C0.851807 6.08038 0.925129 6.26408 1.05564 6.39952C1.18616 6.53496 1.36317 6.61105 1.54775 6.61105H2.24368V32.6106C2.24486 33.7595 2.68517 34.861 3.46799 35.6733C4.25082 36.4857 5.31223 36.9426 6.41932 36.9439H21.73V37.7907C21.2656 37.961 20.8743 38.2962 20.6251 38.7371C20.3759 39.1779 20.2849 39.696 20.3682 40.1997C20.4514 40.7035 20.7036 41.1605 21.0802 41.4899C21.4567 41.8193 21.9334 42 22.4259 42C22.9184 42 23.3951 41.8193 23.7716 41.4899C24.1482 41.1605 24.4004 40.7035 24.4837 40.1997C24.5669 39.696 24.4759 39.1779 24.2267 38.7371C23.9775 38.2962 23.5862 37.961 23.1218 37.7907V36.9439H38.4325C39.5396 36.9426 40.601 36.4857 41.3838 35.6733C42.1666 34.861 42.6069 33.7595 42.6081 32.6106V6.61105H43.3041C43.4886 6.61105 43.6656 6.53496 43.7962 6.39952C43.9267 6.26408 44 6.08038 44 5.88884V3.72221C44 3.53067 43.9267 3.34697 43.7962 3.21153C43.6656 3.07609 43.4886 3 43.3041 3ZM22.4259 40.5549C22.2883 40.5549 22.1537 40.5126 22.0393 40.4332C21.9248 40.3538 21.8356 40.241 21.7829 40.1091C21.7303 39.9771 21.7165 39.8319 21.7433 39.6918C21.7702 39.5517 21.8365 39.423 21.9338 39.322C22.0311 39.221 22.1551 39.1522 22.2901 39.1244C22.4251 39.0965 22.5651 39.1108 22.6922 39.1655C22.8194 39.2201 22.9281 39.3127 23.0046 39.4315C23.081 39.5502 23.1218 39.6899 23.1218 39.8327C23.1216 40.0242 23.0482 40.2077 22.9177 40.3431C22.7873 40.4785 22.6104 40.5546 22.4259 40.5549ZM41.2162 32.6106C41.2156 33.3766 40.922 34.1109 40.4001 34.6525C39.8782 35.1941 39.1706 35.4987 38.4325 35.4994H6.41932C5.68123 35.4987 4.97357 35.1941 4.45167 34.6525C3.92976 34.1109 3.63625 33.3766 3.63556 32.6106V6.61105H41.2162V32.6106ZM42.6081 5.16663H2.24368V4.44442H42.6081V5.16663Z" fill="white"/>
<path d="M14.0745 29.7218C15.3733 29.7233 16.657 29.4328 17.8373 28.8703L19.8459 30.9547C19.9105 31.0218 19.9872 31.075 20.0717 31.1112C20.1561 31.1475 20.2466 31.1662 20.338 31.1662H25.9055C26.0901 31.1662 26.2671 31.0901 26.3976 30.9547C26.5281 30.8192 26.6014 30.6355 26.6014 30.444C26.6014 30.2525 26.5281 30.0688 26.3976 29.9333C26.2671 29.7979 26.0901 29.7218 25.9055 29.7218H20.6262L19.099 28.1369C20.3362 27.2797 21.3506 26.1191 22.0523 24.7578C22.754 23.3966 23.1213 21.8768 23.1217 20.3331C23.1217 20.1415 23.0484 19.9578 22.9179 19.8224C22.7874 19.6869 22.6104 19.6109 22.4258 19.6109H14.7705V11.6665C14.7705 11.475 14.6972 11.2913 14.5666 11.1559C14.4361 11.0204 14.2591 10.9443 14.0745 10.9443C11.6751 10.9443 9.37389 11.9335 7.67721 13.6942C5.98053 15.455 5.02734 17.843 5.02734 20.3331C5.02734 22.8231 5.98053 25.2112 7.67721 26.9719C9.37389 28.7326 11.6751 29.7218 14.0745 29.7218ZM13.3786 12.4213V20.3331C13.3786 20.5246 13.4519 20.7083 13.5824 20.8437C13.713 20.9792 13.89 21.0553 14.0745 21.0553H21.6986C21.5894 22.2827 21.2067 23.467 20.5808 24.5146C19.9549 25.5623 19.1029 26.4446 18.092 27.0919L15.9585 24.8778C15.828 24.7424 15.651 24.6663 15.4664 24.6663C15.2818 24.6663 15.1048 24.7424 14.9743 24.8778C14.8438 25.0133 14.7705 25.197 14.7705 25.3885C14.7705 25.5801 14.8438 25.7638 14.9743 25.8992L16.773 27.7658C15.751 28.1654 14.6585 28.3334 13.5688 28.2586C12.4792 28.1839 11.4175 27.868 10.4552 27.3322C9.49284 26.7965 8.65211 26.0532 7.98945 25.1524C7.32679 24.2516 6.85754 23.2141 6.6132 22.1095C6.36886 21.005 6.35509 19.8589 6.57282 18.7484C6.79055 17.6378 7.23474 16.5885 7.87556 15.6708C8.51638 14.7532 9.33899 13.9884 10.2882 13.4279C11.2373 12.8674 12.2911 12.5242 13.3786 12.4213Z" fill="white"/>
<path d="M16.8585 18.1666H25.2098C25.3944 18.1666 25.5714 18.0905 25.7019 17.9551C25.8324 17.8196 25.9057 17.6359 25.9057 17.4444C25.903 14.9552 24.949 12.5688 23.2529 10.8087C21.5568 9.04856 19.2572 8.05848 16.8585 8.05566C16.674 8.05566 16.4969 8.13175 16.3664 8.26719C16.2359 8.40264 16.1626 8.58633 16.1626 8.77787V17.4444C16.1626 17.6359 16.2359 17.8196 16.3664 17.9551C16.4969 18.0905 16.674 18.1666 16.8585 18.1666ZM17.5545 9.53258C19.3362 9.70389 21.004 10.5164 22.2693 11.8294C23.5345 13.1424 24.3175 14.8732 24.4825 16.7222H17.5545V9.53258Z" fill="white"/>
<path d="M27.9933 22.4997H39.1283C39.3129 22.4997 39.4899 22.4236 39.6204 22.2882C39.7509 22.1528 39.8243 21.9691 39.8243 21.7775V19.6109C39.8243 19.4193 39.7509 19.2356 39.6204 19.1002C39.4899 18.9648 39.3129 18.8887 39.1283 18.8887H27.9933C27.8087 18.8887 27.6317 18.9648 27.5012 19.1002C27.3707 19.2356 27.2974 19.4193 27.2974 19.6109V21.7775C27.2974 21.9691 27.3707 22.1528 27.5012 22.2882C27.6317 22.4236 27.8087 22.4997 27.9933 22.4997ZM28.6892 20.3331H38.4324V21.0553H28.6892V20.3331Z" fill="white"/>
<path d="M27.9933 25.3888H39.1283C39.3129 25.3888 39.4899 25.3127 39.6204 25.1772C39.7509 25.0418 39.8243 24.8581 39.8243 24.6665C39.8243 24.475 39.7509 24.2913 39.6204 24.1559C39.4899 24.0204 39.3129 23.9443 39.1283 23.9443H27.9933C27.8087 23.9443 27.6317 24.0204 27.5012 24.1559C27.3707 24.2913 27.2974 24.475 27.2974 24.6665C27.2974 24.8581 27.3707 25.0418 27.5012 25.1772C27.6317 25.3127 27.8087 25.3888 27.9933 25.3888Z" fill="white"/>
<path d="M27.9933 28.2774H39.1283C39.3129 28.2774 39.4899 28.2013 39.6204 28.0659C39.7509 27.9305 39.8243 27.7468 39.8243 27.5552C39.8243 27.3637 39.7509 27.18 39.6204 27.0445C39.4899 26.9091 39.3129 26.833 39.1283 26.833H27.9933C27.8087 26.833 27.6317 26.9091 27.5012 27.0445C27.3707 27.18 27.2974 27.3637 27.2974 27.5552C27.2974 27.7468 27.3707 27.9305 27.5012 28.0659C27.6317 28.2013 27.8087 28.2774 27.9933 28.2774Z" fill="white"/>
<path d="M27.9933 31.1661H34.8657C35.0503 31.1661 35.2273 31.09 35.3578 30.9546C35.4883 30.8191 35.5616 30.6354 35.5616 30.4439C35.5616 30.2523 35.4883 30.0687 35.3578 29.9332C35.2273 29.7978 35.0503 29.7217 34.8657 29.7217H27.9933C27.8087 29.7217 27.6317 29.7978 27.5012 29.9332C27.3707 30.0687 27.2974 30.2523 27.2974 30.4439C27.2974 30.6354 27.3707 30.8191 27.5012 30.9546C27.6317 31.09 27.8087 31.1661 27.9933 31.1661Z" fill="white"/>
<path d="M37.7364 29.7217H37.0404C36.8558 29.7217 36.6788 29.7978 36.5483 29.9332C36.4178 30.0687 36.3445 30.2523 36.3445 30.4439C36.3445 30.6354 36.4178 30.8191 36.5483 30.9546C36.6788 31.09 36.8558 31.1661 37.0404 31.1661H37.7364C37.9209 31.1661 38.0979 31.09 38.2285 30.9546C38.359 30.8191 38.4323 30.6354 38.4323 30.4439C38.4323 30.2523 38.359 30.0687 38.2285 29.9332C38.0979 29.7978 37.9209 29.7217 37.7364 29.7217Z" fill="white"/>
</svg>
