<svg width="26" height="26" viewBox="0 0 26 26" fill="none" xmlns="http://www.w3.org/2000/svg">
<path d="M17.3702 13.3115C17.1277 12.9965 17.1971 12.8563 17.3702 12.5748C17.3733 12.5716 19.3752 9.72628 19.5815 8.76135L19.5827 8.76071C19.6852 8.40906 19.5827 8.15063 19.0871 8.15063H17.4471C17.0296 8.15063 16.8371 8.37242 16.734 8.62056C16.734 8.62056 15.899 10.6764 14.7177 12.0091C14.3365 12.3941 14.1602 12.5176 13.9521 12.5176C13.8496 12.5176 13.6902 12.3941 13.6902 12.0425V8.76071C13.6902 8.33899 13.5733 8.15063 13.2277 8.15063H10.649C10.3871 8.15063 10.2315 8.34735 10.2315 8.53056C10.2315 8.93042 10.8221 9.02235 10.8833 10.1473V12.5883C10.8833 13.1231 10.789 13.2215 10.5796 13.2215C10.0221 13.2215 8.66896 11.1573 7.86709 8.79478C7.70521 8.33642 7.54709 8.15128 7.12646 8.15128H5.48584C5.01771 8.15128 4.92334 8.37306 4.92334 8.62121C4.92334 9.05963 5.48084 11.2396 7.51584 14.1196C8.87209 16.0854 10.7821 17.1506 12.5196 17.1506C13.564 17.1506 13.6915 16.9141 13.6915 16.5071C13.6915 14.6287 13.5971 14.4513 14.1202 14.4513C14.3627 14.4513 14.7802 14.5747 15.7552 15.5229C16.8696 16.6473 17.0527 17.1506 17.6765 17.1506H19.3165C19.784 17.1506 20.0208 16.9141 19.8846 16.4473C19.5727 15.4657 17.4652 13.4465 17.3702 13.3115V13.3115Z" fill="var(--icon-color, #006484)"/>
</svg>
