<svg width="26" height="26" viewBox="0 0 26 26" fill="none" xmlns="http://www.w3.org/2000/svg">
<path d="M19.3933 10.5346C19.3933 10.4011 19.3883 10.2713 19.3821 10.1433C19.9921 9.71679 20.5052 9.18448 20.9233 8.57156V8.57094C20.3652 8.81156 19.7715 8.97156 19.1515 9.0491C19.789 8.67433 20.2758 8.0854 20.5046 7.37587C19.9102 7.72479 19.254 7.97094 18.5546 8.10879C17.9902 7.51679 17.1858 7.15063 16.3083 7.15063C14.6058 7.15063 13.2352 8.51125 13.2352 10.1789C13.2352 10.4189 13.2558 10.6497 13.3065 10.8694C10.7502 10.7463 8.48771 9.54017 6.96771 7.70202C6.70271 8.15556 6.54646 8.67433 6.54646 9.23248C6.54646 10.2811 7.09459 11.2103 7.91271 11.7488C7.41834 11.7396 6.93396 11.598 6.52334 11.3759V11.4091C6.52334 12.8805 7.58896 14.1026 8.98709 14.3845C8.51709 14.5113 7.93834 14.5063 7.59896 14.4325C7.99709 15.6313 9.12834 16.5131 10.4721 16.542C9.42584 17.3476 8.09709 17.8331 6.65896 17.8331C6.40709 17.8331 6.16521 17.822 5.92334 17.7919C7.28584 18.6565 8.89959 19.1506 10.6408 19.1506C16.2996 19.1506 19.3933 14.5353 19.3933 10.5346V10.5346Z" fill="var(--icon-color, #006484)"/>
</svg>
