<svg width="80" height="80" viewBox="0 0 80 80" fill="none" xmlns="http://www.w3.org/2000/svg">
<path d="M76.9138 44.5971C77.3186 43.835 77.0291 42.8891 76.267 42.4841C67.5119 37.8316 56.8318 38.9474 49.245 45.1819L46.7204 42.6574L50.8434 38.5344C51.4535 37.9243 51.4535 36.9349 50.8434 36.3246C50.2331 35.7145 49.244 35.7145 48.6336 36.3246L44.5106 40.4476L34.4511 30.3881C36.7392 27.3195 38.1788 23.7151 38.6327 19.8772C39.1556 15.4528 38.3233 11.0272 36.2252 7.07925C35.8203 6.31722 34.8741 6.02785 34.1122 6.43269C33.3502 6.83769 33.0608 7.78362 33.4656 8.54565C36.8309 14.8784 36.3042 22.3981 32.2146 28.1515L25.5854 21.5223C24.6552 20.5922 23.333 20.2062 22.0483 20.4892C20.7637 20.7725 19.7265 21.6789 19.2737 22.914L0.239374 74.8407C-0.280468 76.259 0.0599992 77.8037 1.12828 78.8718C1.86593 79.6094 2.83046 80.0001 3.82405 80.0001C4.26936 80.0001 4.72045 79.9215 5.15935 79.7607L57.0857 60.7262C58.3209 60.2736 59.2273 59.2362 59.5107 57.9517C59.7938 56.667 59.4077 55.3448 58.4776 54.4147L51.4682 47.4052C58.0702 42.1374 67.2547 41.2338 74.8008 45.2438C75.5627 45.6488 76.5086 45.3591 76.9138 44.5971ZM24.8868 69.2009L10.7992 55.1133L14.7026 44.4647L35.5353 65.2975L24.8868 69.2009ZM17.2513 71.9998L8.00028 62.7487L9.61371 58.3473L21.6527 70.3863L17.2513 71.9998ZM4.08373 76.8265C3.71342 76.9623 3.45764 76.7816 3.3378 76.6621C3.21811 76.5424 3.03764 76.2865 3.17342 75.9163L6.81466 65.9828L14.0171 73.1852L4.08373 76.8265ZM56.459 57.2787C56.4277 57.4205 56.3279 57.6756 56.0104 57.792L46.4047 61.3131L37.5177 52.4259C36.9075 51.8156 35.9181 51.8158 35.308 52.4258C34.6978 53.0359 34.6977 54.0253 35.3078 54.6355L43.1706 62.4984L38.7692 64.1118L15.8881 41.2307L17.5015 36.8293L25.3644 44.6921C25.6694 44.9972 26.0694 45.1497 26.4693 45.1497C26.8691 45.1497 27.2691 44.9971 27.5741 44.6921C28.1843 44.0819 28.1843 43.0925 27.574 42.4824L18.687 33.5954L22.208 23.9897C22.3244 23.6722 22.5796 23.5723 22.7215 23.5409C22.7646 23.5314 22.8201 23.5232 22.883 23.5232C23.0266 23.5232 23.2096 23.5657 23.3758 23.7322L56.2679 56.6242C56.507 56.8634 56.4902 57.137 56.459 57.2787Z" fill="#0FA9DA"/>
<path d="M47.1243 12.4696C47.9873 12.4696 48.6868 11.7701 48.6868 10.9071C48.6868 9.59852 49.7515 8.53399 51.0601 8.53399C54.0917 8.53399 56.5582 6.06759 56.5582 3.03587C56.5582 2.1729 55.8585 1.47337 54.9957 1.47337C54.1329 1.47337 53.4332 2.1729 53.4332 3.03587C53.4332 4.34446 52.3685 5.40899 51.0601 5.40899C48.0284 5.40899 45.5618 7.8754 45.5618 10.9071C45.5618 11.7701 46.2615 12.4696 47.1243 12.4696Z" fill="#0FA9DA"/>
<path d="M60.9867 27.218C64.1178 27.218 66.6652 24.6706 66.6652 21.5397C66.6652 20.1319 67.8105 18.9864 69.2184 18.9864C70.0812 18.9864 70.7809 18.2869 70.7809 17.4239C70.7809 16.5609 70.0812 15.8614 69.2184 15.8614C66.0875 15.8614 63.5402 18.4088 63.5402 21.5397C63.5402 22.9475 62.3947 24.093 60.9867 24.093C60.1239 24.093 59.4242 24.7925 59.4242 25.6555C59.4242 26.5185 60.1239 27.218 60.9867 27.218Z" fill="#0FA9DA"/>
<path d="M70.0002 30.232C70.0002 32.9891 72.2432 35.232 75.0002 35.232C77.7573 35.232 80.0002 32.9891 80.0002 30.232C80.0002 27.475 77.7573 25.232 75.0002 25.232C72.2432 25.232 70.0002 27.475 70.0002 30.232ZM75.0002 28.357C76.0342 28.357 76.8752 29.1981 76.8752 30.232C76.8752 31.266 76.0342 32.107 75.0002 32.107C73.9663 32.107 73.1252 31.266 73.1252 30.232C73.1252 29.1981 73.9663 28.357 75.0002 28.357Z" fill="#0FA9DA"/>
<path d="M49.2353 26.5398C51.9924 26.5398 54.2353 24.2968 54.2353 21.5398C54.2353 18.7827 51.9924 16.5398 49.2353 16.5398C46.4783 16.5398 44.2353 18.7827 44.2353 21.5398C44.2353 24.2968 46.4785 26.5398 49.2353 26.5398ZM49.2353 19.6648C50.2692 19.6648 51.1103 20.5059 51.1103 21.5398C51.1103 22.5737 50.2692 23.4148 49.2353 23.4148C48.2014 23.4148 47.3603 22.5737 47.3603 21.5398C47.3603 20.5059 48.2014 19.6648 49.2353 19.6648Z" fill="#0FA9DA"/>
<path d="M20.0004 10.0001C22.7575 10.0001 25.0004 7.75712 25.0004 5.00009C25.0004 2.24306 22.7575 8.70711e-05 20.0004 8.70711e-05C17.2434 8.70711e-05 15.0004 2.24306 15.0004 5.00009C15.0004 7.75712 17.2434 10.0001 20.0004 10.0001ZM20.0004 3.12509C21.0343 3.12509 21.8754 3.96618 21.8754 5.00009C21.8754 6.03399 21.0343 6.87509 20.0004 6.87509C18.9665 6.87509 18.1254 6.03399 18.1254 5.00009C18.1254 3.96618 18.9665 3.12509 20.0004 3.12509Z" fill="#0FA9DA"/>
<path d="M70.7036 54.8528C70.0936 54.2426 69.1046 54.2426 68.4938 54.8526C67.8836 55.4628 67.8836 56.4521 68.4938 57.0623L69.9669 58.5354C70.2721 58.8406 70.6719 58.9931 71.0717 58.9931C71.4716 58.9931 71.8714 58.8404 72.1766 58.5354C72.7867 57.9253 72.7867 56.9359 72.1766 56.3257L70.7036 54.8528Z" fill="#0FA9DA"/>
<path d="M78.0686 62.2184C77.4583 61.6082 76.4692 61.6082 75.8587 62.2184C75.2486 62.8285 75.2486 63.8179 75.8587 64.4282L77.3319 65.9014C77.637 66.2065 78.0369 66.359 78.4367 66.359C78.8365 66.359 79.2364 66.2065 79.5415 65.9014C80.1517 65.2912 80.1517 64.3018 79.5415 63.6915L78.0686 62.2184Z" fill="#0FA9DA"/>
<path d="M77.3319 54.8527L75.8587 56.3258C75.2486 56.936 75.2486 57.9254 75.8587 58.5355C76.1639 58.8407 76.5637 58.9932 76.9636 58.9932C77.3634 58.9932 77.7634 58.8405 78.0684 58.5355L79.5415 57.0624C80.1517 56.4523 80.1517 55.4629 79.5415 54.8527C78.9314 54.2424 77.942 54.2426 77.3319 54.8527Z" fill="#0FA9DA"/>
<path d="M69.9669 62.2184L68.4938 63.6915C67.8836 64.3017 67.8836 65.2911 68.4938 65.9014C68.7989 66.2065 69.1988 66.359 69.5986 66.359C69.9986 66.359 70.3983 66.2065 70.7035 65.9014L72.1766 64.4282C72.7867 63.8181 72.7867 62.8287 72.1766 62.2184C71.5663 61.6082 70.5772 61.6082 69.9669 62.2184Z" fill="#0FA9DA"/>
<path d="M76.9637 4.59809C77.3636 4.59809 77.7636 4.44559 78.0686 4.14043L79.5417 2.6673C80.1519 2.05715 80.1519 1.06777 79.5417 0.457617C78.9314 -0.152539 77.942 -0.152539 77.3319 0.457617L75.8587 1.93074C75.2486 2.5409 75.2486 3.53027 75.8587 4.14043C76.1641 4.44559 76.5637 4.59809 76.9637 4.59809Z" fill="#0FA9DA"/>
<path d="M69.5993 11.9638C69.9993 11.9638 70.399 11.8113 70.7042 11.5061L72.1773 10.033C72.7875 9.42281 72.7875 8.43344 72.1773 7.82313C71.567 7.21297 70.5779 7.21297 69.9675 7.82313L68.4943 9.29625C67.8842 9.90641 67.8842 10.8958 68.4943 11.5061C68.7997 11.8113 69.1995 11.9638 69.5993 11.9638Z" fill="#0FA9DA"/>
<path d="M78.0686 7.82334C77.4583 7.21318 76.4692 7.21318 75.8587 7.82334C75.2486 8.4335 75.2486 9.42287 75.8587 10.0332L77.3319 11.5063C77.637 11.8115 78.0369 11.964 78.4367 11.964C78.8365 11.964 79.2364 11.8115 79.5415 11.5063C80.1517 10.8962 80.1517 9.90678 79.5415 9.29647L78.0686 7.82334Z" fill="#0FA9DA"/>
<path d="M69.9676 4.14043C70.2728 4.44559 70.6726 4.59809 71.0725 4.59809C71.4723 4.59809 71.8722 4.44559 72.1773 4.14043C72.7875 3.53027 72.7875 2.5409 72.1773 1.93074L70.7042 0.457617C70.0942 -0.152539 69.1051 -0.152539 68.4943 0.457617C67.8842 1.06777 67.8842 2.05715 68.4943 2.6673L69.9676 4.14043Z" fill="#0FA9DA"/>
<path d="M31.4403 46.9968C31.0294 46.9968 30.6262 47.164 30.3356 47.4546C30.045 47.7452 29.8778 48.1483 29.8778 48.5593C29.8778 48.9702 30.045 49.3733 30.3356 49.664C30.6262 49.9546 31.0294 50.1218 31.4403 50.1218C31.8512 50.1218 32.2544 49.9546 32.545 49.664C32.8356 49.3733 33.0028 48.9702 33.0028 48.5593C33.0028 48.1483 32.8356 47.7452 32.545 47.4546C32.2544 47.164 31.8512 46.9968 31.4403 46.9968Z" fill="#0FA9DA"/>
<path d="M54.2373 30.7212L53.1045 31.854C52.4943 32.4642 52.4943 33.4535 53.1045 34.0639C53.4096 34.369 53.8095 34.5215 54.2093 34.5215C54.6091 34.5215 55.009 34.369 55.3141 34.0639L56.447 32.931C57.0571 32.3209 57.0571 31.3315 56.447 30.7212C55.8366 30.111 54.8476 30.111 54.2373 30.7212Z" fill="#0FA9DA"/>
</svg>
