<svg width="45" height="45" viewBox="0 0 45 45" fill="none" xmlns="http://www.w3.org/2000/svg">
<path d="M22.1367 7.01279C22.1367 5.94759 21.2688 5.08105 20.2019 5.08105C19.1351 5.08105 18.2671 5.94759 18.2671 7.01279C18.2671 8.07792 19.135 8.94453 20.2019 8.94453C21.2688 8.94446 22.1367 8.07792 22.1367 7.01279ZM19.439 7.01279C19.439 6.59275 19.7813 6.2511 20.202 6.2511C20.6226 6.2511 20.9649 6.59275 20.9649 7.01279C20.9649 7.43276 20.6226 7.77449 20.202 7.77449C19.7813 7.77441 19.439 7.43276 19.439 7.01279Z" fill="white"/>
<path d="M24.0296 7.68262C23.7189 7.68262 23.4295 7.84954 23.2742 8.11803L20.8827 12.2538L19.6083 10.0498C19.4529 9.78128 19.1636 9.61451 18.8529 9.61451C18.5422 9.61451 18.2529 9.78136 18.0975 10.0499L16.9685 12.0023C16.8067 12.2821 16.9027 12.6399 17.1829 12.8015C17.4633 12.9631 17.8215 12.8671 17.9833 12.5874L18.8529 11.0836L20.2061 13.4239L18.5736 16.2468C18.5484 16.2905 18.5287 16.3364 18.5117 16.383H15.7885L16.7065 14.7954C16.8683 14.5156 16.7723 14.1578 16.4921 13.9962C16.2116 13.8346 15.8533 13.9306 15.6917 14.2104L14.5142 16.2466C14.3589 16.5152 14.3589 16.849 14.5141 17.1175C14.6694 17.3862 14.9589 17.553 15.2696 17.553H19.3292H28.7301C29.0408 17.553 29.3302 17.3862 29.4855 17.1175C29.6408 16.8489 29.6408 16.5152 29.4855 16.2466V16.2467L24.7851 8.11818C24.6298 7.84954 24.3403 7.68262 24.0296 7.68262ZM19.8482 16.383L24.0296 9.1518L28.2111 16.383H19.8482Z" fill="white"/>
<path d="M40.7543 37.5523H40.3594V28.0155H40.6608C40.9844 28.0155 41.2467 27.7536 41.2467 27.4305C41.2467 27.1074 40.9844 26.8455 40.6608 26.8455H40.3594V25.0432C40.9029 24.5652 41.2467 23.8661 41.2467 23.0878C41.2467 21.6506 40.0757 20.4814 38.6363 20.4814C37.197 20.4814 36.026 21.6506 36.026 23.0878C36.026 23.866 36.3699 24.5652 36.9133 25.0431V26.8455H36.612C36.2883 26.8455 36.026 27.1074 36.026 27.4305C36.026 27.7536 36.2883 28.0155 36.612 28.0155H36.9133V28.4274C35.0999 29.6813 30.4242 32.1821 21.9998 32.1821C13.5757 32.1821 8.89982 29.6813 7.08639 28.4274V28.0155H7.38771C7.71138 28.0155 7.97365 27.7536 7.97365 27.4305C7.97365 27.1074 7.71138 26.8455 7.38771 26.8455H7.08639V25.0431C7.62982 24.5651 7.97365 23.866 7.97365 23.0878C7.97365 21.6506 6.80272 20.4814 5.36335 20.4814C3.92398 20.4814 2.75297 21.6506 2.75297 23.0878C2.75297 23.866 3.09687 24.5652 3.64031 25.0432V26.8455H3.33906C3.01539 26.8455 2.75312 27.1074 2.75312 27.4305C2.75312 27.7536 3.01546 28.0155 3.33906 28.0155H3.64046V30.979C3.64046 31.3021 3.9028 31.564 4.2264 31.564C4.55007 31.564 4.81233 31.3021 4.81233 30.979V28.0155H5.91459V37.5523H4.81233V33.5286C4.81233 33.2055 4.55007 32.9436 4.2264 32.9436C3.9028 32.9436 3.64046 33.2055 3.64046 33.5286V37.5523H3.24554C2.55875 37.5523 2 38.1102 2 38.796V40.0855C2 40.5896 2.41086 40.9998 2.91578 40.9998H7.81115C8.31607 40.9998 8.72693 40.5896 8.72693 40.0855V38.796C8.72693 38.1102 8.16826 37.5524 7.48146 37.5524H7.08654V29.8226C9.36427 31.2178 14.1356 33.3521 22 33.3521C29.8645 33.3521 34.6357 31.2178 36.9135 29.8226V37.5524H36.5185C35.8317 37.5524 35.2731 38.1102 35.2731 38.796V40.0855C35.2731 40.5896 35.6839 40.9998 36.1889 40.9998H41.0842C41.5891 40.9998 42 40.5896 42 40.0855V38.796C41.9998 38.1102 41.4411 37.5523 40.7543 37.5523ZM5.3635 21.6516C6.15662 21.6516 6.80193 22.2959 6.80193 23.0878C6.80193 23.8798 6.15662 24.5241 5.3635 24.5241C4.5703 24.5241 3.92499 23.8798 3.92499 23.0878C3.92499 22.2959 4.57022 21.6516 5.3635 21.6516ZM4.81233 26.8455V25.6351C4.99014 25.6734 5.17436 25.6941 5.3635 25.6941C5.55264 25.6941 5.73686 25.6734 5.91467 25.6351V26.8455H4.81233ZM7.55498 38.796V39.8297H3.17187V38.796C3.17187 38.7554 3.20492 38.7224 3.24554 38.7224H7.48139C7.52201 38.7223 7.55498 38.7554 7.55498 38.796ZM38.6363 21.6516C39.4295 21.6516 40.0748 22.2959 40.0748 23.0878C40.0748 23.8798 39.4295 24.5241 38.6363 24.5241C37.8432 24.5241 37.1979 23.8798 37.1979 23.0878C37.1979 22.2959 37.8432 21.6516 38.6363 21.6516ZM38.0853 25.6351C38.2631 25.6734 38.4473 25.6941 38.6364 25.6941C38.8256 25.6941 39.0098 25.6734 39.1876 25.6351V26.8455H38.0853V25.6351H38.0853ZM38.0853 28.0155H39.1875V37.5523H38.0853V28.0155ZM40.828 39.8297H36.4449V38.796C36.4449 38.7554 36.4779 38.7224 36.5185 38.7224H40.7543C40.7949 38.7224 40.828 38.7554 40.828 38.796V39.8297Z" fill="white"/>
<path d="M9.56408 20.6341H34.4356C35.1707 20.6341 35.7687 20.037 35.7687 19.303V3.33104C35.7687 2.59711 35.1707 2 34.4356 2H30.6624C30.3387 2 30.0764 2.26193 30.0764 2.58502C30.0764 2.90811 30.3387 3.17004 30.6624 3.17004H34.4356C34.5246 3.17004 34.5969 3.24227 34.5969 3.33104V19.3031C34.5969 19.3919 34.5245 19.4641 34.4356 19.4641H9.56408C9.47509 19.4641 9.40283 19.3919 9.40283 19.3031V3.33104C9.40283 3.24227 9.47517 3.17004 9.56408 3.17004H28.1088C28.4324 3.17004 28.6947 2.90811 28.6947 2.58502C28.6947 2.26193 28.4324 2 28.1088 2H9.56408C8.829 2 8.23096 2.59711 8.23096 3.33104V19.3031C8.23096 20.0371 8.829 20.6341 9.56408 20.6341Z" fill="white"/>
</svg>
