<svg width="32" height="32" viewBox="0 0 32 32" fill="none" xmlns="http://www.w3.org/2000/svg">
<path d="M20 17L25.89 17C25.7042 18.2377 25.2622 19.423 24.5924 20.4802C23.9226 21.5374 23.0397 22.4433 22 23.14L20.21 24.34L21.31 26L23.1 24.8C24.6067 23.7959 25.8423 22.4354 26.6971 20.8393C27.5518 19.2431 27.9994 17.4606 28 15.65L28 9C28 8.46957 27.7893 7.96086 27.4142 7.58579C27.0391 7.21071 26.5304 7 26 7L20 7C19.4696 7 18.9609 7.21071 18.5858 7.58579C18.2107 7.96086 18 8.46957 18 9L18 15C18 15.5304 18.2107 16.0391 18.5858 16.4142C18.9609 16.7893 19.4696 17 20 17Z" fill="#333333"/>
<path d="M6 17L11.89 17C11.7042 18.2377 11.2622 19.423 10.5924 20.4802C9.92261 21.5374 9.03968 22.4433 8 23.14L6.21 24.34L7.3 26L9.1 24.8C10.6067 23.7959 11.8423 22.4354 12.6971 20.8393C13.5518 19.2431 13.9994 17.4606 14 15.65L14 9C14 8.46957 13.7893 7.96086 13.4142 7.58579C13.0391 7.21071 12.5304 7 12 7L6 7C5.46957 7 4.96086 7.21071 4.58579 7.58579C4.21072 7.96086 4 8.46957 4 9L4 15C4 15.5304 4.21071 16.0391 4.58579 16.4142C4.96086 16.7893 5.46957 17 6 17Z" fill="#333333"/>
</svg>
