<svg width="14" height="20" viewBox="0 0 14 20" fill="none" xmlns="http://www.w3.org/2000/svg">
<path d="M7 0C3.1402 0 0 3.15422 0 7.03125C0 8.34117 0.361239 9.61953 1.04491 10.7286L6.60154 19.723C6.70798 19.8953 6.89551 20 7.09718 20H7.10181C7.30524 19.9984 7.49315 19.8905 7.59765 19.7152L13.0127 10.6336C13.6586 9.54797 14 8.3023 14 7.03125C14 3.15422 10.8598 0 7 0ZM12.0115 10.032L7.08836 18.2885L2.03649 10.1112C1.46743 9.18805 1.15889 8.12305 1.15889 7.03125C1.15889 3.80039 3.7835 1.16406 7 1.16406C10.2165 1.16406 12.8372 3.80039 12.8372 7.03125C12.8372 8.09066 12.549 9.12844 12.0115 10.032Z" fill="var(--icon-color, #ffffff)"/>
<path d="M7 3.51562C5.0701 3.51562 3.5 5.09273 3.5 7.03125C3.5 8.95738 5.04455 10.5469 7 10.5469C8.97956 10.5469 10.5 8.93621 10.5 7.03125C10.5 5.09273 8.9299 3.51562 7 3.51562ZM7 9.38281C5.70667 9.38281 4.65889 8.32684 4.65889 7.03125C4.65889 5.73891 5.7134 4.67969 7 4.67969C8.2866 4.67969 9.33722 5.73891 9.33722 7.03125C9.33722 8.30793 8.31382 9.38281 7 9.38281Z" fill="var(--icon-color, #ffffff)"/>
</svg>
