<svg width="45" height="45" viewBox="0 0 45 45" fill="none" xmlns="http://www.w3.org/2000/svg">
<path d="M43.4619 4H1.53809C0.690029 4 0 4.69253 0 5.54367V10.977C0 11.8323 1.31836 11.8323 1.31836 10.977V5.54367C1.31836 5.42212 1.41688 5.32315 1.53809 5.32315H43.4619C43.5831 5.32315 43.6816 5.42212 43.6816 5.54367V37.8054C43.6816 37.927 43.5831 38.026 43.4619 38.026H35.0146V36.6494H41.6445C42.0086 36.6494 42.3037 36.3531 42.3037 35.9878V29.0599C42.3037 28.2045 40.9853 28.2045 40.9853 29.0599V35.3262H35.0146V32.3908C35.036 32.3927 35.0576 32.3946 35.0779 32.3964C35.6251 32.4447 36.3058 32.5047 36.7773 32.0306C37.2483 31.557 37.1887 30.8732 37.1408 30.3237C37.0892 29.7341 37.1448 29.5726 37.5964 29.1959C38.7591 28.2256 38.7807 27.1866 37.5964 26.1985C37.1448 25.8215 37.0895 25.6603 37.1408 25.0705C37.2698 23.5906 36.5811 22.8653 35.0779 22.9979C34.4913 23.0496 34.3321 22.9937 33.958 22.5404C32.9927 21.3707 31.9569 21.3491 30.9736 22.5404C30.5996 22.9936 30.4405 23.0498 29.8538 22.9979C28.3782 22.8678 27.6592 23.5629 27.7908 25.0705C27.8422 25.6604 27.7869 25.8215 27.3353 26.1985C26.1726 27.1687 26.1511 28.2079 27.3353 29.1959C27.7869 29.5729 27.8422 29.7341 27.7908 30.3239C27.6524 31.909 28.4067 32.5218 29.9169 32.3909V35.3264H4.01476V8.02281H40.9853V25.5315C40.9853 26.3868 42.3037 26.3868 42.3037 25.5315V7.36123C42.3037 6.99587 42.0086 6.69966 41.6445 6.69966H3.35558C2.99145 6.69966 2.6964 6.99587 2.6964 7.36123V35.9878C2.6964 36.3531 2.99145 36.6494 3.35558 36.6494H29.9169V38.026H1.53809C1.41688 38.026 1.31836 37.927 1.31836 37.8054V14.3288C1.31836 13.4735 0 13.4735 0 14.3288V37.8054C0 38.6566 0.690029 39.3491 1.53809 39.3491H29.9169V42.3438C30.0108 42.8875 30.3232 43.0875 30.8541 42.9436L32.4657 42.1913L34.0774 42.9436C34.4762 43.1298 35.0146 42.8356 35.0146 42.3438V39.3491H43.4619C44.31 39.3491 45 38.6566 45 37.8054V5.54367C45 4.69245 44.31 4 43.4619 4ZM29.7382 31.0782C29.0784 31.1365 29.0464 31.101 29.104 30.4391C29.1926 29.4232 28.9598 28.8304 28.178 28.1782C27.6431 27.7318 27.6432 27.6622 28.178 27.2158C28.9598 26.5635 29.1927 25.9708 29.104 24.9549C29.0464 24.2929 29.0784 24.2578 29.7382 24.3158C30.7506 24.4053 31.3404 24.1699 31.9888 23.3842C32.4318 22.8475 32.4996 22.8475 32.9426 23.3842C33.5912 24.1699 34.1808 24.405 35.1932 24.3158C35.8531 24.2575 35.885 24.2929 35.8274 24.9549C35.7388 25.9708 35.9716 26.5634 36.7534 27.2157C37.2882 27.6621 37.2885 27.7319 36.7533 28.1782C35.9715 28.8305 35.7386 29.423 35.8273 30.4389C35.8852 31.1009 35.853 31.1364 35.1933 31.0782C34.7792 31.0417 34.3095 31.0002 33.8961 31.1726C33.4959 31.3394 33.2146 31.6801 32.9425 32.0098C32.8144 32.165 32.5805 32.4484 32.4656 32.4992C32.3507 32.4484 32.1168 32.165 31.9887 32.0098C31.7167 31.6802 31.4354 31.3394 31.0351 31.1726C30.6085 31.042 30.1762 31.0105 29.7382 31.0782ZM32.7437 40.8619C32.5674 40.7796 32.3641 40.7796 32.1877 40.8619L31.2353 41.3066V33.1605C31.5481 33.5056 31.934 33.8261 32.4657 33.8261C32.9975 33.8261 33.3834 33.5057 33.6962 33.1606V41.3066L32.7437 40.8619Z" fill="white"/>
<path d="M8.5487 13.5614H31.2726C32.1248 13.5614 32.1248 12.2383 31.2726 12.2383H8.5487C7.69633 12.2383 7.69633 13.5614 8.5487 13.5614Z" fill="white"/>
<path d="M37.1108 16.9223C37.1108 16.557 36.8157 16.2607 36.4516 16.2607H8.54863C7.69636 16.2607 7.69636 17.5839 8.54863 17.5839H36.4517C36.8157 17.5839 37.1108 17.2877 37.1108 16.9223Z" fill="white"/>
<path d="M25.061 20.9467C25.061 20.5814 24.766 20.2852 24.4018 20.2852H8.54863C7.69635 20.2852 7.69635 21.6083 8.54863 21.6083H24.4018C24.7659 21.6083 25.061 21.3121 25.061 20.9467Z" fill="white"/>
<path d="M16.4045 30.1691C16.0451 30.1697 15.6856 30.1701 15.3262 30.1704C14.6348 30.1709 14.2541 29.9859 14.1129 29.2501C13.984 28.5784 13.0186 28.6639 12.8417 29.2501C12.7633 29.5097 12.3678 30.2529 12.0223 30.1921C11.8393 30.1599 11.7593 29.8765 11.6916 29.7297C11.5599 29.444 11.4639 29.1412 11.3817 28.8377C11.0347 27.5557 10.9655 26.2171 10.7484 24.9109C10.6225 24.1534 9.4721 24.3676 9.45356 25.0868C9.39449 27.3777 9.02131 29.6372 8.20867 31.7845C7.90712 32.5813 9.1811 32.9258 9.47992 32.1362C9.79325 31.3083 10.042 30.4605 10.235 29.6001C10.3385 29.9136 10.462 30.2211 10.6127 30.5202C10.9977 31.2838 11.7828 31.7355 12.6229 31.3959C12.9227 31.2747 13.1962 31.0628 13.429 30.805C14.0527 31.5268 14.9806 31.4941 15.8462 31.493C17.1511 31.4913 18.456 31.4882 19.761 31.4846C20.6093 31.4822 20.6108 30.1591 19.761 30.1615C18.6422 30.1647 17.5233 30.1672 16.4045 30.1691Z" fill="white"/>
<path d="M32.466 30.2813C33.8857 30.2813 35.0408 29.1222 35.0408 27.6973C35.0408 26.2724 33.8857 25.1133 32.466 25.1133C31.0464 25.1133 29.8914 26.2725 29.8914 27.6973C29.8914 29.1221 31.0463 30.2813 32.466 30.2813ZM32.466 26.4364C33.1588 26.4364 33.7224 27.0021 33.7224 27.6973C33.7224 28.3925 33.1588 28.9582 32.466 28.9582C31.7733 28.9582 31.2097 28.3926 31.2097 27.6973C31.2097 27.002 31.7733 26.4364 32.466 26.4364Z" fill="white"/>
</svg>
