<svg width="45" height="45" viewBox="0 0 45 45" fill="none"
    xmlns="http://www.w3.org/2000/svg">
    <path d="M43.8294 34.0048H41.5755C42.1144 33.3554 42.4376 32.5274 42.4376 31.6442V8.71464C42.4376 6.66644 40.7676 5 38.7151 5H24.0381C23.674 5 23.3789 5.29442 23.3789 5.65777C23.3789 6.02112 23.674 6.31554 24.0381 6.31554H38.715C40.0407 6.31554 41.1192 7.39174 41.1192 8.71464V31.6441C41.1192 32.7937 40.2727 33.7998 39.1422 34.0047C38.1688 34.0047 7.38393 34.0047 5.8578 34.0047C4.72727 33.7998 3.8808 32.7937 3.8808 31.6441V8.71464C3.8808 7.39174 4.9593 6.31554 6.28503 6.31554H20.9618C21.326 6.31554 21.621 6.02112 21.621 5.65777C21.621 5.29442 21.326 5 20.9618 5H6.28512C4.23253 5 2.56253 6.66644 2.56253 8.71464V31.6441C2.56253 32.5273 2.8857 33.3553 3.42464 34.0047H1.1707C0.525144 34.0047 0 34.531 0 35.1779V36.9507C0 38.6321 1.36045 40 3.03274 40H41.9673C43.6395 40 45 38.6321 45 36.9507V35.1779C45 34.5311 44.4749 34.0048 43.8294 34.0048ZM16.7878 35.3204H28.2123V35.852C28.2123 36.0715 28.031 36.257 27.8167 36.257H17.1834C16.9691 36.257 16.7878 36.0715 16.7878 35.852V35.3204ZM43.6816 36.9508C43.6816 37.9067 42.9126 38.6845 41.9673 38.6845H3.03274C2.08739 38.6845 1.31835 37.9067 1.31835 36.9508V35.3204H15.4695V35.852C15.4695 36.8007 16.2383 37.5726 17.1834 37.5726H27.8167C28.7617 37.5726 29.5306 36.8007 29.5306 35.852V35.3204H43.6816V36.9508Z" fill="var(--icon-color, #ffffff)"/>
    <path d="M31.5456 26.7931C31.9097 26.7931 32.2048 26.4987 32.2048 26.1353C32.2048 25.3177 32.2048 18.8147 32.2048 17.8817V17.4429C32.2048 17.0795 31.9097 16.7851 31.5456 16.7851C31.1815 16.7851 30.8864 17.0795 30.8864 17.4429V17.4635L28.5281 18.5664V17.6767C28.5281 16.3413 27.4393 15.2549 26.1011 15.2549H15.2226C13.8844 15.2549 12.7957 16.3413 12.7957 17.6767V25.9013C12.7957 27.2368 13.8844 28.3232 15.2226 28.3232H26.101C27.4393 28.3232 28.528 27.2367 28.528 25.9013V25.0118L30.8864 26.1147V26.1351C30.8864 26.4987 31.1815 26.7931 31.5456 26.7931ZM27.2097 25.9014C27.2097 26.5114 26.7123 27.0077 26.1011 27.0077H15.2226C14.6113 27.0077 14.114 26.5114 14.114 25.9014V17.6768C14.114 17.0668 14.6113 16.5705 15.2226 16.5705H26.101C26.7123 16.5705 27.2096 17.0668 27.2096 17.6768C27.2097 18.5358 27.2097 24.9799 27.2097 25.9014ZM28.5281 23.5591V20.0193L30.8864 18.9164V24.6621L28.5281 23.5591Z" fill="var(--icon-color, #ffffff)"/>
    <path d="M32.8691 15.4945C32.8691 16.6632 33.822 17.6139 34.9932 17.6139C36.1644 17.6139 37.1172 16.6632 37.1172 15.4945C37.1172 14.3258 36.1644 13.375 34.9932 13.375C33.822 13.375 32.8691 14.3258 32.8691 15.4945ZM35.7989 15.4945C35.7989 15.9378 35.4375 16.2984 34.9932 16.2984C34.5489 16.2984 34.1875 15.9378 34.1875 15.4945C34.1875 15.0512 34.5489 14.6905 34.9932 14.6905C35.4375 14.6905 35.7989 15.0513 35.7989 15.4945Z" fill="var(--icon-color, #ffffff)"/>
    <path d="M23.0836 20.6763L20.2548 18.7516C19.3596 18.1424 18.144 18.7836 18.144 19.8647V23.7141C18.144 24.7951 19.3593 25.4365 20.2548 24.8272L23.0836 22.9025C23.8689 22.368 23.8685 21.2107 23.0836 20.6763ZM22.3407 21.8156L19.512 23.7403C19.4901 23.7555 19.4624 23.7404 19.4624 23.7141V19.8646C19.4624 19.8397 19.4882 19.8221 19.512 19.8384L22.3407 21.763C22.3597 21.776 22.3597 21.8028 22.3407 21.8156Z" fill="var(--icon-color, #ffffff)"/>
    <path d="M39.0259 20.9117C39.39 20.9117 39.685 20.6173 39.685 20.2539C39.685 20.2022 39.685 9.20592 39.685 8.93185C39.685 8.26671 39.1428 7.72559 38.4763 7.72559C38.0749 7.72559 7.14938 7.72559 6.52281 7.72559C5.85625 7.72559 5.31396 8.26671 5.31396 8.93185V31.3927C5.31396 32.0579 5.85625 32.599 6.52281 32.599H38.4763C39.1428 32.599 39.685 32.0579 39.685 31.3927V23.3235C39.685 22.9601 39.39 22.6657 39.0259 22.6657C38.6617 22.6657 38.3667 22.9601 38.3667 23.3235V31.2835H6.63241V12.2938H38.3667V20.2539C38.3667 20.6172 38.6618 20.9117 39.0259 20.9117ZM8.88688 10.9783H6.63241V9.04112H8.88688V10.9783ZM10.2052 10.9783V9.04112H38.3667V10.9783H10.2052Z" fill="var(--icon-color, #ffffff)"/>
</svg>
