<svg width="45" height="45" viewBox="0 0 45 45" fill="none"
    xmlns="http://www.w3.org/2000/svg">
    <path d="M42.8226 5H2.17742C1.60017 5.00074 1.04678 5.22223 0.6386 5.61589C0.230421 6.00956 0.000768134 6.54327 0 7.1V30.9C0.000768134 31.4567 0.230421 31.9904 0.6386 32.3841C1.04678 32.7778 1.60017 32.9993 2.17742 33H17.1826L16.1465 36.5H13.0645C12.872 36.5 12.6874 36.5737 12.5513 36.705C12.4152 36.8363 12.3387 37.0143 12.3387 37.2V38.6H6.53226C6.33976 38.6 6.15515 38.6737 6.01904 38.805C5.88292 38.9363 5.80645 39.1143 5.80645 39.3C5.80645 39.4856 5.88292 39.6637 6.01904 39.795C6.15515 39.9263 6.33976 40 6.53226 40H38.4677C38.6602 40 38.8449 39.9263 38.981 39.795C39.1171 39.6637 39.1936 39.4856 39.1936 39.3C39.1936 39.1143 39.1171 38.9363 38.981 38.805C38.8449 38.6737 38.6602 38.6 38.4677 38.6H32.6613V37.2C32.6613 37.0143 32.5848 36.8363 32.4487 36.705C32.3126 36.5737 32.128 36.5 31.9355 36.5H28.8535L27.8174 33H42.8226C43.3998 32.9993 43.9532 32.7778 44.3614 32.3841C44.7696 31.9904 44.9992 31.4567 45 30.9V7.1C44.9992 6.54327 44.7696 6.00956 44.3614 5.61589C43.9532 5.22223 43.3998 5.00074 42.8226 5ZM31.2097 37.9V38.6H13.7903V37.9H31.2097ZM17.6561 36.5L18.6922 33H26.3078L27.3439 36.5H17.6561ZM43.5484 30.9C43.5481 31.0856 43.4716 31.2635 43.3355 31.3947C43.1995 31.5259 43.015 31.5997 42.8226 31.6H2.17742C1.985 31.5997 1.80055 31.5259 1.66449 31.3947C1.52843 31.2635 1.45188 31.0856 1.45161 30.9V29.5H43.5484V30.9ZM43.5484 28.1H1.45161V7.1C1.45188 6.91443 1.52843 6.73653 1.66449 6.60531C1.80055 6.47409 1.985 6.40025 2.17742 6.4H42.8226C43.015 6.40025 43.1995 6.47409 43.3355 6.60531C43.4716 6.73653 43.5481 6.91443 43.5484 7.1V28.1Z" fill="var(--icon-color, #ffffff)"/>
    <path d="M34.2186 17.7208V14.1C34.2185 13.9668 34.1791 13.8363 34.1048 13.7239C34.0306 13.6115 33.9246 13.5219 33.7994 13.4656L22.9123 8.56563C22.8163 8.5224 22.7116 8.5 22.6056 8.5C22.4997 8.5 22.395 8.5224 22.299 8.56563L11.4119 13.4656C11.2867 13.522 11.1808 13.6116 11.1066 13.7239C11.0323 13.8363 10.9929 13.9668 10.9929 14.1C10.9929 14.2332 11.0323 14.3637 11.1066 14.4761C11.1808 14.5884 11.2867 14.6781 11.4119 14.7344L15.3476 16.5054V24.6C15.3476 24.7857 15.4241 24.9637 15.5602 25.095C15.6963 25.2263 15.8809 25.3 16.0734 25.3H29.1379C29.3304 25.3 29.515 25.2263 29.6511 25.095C29.7872 24.9637 29.8637 24.7857 29.8637 24.6V16.5054L32.7669 15.199V17.7208C32.2827 17.8859 31.8745 18.2108 31.6146 18.6381C31.3547 19.0654 31.2598 19.5675 31.3467 20.0558C31.4335 20.544 31.6966 20.9869 32.0893 21.3062C32.482 21.6255 32.9791 21.8007 33.4927 21.8007C34.0064 21.8007 34.5035 21.6255 34.8962 21.3062C35.2889 20.9869 35.5519 20.544 35.6388 20.0558C35.7257 19.5675 35.6308 19.0654 35.3709 18.6381C35.111 18.2108 34.7028 17.8859 34.2186 17.7208ZM28.4121 23.9H16.7992V17.159L22.299 19.6344C22.395 19.6776 22.4997 19.7 22.6056 19.7C22.7116 19.7 22.8163 19.6776 22.9123 19.6344L28.4121 17.159V23.9ZM22.6056 18.2274L13.4351 14.1L22.6056 9.97263L31.7762 14.1L22.6056 18.2274ZM33.4927 20.4C33.3492 20.4 33.2089 20.3589 33.0895 20.282C32.9702 20.2051 32.8771 20.0958 32.8222 19.9679C32.7673 19.84 32.7529 19.6992 32.7809 19.5634C32.8089 19.4277 32.878 19.3029 32.9795 19.205C33.081 19.1071 33.2104 19.0405 33.3511 19.0135C33.4919 18.9864 33.6379 19.0003 33.7705 19.0533C33.9031 19.1063 34.0165 19.196 34.0962 19.3111C34.176 19.4262 34.2186 19.5616 34.2186 19.7C34.2183 19.8856 34.1417 20.0635 34.0057 20.1947C33.8696 20.3259 33.6852 20.3997 33.4927 20.4Z" fill="var(--icon-color, #ffffff)"/>
</svg>
