<svg width="45" height="45" viewBox="0 0 45 45" fill="none" xmlns="http://www.w3.org/2000/svg">
<path d="M22.5 30.054C26.2457 30.054 29.2929 27.0067 29.2929 23.261V10.793C29.2929 7.04729 26.2457 4 22.5 4C18.7543 4 15.707 7.04729 15.707 10.793V23.261C15.707 27.0067 18.7543 30.054 22.5 30.054ZM22.5 5.44531C25.4488 5.44531 27.8476 7.84418 27.8476 10.793V16.7653H17.1523V10.793C17.1523 7.84418 19.5512 5.44531 22.5 5.44531ZM17.1523 18.2106H27.8476V23.261C27.8476 26.2098 25.4488 28.6087 22.5 28.6087C19.5512 28.6087 17.1523 26.2098 17.1523 23.261V18.2106Z" fill="white"/>
<path d="M20.7417 13.4893H24.2584C24.6576 13.4893 24.9811 13.1658 24.9811 12.7666C24.9811 12.3674 24.6576 12.0439 24.2584 12.0439H20.7417C20.3425 12.0439 20.019 12.3674 20.019 12.7666C20.019 13.1658 20.3425 13.4893 20.7417 13.4893Z" fill="white"/>
<path d="M20.7417 10.7959H24.2584C24.6576 10.7959 24.9811 10.4724 24.9811 10.0732C24.9811 9.67409 24.6576 9.35059 24.2584 9.35059H20.7417C20.3425 9.35059 20.019 9.67409 20.019 10.0732C20.019 10.4724 20.3425 10.7959 20.7417 10.7959Z" fill="white"/>
<path d="M31.7523 22.5381C31.3534 22.5381 31.0296 22.8616 31.0296 23.2607C31.0296 27.9639 27.2032 31.7903 22.5 31.7903C17.7969 31.7903 13.9705 27.9639 13.9705 23.2607C13.9705 22.8616 13.647 22.5381 13.2478 22.5381C12.8486 22.5381 12.5251 22.8616 12.5251 23.2607C12.5251 28.0297 15.8897 32.0272 20.3693 33.0059V36.6592H20.3126C18.3177 36.6592 16.6948 38.2821 16.6948 40.277C16.6948 40.6762 17.0183 40.9997 17.4175 40.9997H27.5826C27.9818 40.9997 28.3053 40.6762 28.3053 40.277C28.3053 38.2824 26.6824 36.6592 24.6875 36.6592H24.6307V33.0059C29.1106 32.0272 32.4749 28.0297 32.4749 23.2607C32.4749 22.8616 32.1514 22.5381 31.7523 22.5381ZM26.7366 39.5543H18.2638C18.5621 38.7106 19.3678 38.1045 20.3126 38.1045H24.6878C25.6323 38.1045 26.4379 38.7106 26.7366 39.5543ZM23.1854 36.6592H21.8146V33.2116C22.0413 33.2272 22.2697 33.2356 22.5 33.2356C22.7304 33.2356 22.9588 33.2272 23.1854 33.2116V36.6592Z" fill="white"/>
<path d="M7.61328 10.75C7.21413 10.75 6.89062 11.0735 6.89062 11.4727V18.5267C6.89062 18.9256 7.21413 19.2494 7.61328 19.2494C8.01243 19.2494 8.33593 18.9256 8.33593 18.5267V11.4727C8.33593 11.0735 8.01243 10.75 7.61328 10.75Z" fill="white"/>
<path d="M13.3945 17.4432C13.7937 17.4432 14.1172 17.1197 14.1172 16.7205V13.2783C14.1172 12.8792 13.7937 12.5557 13.3945 12.5557C12.9954 12.5557 12.6719 12.8792 12.6719 13.2783V16.7205C12.6719 17.1197 12.9954 17.4432 13.3945 17.4432Z" fill="white"/>
<path d="M4.72265 7.90234C4.3235 7.90234 4 8.22584 4 8.625V20.6451C4 21.0442 4.3235 21.3677 4.72265 21.3677C5.12181 21.3677 5.44531 21.0442 5.44531 20.6451V8.625C5.44531 8.22584 5.12181 7.90234 4.72265 7.90234Z" fill="white"/>
<path d="M10.5039 10.0205C10.1048 10.0205 9.78125 10.344 9.78125 10.7432V20.5111C9.78125 20.9103 10.1048 21.2338 10.5039 21.2338C10.9031 21.2338 11.2266 20.9103 11.2266 20.5111V10.7432C11.2266 10.344 10.9031 10.0205 10.5039 10.0205Z" fill="white"/>
<path d="M37.3867 10.75C36.9876 10.75 36.6641 11.0735 36.6641 11.4727V18.5267C36.6641 18.9256 36.9876 19.2494 37.3867 19.2494C37.7859 19.2494 38.1094 18.9256 38.1094 18.5267V11.4727C38.1094 11.0735 37.7859 10.75 37.3867 10.75Z" fill="white"/>
<path d="M31.6055 17.4432C32.0046 17.4432 32.3281 17.1197 32.3281 16.7205V13.2783C32.3281 12.8792 32.0046 12.5557 31.6055 12.5557C31.2063 12.5557 30.8828 12.8792 30.8828 13.2783V16.7205C30.8828 17.1197 31.2063 17.4432 31.6055 17.4432Z" fill="white"/>
<path d="M40.2773 7.90234C39.8782 7.90234 39.5547 8.22584 39.5547 8.625V20.6451C39.5547 21.0442 39.8782 21.3677 40.2773 21.3677C40.6765 21.3677 41 21.0442 41 20.6451V8.625C41 8.22584 40.6765 7.90234 40.2773 7.90234Z" fill="white"/>
<path d="M34.4961 19.7891C34.3061 19.7891 34.1195 19.8658 33.9852 20.0002C33.8508 20.1354 33.7734 20.3212 33.7734 20.5117C33.7734 20.702 33.8508 20.8883 33.9852 21.0227C34.1195 21.1573 34.3061 21.2344 34.4961 21.2344C34.6861 21.2344 34.8727 21.1573 35.007 21.0227C35.1414 20.8883 35.2187 20.702 35.2187 20.5117C35.2187 20.3212 35.1414 20.1354 35.007 20.0002C34.8727 19.8658 34.6861 19.7891 34.4961 19.7891Z" fill="white"/>
<path d="M34.4961 10.0205C34.0969 10.0205 33.7734 10.344 33.7734 10.7432V17.443C33.7734 17.8421 34.0969 18.1656 34.4961 18.1656C34.8952 18.1656 35.2187 17.8421 35.2187 17.443V10.7432C35.2187 10.344 34.8952 10.0205 34.4961 10.0205Z" fill="white"/>
<path d="M22.5 27.0163C24.5709 27.0163 26.2558 25.3316 26.2558 23.2607C26.2558 22.8616 25.932 22.5381 25.5332 22.5381C25.134 22.5381 24.8105 22.8616 24.8105 23.2607C24.8105 24.5344 23.774 25.571 22.5 25.571C22.1008 25.571 21.7773 25.8945 21.7773 26.2936C21.7773 26.6928 22.1008 27.0163 22.5 27.0163Z" fill="white"/>
<path d="M25.533 21.4883C25.7232 21.4883 25.9095 21.4109 26.0439 21.2766C26.1783 21.1422 26.2556 20.9556 26.2556 20.7656C26.2556 20.5756 26.1785 20.3891 26.0439 20.2547C25.9095 20.1203 25.7232 20.043 25.533 20.043C25.343 20.043 25.1567 20.1203 25.0223 20.2547C24.8879 20.3891 24.8103 20.5756 24.8103 20.7656C24.8103 20.9556 24.8876 21.1422 25.0223 21.2766C25.1567 21.4109 25.343 21.4883 25.533 21.4883Z" fill="white"/>
</svg>
