<svg width="45" height="45" viewBox="0 0 45 45" fill="none" xmlns="http://www.w3.org/2000/svg">
<path d="M20.9037 12.791V11.9775C20.9037 11.6782 20.6585 11.4355 20.3559 11.4355C20.0533 11.4355 19.8081 11.6782 19.8081 11.9775V12.791C19.8081 13.0903 20.0533 13.3329 20.3559 13.3329C20.6585 13.3329 20.9037 13.0903 20.9037 12.791Z" fill="white"/>
<path d="M24.7141 13.3329C25.0167 13.3329 25.2618 13.0903 25.2618 12.791V11.9775C25.2618 11.6782 25.0167 11.4355 24.7141 11.4355C24.4115 11.4355 24.1663 11.6782 24.1663 11.9775V12.791C24.1663 13.0903 24.4115 13.3329 24.7141 13.3329Z" fill="white"/>
<path d="M22.5344 15.651C23.3593 15.651 24.0303 14.987 24.0303 14.1709C24.0303 13.8716 23.7851 13.6289 23.4825 13.6289C23.1799 13.6289 22.9347 13.8716 22.9347 14.1709C22.9347 14.3893 22.7551 14.567 22.5344 14.567C22.3138 14.567 22.1342 14.3893 22.1342 14.1709C22.1342 13.8716 21.889 13.6289 21.5864 13.6289C21.2838 13.6289 21.0386 13.8716 21.0386 14.1709C21.0385 14.987 21.7096 15.651 22.5344 15.651Z" fill="white"/>
<path d="M38.1303 36.655C39.0053 35.9287 39.563 34.8397 39.563 33.6239C39.563 31.6282 38.0614 29.9739 36.1176 29.7064V24.8664C36.1176 24.0498 35.4463 23.3856 34.621 23.3856H29.0995V22.907C29.0995 22.6076 28.8543 22.365 28.5517 22.365C28.2491 22.365 28.0039 22.6076 28.0039 22.907V23.3856H27.2142V20.3568C27.2142 20.0576 26.9691 19.815 26.6668 19.8148V19.0924C27.3714 19.1499 27.9466 19.711 27.9998 20.4182C28.0223 20.7167 28.2849 20.9399 28.5867 20.9184C28.8885 20.8962 29.1148 20.6362 29.0924 20.3376C28.9938 19.0283 27.8761 18.0026 26.5477 18.0026H24.9325V17.1882C26.1293 16.5461 27.0363 15.4325 27.3889 14.0686C28.3413 13.8879 29.0631 13.0574 29.0631 12.0632C29.0631 11.5634 28.8806 11.1051 28.578 10.7497C28.5993 10.692 28.6114 10.6299 28.6114 10.5649V7.90385C28.6114 6.29905 27.3216 4.88121 25.5103 4.88121C24.9539 4.33683 24.1897 4 23.3473 4H17.0062C16.7036 4 16.4584 4.24267 16.4584 4.54199V8.57657C16.4584 9.22169 16.704 9.81087 17.1071 10.2583C16.4534 10.6012 16.0068 11.2815 16.0068 12.0632C16.0068 13.0574 16.7286 13.8879 17.681 14.0686C18.0336 15.4325 18.9406 16.546 20.1374 17.1881V18.0026H18.5358C17.1288 18.0026 15.9841 19.1351 15.9841 20.5273V23.3855H10.4625C9.63722 23.3855 8.96585 24.0498 8.96585 24.8663V25.7208C8.96585 26.0202 9.21104 26.2628 9.51364 26.2628C9.81624 26.2628 10.0614 26.0202 10.0614 25.7208V24.8663C10.0614 24.6475 10.2413 24.4695 10.4625 24.4695H34.6209C34.8421 24.4695 35.022 24.6475 35.022 24.8663V29.7038C32.9426 29.9836 31.3925 31.8461 31.5808 33.9676H26.6491C26.6581 33.8662 26.6643 33.7324 26.6643 33.6238C26.6643 31.4422 24.8705 29.6675 22.6657 29.6675C20.4609 29.6675 18.667 31.4422 18.667 33.6238C18.667 33.7378 18.6741 33.8764 18.6822 33.9676H13.4079C13.4266 33.7568 13.4267 33.5708 13.4144 33.3757C13.2992 31.5263 11.8986 30.0106 10.0614 29.7183V28.2501C10.0614 27.9508 9.81624 27.7081 9.51364 27.7081C9.21104 27.7081 8.96585 27.9508 8.96585 28.2501V29.6944C6.97626 29.9203 5.42579 31.5958 5.42579 33.6239C5.42579 34.841 5.98454 35.9311 6.86115 36.6574C5.20828 37.1473 4 38.6653 4 40.458C4 40.7573 4.24519 41 4.54779 41H14.3122C14.6148 41 14.86 40.7573 14.86 40.458C14.86 38.6624 13.6476 37.1423 11.9905 36.6551C12.5033 36.2295 12.9063 35.6792 13.1526 35.0518H18.9376C19.1844 35.6803 19.5883 36.2315 20.1025 36.6574C18.4496 37.1473 17.2412 38.6653 17.2412 40.458C17.2412 40.7573 17.4864 41 17.789 41H27.5535C27.8561 41 28.1012 40.7573 28.1012 40.458C28.1012 38.6624 26.8889 37.1423 25.2317 36.6551C25.7444 36.2295 26.1474 35.6792 26.3937 35.0518H31.8362C32.083 35.6803 32.4869 36.2315 33.0011 36.6574C31.3482 37.1473 30.1399 38.6653 30.1399 40.458C30.1399 40.7573 30.3851 41 30.6877 41H40.4521C40.7547 41 40.9999 40.7573 40.9999 40.458C40.9998 38.6623 39.7874 37.1423 38.1303 36.655ZM24.8643 19.0866H25.5711V19.8147H24.5464C24.6912 19.5944 24.7999 19.349 24.8643 19.0866ZM27.5158 7.90385V10.0229H27.3791C27.2002 9.35509 26.8746 8.72017 26.4256 8.17362C26.4256 7.00921 26.4627 6.677 26.2748 6.10553C26.2741 6.1035 26.2735 6.10141 26.2729 6.09938C27 6.38288 27.5158 7.08487 27.5158 7.90385ZM17.5539 5.08398H23.3472C24.2521 5.08398 25.0289 5.69007 25.2605 6.53182C25.2605 6.53218 25.2607 6.53254 25.2608 6.53291C25.352 6.8654 25.3299 6.94301 25.3299 8.69473C25.3299 9.42707 24.7278 10.0228 23.9876 10.0228H19.0156C18.2143 10.0228 17.5538 9.37713 17.5538 8.5765V5.08398H17.5539ZM18.6724 13.4722C18.6273 13.2051 18.3887 13.0094 18.1102 13.02C17.5537 13.0424 17.1023 12.6002 17.1023 12.0632C17.1023 11.5351 17.5366 11.1054 18.0704 11.1054C18.1435 11.1054 18.258 11.1189 18.4059 11.0345C18.5787 11.0765 18.8032 11.1069 19.0158 11.1069H23.9878C24.8957 11.1069 25.7337 10.5999 26.1501 9.80805C26.2691 10.0896 26.3507 10.3779 26.3974 10.6544C26.4507 10.9691 26.7077 11.1069 27.0303 11.1069C27.5498 11.1234 27.9675 11.5455 27.9675 12.0633C27.9675 12.6017 27.5147 13.0424 26.9596 13.0201C26.6866 13.0099 26.4429 13.2029 26.3974 13.4723C26.0781 15.3609 24.4375 16.7028 22.5354 16.703C22.5352 16.703 22.5351 16.703 22.535 16.703C20.6574 16.7029 18.9955 15.3831 18.6724 13.4722ZM22.5349 17.7869C22.9525 17.7869 23.4012 17.7333 23.8368 17.6185V18.5265C23.8368 19.2776 23.1757 19.8853 22.4031 19.8081C21.7428 19.7416 21.2329 19.1833 21.2329 18.5265V17.6184C21.6676 17.733 22.1148 17.7869 22.5349 17.7869ZM19.4985 19.0866H20.2054C20.2699 19.349 20.3785 19.5944 20.5232 19.8147H19.4984V19.0866H19.4985ZM17.0796 20.5273C17.0796 19.7772 17.6621 19.1599 18.4029 19.0932V19.8147C18.1005 19.8149 17.8556 20.0575 17.8556 20.3567V23.3855H17.0796V20.5273ZM18.9511 23.3855V20.8987H26.1186V23.3855H18.9511ZM6.52138 33.6239C6.52138 32.0221 7.85573 30.7139 9.49582 30.7533C9.49713 30.7534 9.49837 30.7536 9.49969 30.7536C11.0705 30.7932 12.3275 32.069 12.3275 33.6239C12.3275 35.137 11.1296 36.4016 9.59639 36.4907H9.25238C7.73149 36.4023 6.52138 35.1505 6.52138 33.6239ZM10.8503 37.5747C12.2699 37.5747 13.4557 38.5844 13.7127 39.916H5.14722C5.40432 38.5843 6.59011 37.5747 8.00969 37.5747H10.8503ZM22.6657 30.7515C24.2664 30.7515 25.5687 32.04 25.5687 33.6239C25.5687 35.1417 24.3662 36.4018 22.8377 36.4907H22.4937C20.9644 36.4018 19.7626 35.1411 19.7626 33.6239C19.7625 32.04 21.0649 30.7515 22.6657 30.7515ZM24.0915 37.5747C25.5111 37.5747 26.6969 38.5844 26.954 39.916H18.3884C18.6455 38.5843 19.8313 37.5747 21.2509 37.5747H24.0915ZM38.4673 33.6239C38.4673 35.1505 37.2572 36.4023 35.7362 36.4907H35.3922C34.0143 36.4106 32.8772 35.3718 32.6887 34.0138C32.6871 34.0024 32.6857 33.991 32.6843 33.9796C32.47 32.287 33.797 30.7517 35.5698 30.7517C37.168 30.7547 38.4673 32.0419 38.4673 33.6239ZM31.2871 39.916C31.5442 38.5843 32.7299 37.5747 34.1495 37.5747H36.9901C38.4097 37.5747 39.5955 38.5844 39.8526 39.916H31.2871Z" fill="white"/>
<path d="M23.1985 28.5153C24.0438 28.5153 24.7316 27.8348 24.7316 26.9984C24.7316 26.1619 24.0438 25.4814 23.1985 25.4814H21.8847C21.0394 25.4814 20.3516 26.162 20.3516 26.9984C20.3516 27.8348 21.0394 28.5153 21.8847 28.5153H23.1985ZM21.4471 26.9984C21.4471 26.7596 21.6435 26.5654 21.8847 26.5654H23.1985C23.4398 26.5654 23.6361 26.7597 23.6361 26.9984C23.6361 27.2371 23.4397 27.4313 23.1985 27.4313H21.8847C21.6434 27.4313 21.4471 27.2371 21.4471 26.9984Z" fill="white"/>
<path d="M13.6088 28.5153H14.9227C15.768 28.5153 16.4558 27.8348 16.4558 26.9984C16.4558 26.1619 15.768 25.4814 14.9227 25.4814H13.6088C12.7635 25.4814 12.0757 26.162 12.0757 26.9984C12.0756 27.8348 12.7634 28.5153 13.6088 28.5153ZM13.6088 26.5654H14.9227C15.164 26.5654 15.3602 26.7597 15.3602 26.9984C15.3602 27.2371 15.1639 27.4313 14.9227 27.4313H13.6088C13.3675 27.4313 13.1713 27.2371 13.1713 26.9984C13.1712 26.7596 13.3675 26.5654 13.6088 26.5654Z" fill="white"/>
<path d="M31.4747 28.5153C32.32 28.5153 33.0078 27.8348 33.0078 26.9984C33.0078 26.1619 32.32 25.4814 31.4747 25.4814H30.1608C29.3155 25.4814 28.6277 26.162 28.6277 26.9984C28.6277 27.8348 29.3155 28.5153 30.1608 28.5153H31.4747ZM29.7232 26.9984C29.7232 26.7596 29.9195 26.5654 30.1608 26.5654H31.4746C31.7159 26.5654 31.9122 26.7597 31.9122 26.9984C31.9122 27.2371 31.7158 27.4313 31.4746 27.4313H30.1608C29.9195 27.4313 29.7232 27.2371 29.7232 26.9984Z" fill="white"/>
</svg>
