<?xml version="1.0" encoding="utf-8"?><svg viewBox="0 0 512 512" xmlns="http://www.w3.org/2000/svg" xmlns:xlink="http://www.w3.org/1999/xlink"><style>:root>svg{display:none}:root>svg:target{display:block}</style><svg fill="none" viewBox="0 0 45 45" id="icon-NMO" xmlns="http://www.w3.org/2000/svg"><path d="M43.462 4H1.538C.69 4 0 4.693 0 5.544v5.433c0 .855 1.318.855 1.318 0V5.544a.22.22 0 01.22-.22h41.924a.22.22 0 01.22.22v32.261a.22.22 0 01-.22.221h-8.447v-1.377h6.63a.66.66 0 00.659-.661V29.06c0-.855-1.319-.855-1.319 0v6.266h-5.97v-2.935l.063.005c.547.049 1.228.109 1.7-.365.47-.474.41-1.158.363-1.707-.052-.59.004-.751.455-1.128 1.163-.97 1.185-2.01 0-2.998-.451-.377-.506-.538-.455-1.128.129-1.48-.56-2.205-2.063-2.072-.587.052-.746-.004-1.12-.458-.965-1.17-2.001-1.19-2.984 0-.374.454-.534.51-1.12.458-1.476-.13-2.195.565-2.063 2.072.051.59-.004.752-.456 1.128-1.162.97-1.184 2.01 0 2.998.452.377.507.538.456 1.128-.139 1.585.616 2.198 2.126 2.067v2.935H4.015V8.023h36.97v17.509c0 .855 1.319.855 1.319 0V7.361a.66.66 0 00-.66-.662H3.357a.66.66 0 00-.66.661v28.627a.66.66 0 00.66.661h26.56v1.377H1.539a.22.22 0 01-.22-.22V14.328c0-.856-1.318-.856-1.318 0v23.476c0 .852.69 1.544 1.538 1.544h28.379v2.995c.094.544.406.743.937.6l1.612-.753 1.611.753c.4.186.938-.108.938-.6v-2.995h8.447c.848 0 1.538-.692 1.538-1.544V5.544C45 4.692 44.31 4 43.462 4zM29.738 31.078c-.66.059-.692.023-.634-.639.089-1.016-.144-1.609-.926-2.26-.535-.447-.535-.517 0-.963.782-.652 1.015-1.245.926-2.261-.058-.662-.026-.697.634-.64 1.013.09 1.602-.145 2.25-.93.444-.538.512-.538.955 0 .648.785 1.238 1.02 2.25.93.66-.058.692-.022.634.64-.088 1.016.145 1.608.926 2.26.535.447.535.517 0 .963-.782.652-1.014 1.245-.926 2.26.058.663.026.698-.634.64-.414-.036-.883-.078-1.297.095-.4.166-.681.507-.953.837-.129.155-.362.438-.477.49-.115-.052-.35-.335-.477-.49-.272-.33-.554-.67-.954-.837a2.875 2.875 0 00-1.297-.095zm3.006 9.784a.657.657 0 00-.556 0l-.953.445V33.16c.313.346.699.666 1.23.666.532 0 .918-.32 1.231-.665v8.146l-.952-.445z" fill="#fff"/><path d="M8.549 13.561h22.724c.852 0 .852-1.323 0-1.323H8.549c-.853 0-.853 1.323 0 1.323zM37.11 16.922a.66.66 0 00-.658-.661H8.549c-.853 0-.853 1.323 0 1.323h27.903a.66.66 0 00.659-.662zM25.061 20.947a.66.66 0 00-.66-.662H8.55c-.853 0-.853 1.323 0 1.323h15.853a.66.66 0 00.659-.661zM16.404 30.17h-1.078c-.691 0-1.072-.184-1.213-.92-.129-.672-1.094-.586-1.271 0-.079.26-.474 1.003-.82.942-.183-.032-.263-.316-.33-.462a5.66 5.66 0 01-.31-.892c-.347-1.282-.416-2.62-.634-3.927-.125-.758-1.276-.543-1.294.176-.06 2.29-.433 4.55-1.245 6.698-.302.796.972 1.14 1.27.351.314-.828.563-1.676.756-2.536.104.314.227.621.378.92.385.764 1.17 1.215 2.01.876.3-.121.573-.333.806-.591.624.722 1.552.69 2.417.688l3.915-.008c.848-.003.85-1.326 0-1.323l-3.357.007zM32.466 30.281c1.42 0 2.575-1.159 2.575-2.584a2.582 2.582 0 00-2.575-2.584 2.582 2.582 0 00-2.575 2.584 2.582 2.582 0 002.575 2.584zm0-3.845a1.26 1.26 0 010 2.522 1.26 1.26 0 010-2.522z" fill="#fff"/></svg><svg fill="none" viewBox="0 0 14 8" id="icon-arrow" xmlns="http://www.w3.org/2000/svg"><path d="M12.657 1.172L7 6.829 1.343 1.172" stroke="var(--icon-color, #0FA9DA)" stroke-width="var(--icon-stroke-width, 1)" stroke-linecap="round" stroke-linejoin="round"/></svg><svg fill="none" viewBox="0 0 15 15" id="icon-button-pause" xmlns="http://www.w3.org/2000/svg"><path fill="var(--icon-color, #0FA9DA)" d="M3 1h3v13H3zM9 1h3v13H9z"/></svg><svg fill="none" viewBox="0 0 11 11" id="icon-button-play" xmlns="http://www.w3.org/2000/svg"><path d="M10.667 5.2l-7.5 4.33V.87l7.5 4.33z" fill="var(--icon-color, #0FA9DA)"/></svg><svg fill="none" viewBox="0 0 32 32" id="icon-button-rewind" xmlns="http://www.w3.org/2000/svg"><path fill-rule="evenodd" clip-rule="evenodd" d="M8.96 6.616a1 1 0 00-1.24-.682l-3.114.902-.902-3.114a1 1 0 00-1.921.556l1.18 4.075a1 1 0 001.24.683l4.074-1.181a1 1 0 00.683-1.239z" fill="#0FA9DA"/><path fill-rule="evenodd" clip-rule="evenodd" d="M16 2c7.732 0 14 6.268 14 14s-6.268 14-14 14a13.948 13.948 0 01-9.561-3.773c-.404-.378-1.034-.404-1.439-.029-.405.376-.43 1.011-.03 1.392A15.949 15.949 0 0016 32c8.837 0 16-7.163 16-16S24.837 0 16 0A15.973 15.973 0 003.408 6.127c-.34.435-.224 1.06.231 1.373.455.313 1.075.196 1.42-.235A13.973 13.973 0 0116 2z" fill="#0FA9DA"/></svg><svg fill="none" viewBox="0 0 20 20" id="icon-cancel-button" xmlns="http://www.w3.org/2000/svg"><path d="M2.929 2.929L17.071 17.07M17.071 2.929L2.929 17.07" stroke="var(--icon-color, #0FA9DA)" stroke-width="var(--icon-stroke-width, 1.8)"/></svg><svg fill="none" viewBox="0 0 45 45" id="icon-congress" xmlns="http://www.w3.org/2000/svg"><path d="M22.5 30.054a6.8 6.8 0 006.793-6.793V10.793A6.8 6.8 0 0022.5 4a6.8 6.8 0 00-6.793 6.793v12.468a6.8 6.8 0 006.793 6.793zm0-24.609a5.354 5.354 0 015.348 5.348v5.972H17.152v-5.972A5.354 5.354 0 0122.5 5.445zm-5.348 12.766h10.696v5.05a5.354 5.354 0 01-5.348 5.348 5.354 5.354 0 01-5.348-5.348v-5.05z" fill="#fff"/><path d="M20.742 13.49h3.516a.723.723 0 100-1.446h-3.516a.723.723 0 100 1.445zM20.742 10.796h3.516a.723.723 0 100-1.445h-3.516a.723.723 0 100 1.445zM31.752 22.538a.723.723 0 00-.722.723c0 4.703-3.827 8.53-8.53 8.53-4.703 0-8.53-3.827-8.53-8.53a.723.723 0 10-1.445 0c0 4.769 3.365 8.766 7.844 9.745v3.653h-.056a3.622 3.622 0 00-3.618 3.618c0 .4.323.723.723.723h10.165c.399 0 .722-.324.722-.723a3.622 3.622 0 00-3.617-3.618h-.057v-3.653c4.48-.979 7.844-4.976 7.844-9.745 0-.4-.324-.723-.723-.723zm-5.015 17.016h-8.473a2.176 2.176 0 012.049-1.45h4.375c.944 0 1.75.607 2.049 1.45zm-3.552-2.895h-1.37v-3.447a9.979 9.979 0 001.37 0v3.447zM7.613 10.75c-.399 0-.722.323-.722.723v7.054a.723.723 0 001.445 0v-7.054c0-.4-.324-.723-.723-.723zM13.395 17.443c.399 0 .722-.323.722-.723v-3.442a.723.723 0 10-1.445 0v3.443c0 .399.323.722.723.722zM4.723 7.902c-.4 0-.723.324-.723.723v12.02a.723.723 0 101.445 0V8.625c0-.4-.323-.723-.722-.723zM10.504 10.02c-.4 0-.723.324-.723.723v9.768a.723.723 0 101.446 0v-9.768c0-.399-.324-.723-.723-.723zM37.387 10.75c-.4 0-.723.323-.723.723v7.054a.723.723 0 001.445 0v-7.054c0-.4-.323-.723-.722-.723zM31.605 17.443c.4 0 .723-.323.723-.723v-3.442a.723.723 0 10-1.445 0v3.443c0 .399.323.722.723.722zM40.277 7.902c-.399 0-.722.324-.722.723v12.02a.723.723 0 101.445 0V8.625c0-.4-.324-.723-.723-.723zM34.496 19.79a.727.727 0 00-.51.21.73.73 0 00-.213.512.727.727 0 00.723.723c.19 0 .377-.078.511-.212a.728.728 0 00.212-.511.73.73 0 00-.212-.512.727.727 0 00-.51-.21zM34.496 10.02c-.4 0-.723.324-.723.723v6.7a.723.723 0 101.446 0v-6.7c0-.399-.324-.723-.723-.723z" fill="#fff"/><path d="M22.5 27.016a3.76 3.76 0 003.756-3.755.723.723 0 00-1.445 0 2.313 2.313 0 01-2.311 2.31.723.723 0 100 1.445zM25.533 21.488c.19 0 .377-.077.51-.211a.728.728 0 00.213-.511.727.727 0 00-.212-.511.728.728 0 00-.511-.212.728.728 0 00-.51.212.728.728 0 00-.213.51.727.727 0 00.723.723z" fill="#fff"/></svg><svg fill="none" viewBox="0 0 17 17" id="icon-date" xmlns="http://www.w3.org/2000/svg"><path d="M13.375 2.667h-9.75C2.728 2.667 2 3.413 2 4.334v10C2 15.254 2.728 16 3.625 16h9.75c.898 0 1.625-.746 1.625-1.666v-10c0-.92-.727-1.667-1.625-1.667zM11.75 1v3.333M5.25 1v3.333M2 7.667h13" stroke="var(--icon-color, #0FA9DA)" stroke-linecap="round" stroke-linejoin="round"/><path d="M6.875 11H5.25v1.667h1.625V11z" stroke="var(--icon-color, #0FA9DA)" stroke-linecap="round" stroke-linejoin="round"/></svg><svg fill="none" viewBox="0 0 17 17" id="icon-email" xmlns="http://www.w3.org/2000/svg"><path d="M0 3v11h17V3H0zm8.5 6.793L1.527 3.816h13.946L8.5 9.793zM5.722 8.498L.836 12.687V4.309L5.722 8.5zm.634.543L8.5 10.88l2.144-1.838 4.833 4.143H1.523l4.833-4.143zm4.921-.543l4.887-4.189v8.378l-4.887-4.189z" fill="var(--icon-color, #0FA9DA)"/></svg><svg fill="none" viewBox="0 0 45 45" id="icon-exhibition" xmlns="http://www.w3.org/2000/svg"><path d="M22.137 7.013a1.935 1.935 0 00-3.87 0 1.935 1.935 0 003.87 0zm-2.698 0a.763.763 0 011.526 0 .763.763 0 01-1.526 0z" fill="#fff"/><path d="M24.03 7.683c-.311 0-.6.167-.756.435l-2.391 4.136-1.275-2.204a.875.875 0 00-1.51 0l-1.13 1.952a.585.585 0 101.015.585l.87-1.503 1.353 2.34-1.632 2.823a.863.863 0 00-.062.136h-2.723l.917-1.588a.585.585 0 10-1.014-.585l-1.178 2.037a.872.872 0 00.756 1.306h13.46a.872.872 0 00.755-1.306l-4.7-8.129a.875.875 0 00-.755-.435zm-4.182 8.7l4.182-7.231 4.181 7.231h-8.363zM40.754 37.552h-.395v-9.537h.302a.585.585 0 100-1.17h-.302v-1.802a2.598 2.598 0 00.888-1.955 2.611 2.611 0 00-5.221 0c0 .778.344 1.477.887 1.955v1.803h-.301a.585.585 0 100 1.17h.301v.411C35.1 29.681 30.424 32.182 22 32.182s-13.1-2.5-14.914-3.755v-.412h.302a.585.585 0 100-1.17h-.302v-1.802a2.598 2.598 0 00.888-1.955 2.611 2.611 0 00-5.221 0c0 .778.344 1.477.887 1.955v1.803h-.3a.585.585 0 100 1.17h.3v2.963a.585.585 0 001.172 0v-2.963h1.103v9.536H4.812V33.53a.585.585 0 00-1.172 0v4.023h-.394c-.687 0-1.246.558-1.246 1.244v1.29c0 .504.41.914.916.914H7.81c.505 0 .916-.41.916-.914v-1.29c0-.686-.559-1.244-1.246-1.244h-.394v-7.73c2.277 1.396 7.049 3.53 14.913 3.53s12.636-2.134 14.913-3.53v7.73h-.394c-.687 0-1.246.558-1.246 1.244v1.29c0 .504.41.914.916.914h4.895c.505 0 .916-.41.916-.914v-1.29c0-.686-.559-1.244-1.246-1.244zm-35.39-15.9c.793 0 1.438.644 1.438 1.436a1.439 1.439 0 01-2.877 0c0-.792.645-1.436 1.439-1.436zm-.552 5.194v-1.21a2.614 2.614 0 001.103 0v1.21H4.812zm2.743 11.95v1.034H3.172v-1.034c0-.04.033-.074.074-.074H7.48c.041 0 .074.033.074.074zm31.081-17.144c.793 0 1.439.644 1.439 1.436a1.439 1.439 0 01-2.877 0c0-.792.645-1.436 1.438-1.436zm-.55 3.983a2.614 2.614 0 001.102 0v1.21h-1.103v-1.21zm0 2.38h1.102v9.537h-1.103v-9.537zm2.742 11.815h-4.383v-1.034c0-.04.033-.074.074-.074h4.235c.04 0 .074.033.074.074v1.034z" fill="#fff"/><path d="M9.564 20.634h24.872c.735 0 1.333-.597 1.333-1.331V3.331c0-.734-.598-1.331-1.333-1.331h-3.774a.585.585 0 100 1.17h3.774c.089 0 .16.072.16.161v15.972a.161.161 0 01-.16.161H9.564a.161.161 0 01-.161-.16V3.33c0-.089.072-.161.161-.161H28.11a.585.585 0 100-1.17H9.564c-.735 0-1.333.597-1.333 1.331v15.972c0 .734.598 1.331 1.333 1.331z" fill="#fff"/></svg><svg fill="none" viewBox="0 0 18 11" id="icon-eye" xmlns="http://www.w3.org/2000/svg"><path d="M9 6.996c.884 0 1.6-.67 1.6-1.496S9.884 4.004 9 4.004c-.884 0-1.6.67-1.6 1.496S8.116 6.996 9 6.996z" stroke="var(--icon-color, #0FA9DA)" stroke-linecap="round" stroke-linejoin="round"/><path d="M1 5.5l1.2 1.496A8.744 8.744 0 005.24 9.21C6.414 9.731 7.7 10 9 10c1.3 0 2.585-.27 3.76-.789a8.744 8.744 0 003.04-2.215L17 5.5M1 5.5l1.2-1.496A8.744 8.744 0 015.24 1.79 9.316 9.316 0 019 1c1.3 0 2.585.27 3.76.789a8.744 8.744 0 013.04 2.215L17 5.5" stroke="var(--icon-color, #0FA9DA)" stroke-linecap="round" stroke-linejoin="round"/></svg><svg fill="none" viewBox="0 0 20 20" id="icon-file" xmlns="http://www.w3.org/2000/svg"><path d="M17.545 9.5l-7.135 7.135a4.66 4.66 0 01-6.59-6.59l7.134-7.135a3.107 3.107 0 014.394 4.394l-7.142 7.134a1.554 1.554 0 01-2.197-2.197l6.59-6.583" stroke="var(--icon-color, #ffffff)" stroke-linecap="round" stroke-linejoin="round"/></svg><svg fill="none" viewBox="0 0 24 20" id="icon-filter" xmlns="http://www.w3.org/2000/svg"><circle cx="7" cy="6" r="2" stroke="var(--icon-color, #006484)" stroke-width="var(--icon-stroke-width, 2)"/><path d="M12 6h11M1 6h1" stroke="var(--icon-color, #006484)" stroke-width="var(--icon-stroke-width, 2)" stroke-linecap="round"/><circle cx="17" cy="14" r="2" stroke="var(--icon-color, #006484)" stroke-width="var(--icon-stroke-width, 2)"/><path d="M1 14h11M22 14h1" stroke="var(--icon-color, #006484)" stroke-width="var(--icon-stroke-width, 2)" stroke-linecap="round"/></svg><svg fill="none" viewBox="0 0 45 45" id="icon-lecture" xmlns="http://www.w3.org/2000/svg"><path d="M42.823 5H2.177c-.577 0-1.13.222-1.538.616A2.066 2.066 0 000 7.1v23.8c0 .557.23 1.09.639 1.484.408.394.961.615 1.538.616h15.006l-1.037 3.5h-3.082a.74.74 0 00-.513.205.688.688 0 00-.212.495v1.4H6.532a.74.74 0 00-.513.205.688.688 0 00-.213.495c0 .186.077.364.213.495a.74.74 0 00.513.205h31.936a.74.74 0 00.513-.205.688.688 0 00.213-.495.688.688 0 00-.213-.495.74.74 0 00-.513-.205H32.66v-1.4a.688.688 0 00-.212-.495.74.74 0 00-.513-.205h-3.082L27.817 33h15.006c.577 0 1.13-.222 1.538-.616.409-.394.638-.927.639-1.484V7.1c0-.557-.23-1.09-.639-1.484A2.222 2.222 0 0042.823 5zM31.21 37.9v.7H13.79v-.7h17.42zm-13.554-1.4l1.036-3.5h7.616l1.036 3.5h-9.688zm25.892-5.6a.689.689 0 01-.212.495.74.74 0 01-.513.205H2.177a.74.74 0 01-.513-.205.689.689 0 01-.212-.495v-1.4h42.096v1.4zm0-2.8H1.452v-21c0-.186.076-.363.212-.495a.74.74 0 01.513-.205h40.646a.74.74 0 01.513.205c.136.132.212.31.212.495v21z" fill="var(--icon-color, #ffffff)"/><path d="M34.219 17.72V14.1a.682.682 0 00-.114-.376.718.718 0 00-.306-.258l-10.887-4.9a.747.747 0 00-.613 0l-10.887 4.9a.72.72 0 00-.305.258.682.682 0 000 .752c.074.112.18.202.305.258l3.936 1.771V24.6c0 .186.076.364.212.495a.74.74 0 00.513.205h13.065a.74.74 0 00.513-.205.688.688 0 00.213-.495v-8.095l2.903-1.306v2.522c-.484.165-.893.49-1.152.917-.26.427-.355.93-.268 1.418.086.488.35.93.742 1.25.393.32.89.495 1.404.495.513 0 1.01-.175 1.403-.495s.656-.762.743-1.25a2.037 2.037 0 00-.268-1.418 2.161 2.161 0 00-1.152-.917zm-5.807 6.18H16.8v-6.741l5.5 2.475a.748.748 0 00.613 0l5.5-2.475V23.9zm-5.806-5.673l-9.17-4.127 9.17-4.127 9.17 4.127-9.17 4.127zM33.493 20.4a.745.745 0 01-.404-.118.706.706 0 01-.267-.314.677.677 0 01.157-.763.75.75 0 01.791-.152.72.72 0 01.326.258.682.682 0 01-.09.884.741.741 0 01-.513.205z" fill="var(--icon-color, #ffffff)"/></svg><svg fill="none" viewBox="0 0 20 20" id="icon-login" xmlns="http://www.w3.org/2000/svg"><circle cx="10" cy="10" r="9.2" stroke="var(--icon-color, #333333)" stroke-width="1.6"/><circle cx="10" cy="8.734" r="3.814" stroke="var(--icon-color, #333333)" stroke-width="1.6"/><path d="M4.334 17.145a5.79 5.79 0 0111.34.03" stroke="var(--icon-color, #333333)" stroke-width="1.6"/></svg><svg fill="none" viewBox="0 0 45 45" id="icon-master-class" xmlns="http://www.w3.org/2000/svg"><path d="M20.904 12.791v-.814c0-.299-.245-.542-.548-.542a.545.545 0 00-.548.542v.814c0 .3.245.542.548.542a.545.545 0 00.548-.542zM24.714 13.333a.545.545 0 00.548-.542v-.814c0-.299-.245-.542-.548-.542a.545.545 0 00-.548.542v.814c0 .3.245.542.548.542zM22.534 15.651a1.49 1.49 0 001.496-1.48c0-.3-.245-.542-.547-.542a.545.545 0 00-.548.542c0 .218-.18.396-.4.396-.221 0-.4-.178-.4-.396 0-.3-.246-.542-.549-.542a.545.545 0 00-.547.542c0 .816.67 1.48 1.495 1.48z" fill="#fff"/><path d="M38.13 36.655a3.933 3.933 0 001.433-3.031c0-1.996-1.502-3.65-3.445-3.918v-4.84a1.49 1.49 0 00-1.497-1.48h-5.522v-.479c0-.3-.245-.542-.547-.542a.545.545 0 00-.548.542v.479h-.79v-3.03c0-.298-.245-.541-.547-.541v-.723c.704.058 1.28.619 1.333 1.326a.546.546 0 00.587.5.544.544 0 00.505-.58c-.098-1.31-1.216-2.335-2.544-2.335h-1.615v-.815a4.943 4.943 0 002.456-3.12 2.051 2.051 0 001.674-2.005c0-.5-.182-.958-.485-1.313a.532.532 0 00.033-.185V7.904c0-1.605-1.29-3.023-3.1-3.023A3.085 3.085 0 0023.346 4h-6.34a.545.545 0 00-.549.542v4.035c0 .645.246 1.234.65 1.681a2.04 2.04 0 00-1.101 1.805c0 .994.722 1.825 1.674 2.006a4.943 4.943 0 002.456 3.12v.814h-1.601c-1.407 0-2.552 1.132-2.552 2.524v2.858h-5.521a1.49 1.49 0 00-1.497 1.481v.855c0 .3.245.542.548.542a.545.545 0 00.547-.542v-.855a.4.4 0 01.402-.396H34.62a.4.4 0 01.401.396v4.838c-2.08.28-3.63 2.142-3.441 4.264h-4.932c.01-.102.015-.236.015-.344 0-2.182-1.794-3.957-3.998-3.957-2.205 0-3.999 1.775-3.999 3.957 0 .114.007.252.015.344h-5.274c.019-.211.019-.397.006-.592-.115-1.85-1.515-3.365-3.353-3.658V28.25c0-.3-.245-.542-.547-.542a.545.545 0 00-.548.542v1.444c-1.99.226-3.54 1.902-3.54 3.93 0 1.217.559 2.307 1.435 3.033C5.208 37.147 4 38.665 4 40.458c0 .3.245.542.548.542h9.764a.545.545 0 00.548-.542c0-1.796-1.212-3.316-2.87-3.803a3.973 3.973 0 001.163-1.603h5.785c.246.628.65 1.18 1.165 1.605-1.653.49-2.862 2.008-2.862 3.801 0 .3.245.542.548.542h9.764a.545.545 0 00.548-.542c0-1.796-1.212-3.316-2.87-3.803a3.974 3.974 0 001.163-1.603h5.442c.247.628.65 1.18 1.165 1.605-1.653.49-2.861 2.008-2.861 3.801 0 .3.245.542.548.542h9.764a.545.545 0 00.548-.542c0-1.796-1.213-3.316-2.87-3.803zM24.864 19.087h.707v.728h-1.025c.145-.22.254-.466.318-.728zm2.652-11.183v2.119h-.137a4.936 4.936 0 00-.953-1.85c0-1.164.037-1.496-.151-2.067l-.002-.007a1.942 1.942 0 011.243 1.805zm-9.962-2.82h5.793c.905 0 1.682.606 1.913 1.448.092.333.07.411.07 2.163 0 .732-.602 1.328-1.342 1.328h-4.972a1.457 1.457 0 01-1.462-1.447V5.084zm1.118 8.388a.546.546 0 00-.562-.452.964.964 0 01-1.008-.957c0-.528.435-.958.968-.958.073 0 .188.014.336-.07.173.041.397.072.61.072h4.972a2.45 2.45 0 002.162-1.299c.12.282.2.57.247.846.054.315.31.453.633.453.52.016.938.439.938.956 0 .539-.453.98-1.008.957a.549.549 0 00-.563.452c-.319 1.889-1.96 3.23-3.862 3.231-1.878 0-3.54-1.32-3.863-3.23zm3.863 4.315a5.17 5.17 0 001.302-.168v.907a1.3 1.3 0 01-1.434 1.282 1.3 1.3 0 01-1.17-1.282v-.908a5.16 5.16 0 001.302.169zm-3.037 1.3h.707c.065.262.174.507.318.728h-1.025v-.728zm-2.418 1.44c0-.75.582-1.367 1.323-1.434v.722a.545.545 0 00-.547.542v3.029h-.776v-2.859zm1.871 2.858V20.9h7.168v2.486H18.95zM6.521 33.624c0-1.602 1.335-2.91 2.975-2.87H9.5c1.57.04 2.828 1.315 2.828 2.87 0 1.513-1.198 2.778-2.732 2.867h-.344c-1.52-.089-2.73-1.34-2.73-2.867zm4.33 3.95c1.419 0 2.605 1.01 2.862 2.342H5.147a2.911 2.911 0 012.863-2.341h2.84zm11.815-6.822c1.6 0 2.903 1.288 2.903 2.872 0 1.518-1.203 2.778-2.731 2.867h-.344c-1.53-.09-2.731-1.35-2.731-2.867 0-1.584 1.302-2.873 2.903-2.873zm1.425 6.823c1.42 0 2.606 1.01 2.863 2.341h-8.566a2.911 2.911 0 012.863-2.341h2.84zm14.376-3.951c0 1.526-1.21 2.778-2.73 2.867h-.345a2.894 2.894 0 01-2.708-2.511c-.214-1.693 1.113-3.228 2.886-3.228 1.598.003 2.897 1.29 2.897 2.872zm-7.18 6.292a2.911 2.911 0 012.863-2.341h2.84c1.42 0 2.605 1.01 2.863 2.341h-8.566z" fill="#fff"/><path d="M23.198 28.515c.846 0 1.534-.68 1.534-1.517 0-.836-.688-1.517-1.534-1.517h-1.313c-.846 0-1.533.681-1.533 1.517 0 .837.687 1.517 1.533 1.517h1.313zm-1.75-1.517c0-.238.195-.433.437-.433h1.313c.242 0 .438.195.438.433a.436.436 0 01-.438.433h-1.313a.436.436 0 01-.438-.433zM13.609 28.515h1.314c.845 0 1.533-.68 1.533-1.517 0-.836-.688-1.517-1.533-1.517h-1.314c-.845 0-1.533.681-1.533 1.517 0 .837.687 1.517 1.533 1.517zm0-1.95h1.314c.241 0 .437.195.437.433a.436.436 0 01-.437.433h-1.314a.436.436 0 01-.438-.433c0-.238.197-.433.438-.433zM31.475 28.515c.845 0 1.533-.68 1.533-1.517 0-.836-.688-1.517-1.533-1.517H30.16c-.846 0-1.533.681-1.533 1.517 0 .837.688 1.517 1.533 1.517h1.314zm-1.752-1.517c0-.238.197-.433.438-.433h1.314c.24 0 .437.195.437.433a.436.436 0 01-.437.433H30.16a.436.436 0 01-.438-.433z" fill="#fff"/></svg><svg fill="none" viewBox="0 0 18 20" id="icon-metro" xmlns="http://www.w3.org/2000/svg"><path d="M9 3.209c-4.97 0-9 4.068-9 9.086 0 2.72 1.174 4.495 1.174 4.495l15.648.001S18 14.851 18 12.295c0-5.018-4.03-9.086-9-9.086zm7.162 12.475l-14.295-.006s-.762-1.443-.762-3.412c0-4.398 3.548-7.964 7.925-7.964s7.926 3.566 7.926 7.964c0 1.992-.794 3.418-.794 3.418z" fill="var(--icon-color, #0FA9DA)"/><path d="M11.543 5.621h-.112L9.03 10.325 6.543 5.581l-3.405 8.57h-.88v.69h4.82v-.69h-.956l.957-2.678 1.95 3.367 1.876-3.367.956 2.679h-.956v.688h4.782v-.688h-.828l-3.316-8.53z" fill="var(--icon-color, #0FA9DA)"/></svg><svg fill="none" viewBox="0 0 16 13" id="icon-ok" xmlns="http://www.w3.org/2000/svg"><path d="M2 6.743L6.514 11 14 2" stroke="var(--icon-color, #0FA9DA)" stroke-width="var(--icon-stroke-width, 2.7)" stroke-linecap="round" stroke-linejoin="round"/></svg><svg fill="none" viewBox="0 0 17 17" id="icon-phone" xmlns="http://www.w3.org/2000/svg"><path d="M15.667 12.28v2a1.332 1.332 0 01-1.454 1.333 13.193 13.193 0 01-5.753-2.047 13 13 0 01-4-4 13.193 13.193 0 01-2.047-5.78A1.333 1.333 0 013.74 2.333h2A1.333 1.333 0 017.073 3.48a8.56 8.56 0 00.467 1.873 1.333 1.333 0 01-.3 1.407l-.847.846a10.666 10.666 0 004 4l.847-.846a1.334 1.334 0 011.407-.3 8.56 8.56 0 001.873.466 1.334 1.334 0 011.147 1.354z" stroke="var(--icon-color, #0FA9DA)" stroke-linecap="round" stroke-linejoin="round"/></svg><svg fill="none" viewBox="0 0 14 20" id="icon-point" xmlns="http://www.w3.org/2000/svg"><path d="M7 0C3.14 0 0 3.154 0 7.031a7.04 7.04 0 001.045 3.698l5.557 8.994a.583.583 0 00.495.277h.005a.583.583 0 00.496-.285l5.415-9.081A7.047 7.047 0 0014 7.03C14 3.154 10.86 0 7 0zm5.011 10.032l-4.923 8.256-5.052-8.177a5.872 5.872 0 01-.877-3.08c0-3.23 2.625-5.867 5.841-5.867s5.837 2.636 5.837 5.867c0 1.06-.288 2.097-.825 3.001z" fill="var(--icon-color, #ffffff)"/><path d="M7 3.516c-1.93 0-3.5 1.577-3.5 3.515 0 1.926 1.545 3.516 3.5 3.516 1.98 0 3.5-1.61 3.5-3.516 0-1.938-1.57-3.515-3.5-3.515zm0 5.867A2.348 2.348 0 014.659 7.03 2.355 2.355 0 017 4.68 2.351 2.351 0 019.337 7.03c0 1.277-1.023 2.352-2.337 2.352z" fill="var(--icon-color, #ffffff)"/></svg><svg fill="none" viewBox="0 0 32 32" id="icon-quotes" xmlns="http://www.w3.org/2000/svg"><path d="M20 17h5.89A8.999 8.999 0 0122 23.14l-1.79 1.2 1.1 1.66 1.79-1.2a11.001 11.001 0 004.9-9.15V9a2 2 0 00-2-2h-6a2 2 0 00-2 2v6a2 2 0 002 2zM6 17h5.89A8.999 8.999 0 018 23.14l-1.79 1.2L7.3 26l1.8-1.2a11.001 11.001 0 004.9-9.15V9a2 2 0 00-2-2H6a2 2 0 00-2 2v6a2 2 0 002 2z" fill="#333"/></svg><svg fill="none" viewBox="0 0 80 80" id="icon-regist" xmlns="http://www.w3.org/2000/svg"><path d="M76.914 44.597a1.563 1.563 0 00-.647-2.113 24.504 24.504 0 00-27.022 2.698l-2.525-2.525 4.123-4.123a1.563 1.563 0 00-2.21-2.21l-4.122 4.124-10.06-10.06a21.822 21.822 0 004.182-10.51 21.72 21.72 0 00-2.408-12.799 1.563 1.563 0 00-2.76 1.467c3.366 6.332 2.84 13.852-1.25 19.605l-6.63-6.629a3.818 3.818 0 00-3.537-1.033 3.818 3.818 0 00-2.774 2.425L.239 74.841a3.798 3.798 0 00.89 4.03 3.799 3.799 0 004.03.89l51.927-19.035a3.818 3.818 0 002.425-2.774 3.818 3.818 0 00-1.033-3.537l-7.01-7.01a21.375 21.375 0 0123.333-2.161 1.563 1.563 0 002.113-.647zM24.887 69.201L10.799 55.113l3.904-10.648 20.832 20.832-10.648 3.904zM17.25 72l-9.25-9.251 1.613-4.402 12.039 12.04L17.25 72zM4.084 76.826a.68.68 0 01-.746-.164.68.68 0 01-.165-.746l3.642-9.933 7.202 7.202-9.933 3.641zM56.459 57.28a.69.69 0 01-.449.513l-9.605 3.521-8.887-8.887a1.563 1.563 0 00-2.21 2.21l7.863 7.862-4.402 1.614L15.89 41.23l1.613-4.402 7.862 7.863c.305.305.705.458 1.105.458s.8-.153 1.105-.458c.61-.61.61-1.6 0-2.21l-8.887-8.887 3.521-9.605a.691.691 0 01.514-.45.68.68 0 01.654.191l32.892 32.893a.69.69 0 01.191.655zM47.124 12.47c.863 0 1.563-.7 1.563-1.563a2.376 2.376 0 012.373-2.373 5.504 5.504 0 005.498-5.498 1.563 1.563 0 00-3.125 0 2.376 2.376 0 01-2.373 2.373 5.504 5.504 0 00-5.498 5.498c0 .863.7 1.563 1.562 1.563zM60.987 27.218a5.685 5.685 0 005.678-5.678 2.556 2.556 0 012.553-2.554 1.563 1.563 0 000-3.125 5.685 5.685 0 00-5.678 5.679 2.556 2.556 0 01-2.553 2.553 1.563 1.563 0 000 3.125zM70 30.232c0 2.757 2.243 5 5 5s5-2.243 5-5-2.243-5-5-5-5 2.243-5 5zm5-1.875c1.034 0 1.875.841 1.875 1.875A1.877 1.877 0 0175 32.107a1.877 1.877 0 01-1.875-1.875c0-1.034.841-1.875 1.875-1.875z" fill="#0FA9DA"/><path d="M49.235 26.54c2.757 0 5-2.243 5-5s-2.243-5-5-5-5 2.243-5 5 2.243 5 5 5zm0-6.875c1.034 0 1.875.84 1.875 1.875a1.877 1.877 0 01-1.875 1.875 1.877 1.877 0 01-1.875-1.875c0-1.034.841-1.875 1.875-1.875zM20 10c2.758 0 5-2.243 5-5s-2.242-5-5-5c-2.757 0-5 2.243-5 5s2.243 5 5 5zm0-6.875c1.034 0 1.875.841 1.875 1.875A1.877 1.877 0 0120 6.875 1.877 1.877 0 0118.125 5c0-1.034.841-1.875 1.875-1.875zM70.704 54.853a1.563 1.563 0 00-2.21 2.21l1.473 1.472a1.558 1.558 0 002.21 0c.61-.61.61-1.6 0-2.21l-1.473-1.472zM78.069 62.218a1.563 1.563 0 00-2.21 2.21l1.473 1.473c.305.306.705.458 1.105.458s.8-.152 1.105-.458c.61-.61.61-1.6 0-2.21l-1.473-1.473zM77.332 54.853l-1.473 1.473a1.563 1.563 0 002.21 2.21l1.472-1.474a1.562 1.562 0 00-2.21-2.21zM69.967 62.218l-1.473 1.473a1.563 1.563 0 002.21 2.21l1.473-1.473a1.563 1.563 0 00-2.21-2.21zM76.964 4.598c.4 0 .8-.152 1.105-.458l1.473-1.473a1.562 1.562 0 10-2.21-2.21l-1.473 1.474a1.563 1.563 0 001.105 2.667zM69.6 11.964c.4 0 .799-.153 1.104-.458l1.473-1.473a1.563 1.563 0 00-2.21-2.21l-1.473 1.473a1.563 1.563 0 001.105 2.668zM78.069 7.823a1.563 1.563 0 00-2.21 2.21l1.473 1.473c.305.306.705.458 1.105.458s.8-.152 1.105-.458c.61-.61.61-1.6 0-2.21l-1.473-1.473zM69.968 4.14c.305.306.705.458 1.105.458s.8-.152 1.104-.458c.61-.61.61-1.6 0-2.21L70.704.459a1.563 1.563 0 00-2.21 2.21l1.474 1.472zM31.44 46.997c-.41 0-.814.167-1.104.458-.291.29-.458.693-.458 1.104 0 .411.167.814.458 1.105.29.29.693.458 1.104.458.411 0 .814-.167 1.105-.458.29-.29.458-.694.458-1.105 0-.41-.167-.814-.458-1.104a1.574 1.574 0 00-1.105-.458zM54.237 30.721l-1.133 1.133a1.563 1.563 0 002.21 2.21l1.133-1.133a1.563 1.563 0 00-2.21-2.21z" fill="#0FA9DA"/></svg><svg fill="none" viewBox="0 0 20 20" id="icon-search" xmlns="http://www.w3.org/2000/svg"><path d="M8 15A7 7 0 108 1a7 7 0 000 14zM19 19l-6-6" stroke="var(--icon-color, #333333)" stroke-width="1.8" stroke-linecap="round" stroke-linejoin="round"/></svg><svg fill="none" viewBox="0 0 45 45" id="icon-seminar" xmlns="http://www.w3.org/2000/svg"><path d="M43.304 3H1.548a.683.683 0 00-.492.212.736.736 0 00-.204.51V5.89c0 .191.073.375.204.51.13.136.307.212.492.212h.696v26a4.422 4.422 0 001.224 3.062 4.105 4.105 0 002.951 1.27H21.73v.848c-.464.17-.856.505-1.105.946-.25.44-.34.959-.257 1.463.083.503.336.96.712 1.29.377.33.853.51 1.346.51.492 0 .97-.18 1.346-.51.376-.33.628-.787.712-1.29a2.236 2.236 0 00-.257-1.463c-.25-.44-.64-.776-1.105-.946v-.847h15.31a4.105 4.105 0 002.952-1.27 4.422 4.422 0 001.224-3.063v-26h.696a.684.684 0 00.492-.211.736.736 0 00.204-.511V3.722a.736.736 0 00-.204-.51.684.684 0 00-.492-.212zM22.426 40.555a.678.678 0 01-.387-.122.718.718 0 01-.256-.324.749.749 0 01.15-.787.672.672 0 01.758-.157.702.702 0 01.314.267.742.742 0 01-.087.911.684.684 0 01-.492.212zm18.79-7.944c0 .766-.294 1.5-.816 2.042a2.736 2.736 0 01-1.968.846H6.42a2.736 2.736 0 01-1.967-.846 2.948 2.948 0 01-.816-2.042v-26h37.58v26zm1.392-27.444H2.244v-.723h40.364v.723z" fill="#fff"/><path d="M14.075 29.722a8.718 8.718 0 003.762-.852l2.009 2.085a.692.692 0 00.492.211h5.567a.683.683 0 00.493-.211.737.737 0 00.203-.511.737.737 0 00-.203-.51.683.683 0 00-.492-.212h-5.28L19.1 28.137a9.272 9.272 0 002.953-3.38 9.669 9.669 0 001.07-4.424.736.736 0 00-.204-.51.683.683 0 00-.492-.212H14.77v-7.945a.736.736 0 00-.204-.51.683.683 0 00-.492-.212c-2.4 0-4.701.99-6.398 2.75-1.696 1.761-2.65 4.149-2.65 6.64 0 2.49.954 4.877 2.65 6.638 1.697 1.76 3.998 2.75 6.398 2.75zm-.696-17.3v7.911c0 .192.073.375.203.51.131.136.308.212.492.212H21.7a8.157 8.157 0 01-1.118 3.46 7.812 7.812 0 01-2.489 2.577l-2.133-2.214a.683.683 0 00-.493-.212.683.683 0 00-.492.212.737.737 0 00-.204.51c0 .192.074.376.204.511l1.799 1.867a7.4 7.4 0 01-6.318-.434 7.737 7.737 0 01-2.466-2.18 8.08 8.08 0 01-1.376-3.043 8.237 8.237 0 01-.04-3.36 8.097 8.097 0 011.303-3.078 7.76 7.76 0 012.412-2.243 7.457 7.457 0 013.09-1.007z" fill="#fff"/><path d="M16.858 18.167h8.352a.683.683 0 00.492-.212.737.737 0 00.204-.51c-.003-2.49-.957-4.876-2.653-6.636-1.696-1.76-3.996-2.75-6.395-2.753a.683.683 0 00-.492.211.736.736 0 00-.203.51v8.667c0 .192.073.376.203.511.13.136.308.212.492.212zm.697-8.634a7.554 7.554 0 014.714 2.296 8.087 8.087 0 012.214 4.893h-6.928v-7.19zM27.993 22.5h11.135a.683.683 0 00.492-.212.736.736 0 00.204-.51V19.61a.736.736 0 00-.204-.51.683.683 0 00-.492-.212H27.993a.683.683 0 00-.492.211.736.736 0 00-.204.51v2.168c0 .191.074.375.204.51.13.136.308.212.492.212zm.696-2.167h9.743v.722H28.69v-.722zM27.993 25.389h11.135a.683.683 0 00.492-.212.736.736 0 00.204-.51.736.736 0 00-.204-.511.683.683 0 00-.492-.212H27.993a.683.683 0 00-.492.212.736.736 0 00-.204.51c0 .192.074.376.204.511.13.136.308.212.492.212zM27.993 28.277h11.135a.683.683 0 00.492-.211.736.736 0 00.204-.51.737.737 0 00-.204-.512.683.683 0 00-.492-.211H27.993a.683.683 0 00-.492.212.737.737 0 00-.204.51c0 .192.074.375.204.51.13.136.308.212.492.212zM27.993 31.166h6.873a.683.683 0 00.492-.211.737.737 0 00.204-.511.736.736 0 00-.204-.51.683.683 0 00-.492-.212h-6.873a.683.683 0 00-.492.211.736.736 0 00-.204.51c0 .192.074.376.204.512.13.135.308.211.492.211zM37.736 29.722h-.696a.683.683 0 00-.492.211.736.736 0 00-.204.51c0 .192.074.376.204.512.13.135.308.211.492.211h.696a.684.684 0 00.492-.211.737.737 0 00.204-.511.736.736 0 00-.204-.51.684.684 0 00-.492-.212z" fill="#fff"/></svg><svg fill="none" viewBox="0 0 26 26" id="icon-soc-fb" xmlns="http://www.w3.org/2000/svg"><path d="M15.463 7.641h1.46V5.256a20.098 20.098 0 00-2.127-.105c-4.621 0-3.364 4.906-3.548 5.625H8.923v2.666h2.324v6.709h2.85v-6.708h2.23l.353-2.667h-2.584c.125-1.765-.508-3.135 1.367-3.135z" fill="var(--icon-color, #006484)"/></svg><svg fill="none" viewBox="0 0 26 26" id="icon-soc-in" xmlns="http://www.w3.org/2000/svg"><path d="M13.424 5.158c-3.072 0-5.99-.273-7.104 2.584-.46 1.18-.393 2.713-.393 4.908 0 1.925-.062 3.735.393 4.906 1.112 2.86 4.053 2.585 7.102 2.585 2.941 0 5.975.306 7.102-2.585.461-1.192.394-2.702.394-4.906 0-2.927.161-4.817-1.26-6.235-1.437-1.437-3.383-1.257-6.238-1.257h.004zm-.672 1.35c6.408-.01 7.223-.722 6.773 9.166-.16 3.498-2.825 3.114-6.1 3.114-5.974 0-6.145-.17-6.145-6.142 0-6.04.473-6.135 5.472-6.14v.002zm4.673 1.243a.899.899 0 100 1.799.899.899 0 000-1.799zm-4.002 1.051a3.848 3.848 0 100 7.694 3.847 3.847 0 100-7.694zm0 1.35c3.304 0 3.309 4.995 0 4.995-3.302 0-3.307-4.995 0-4.995z" fill="var(--icon-color, #006484)"/></svg><svg fill="none" viewBox="0 0 26 26" id="icon-soc-tw" xmlns="http://www.w3.org/2000/svg"><path d="M19.393 10.535c0-.134-.005-.264-.01-.392a6.088 6.088 0 001.54-1.571V8.57a6.5 6.5 0 01-1.771.478 3.02 3.02 0 001.353-1.673 6.212 6.212 0 01-1.95.733 3.103 3.103 0 00-2.247-.958c-1.702 0-3.073 1.36-3.073 3.028 0 .24.02.47.072.69a8.752 8.752 0 01-6.34-3.167 3.018 3.018 0 00-.42 1.53 3.02 3.02 0 001.366 2.517 3.076 3.076 0 01-1.39-.373v.033c0 1.471 1.066 2.694 2.464 2.975a3.3 3.3 0 01-1.388.048 3.1 3.1 0 002.873 2.11 6.243 6.243 0 01-3.813 1.291c-.252 0-.494-.011-.736-.041a8.759 8.759 0 004.718 1.359c5.659 0 8.752-4.616 8.752-8.616z" fill="var(--icon-color, #006484)"/></svg><svg fill="none" viewBox="0 0 26 26" id="icon-soc-vk" xmlns="http://www.w3.org/2000/svg"><path d="M17.37 13.312c-.242-.316-.173-.456 0-.737.003-.003 2.005-2.849 2.211-3.814h.002c.102-.352 0-.61-.496-.61h-1.64c-.417 0-.61.221-.713.47 0 0-.835 2.055-2.016 3.388-.382.385-.558.509-.766.509-.102 0-.262-.124-.262-.476V8.761c0-.422-.117-.61-.462-.61h-2.579c-.262 0-.417.196-.417.38 0 .4.59.491.651 1.616v2.441c0 .535-.094.634-.303.634-.558 0-1.911-2.065-2.713-4.427-.162-.459-.32-.644-.74-.644H5.485c-.468 0-.563.222-.563.47 0 .439.558 2.619 2.593 5.499 1.356 1.965 3.266 3.03 5.004 3.03 1.044 0 1.171-.236 1.171-.643 0-1.878-.094-2.056.43-2.056.242 0 .66.124 1.634 1.072 1.115 1.124 1.298 1.628 1.921 1.628h1.64c.468 0 .705-.237.569-.704-.312-.981-2.42-3-2.515-3.135z" fill="var(--icon-color, #006484)"/></svg><svg fill="none" viewBox="0 0 26 26" id="icon-soc-yt" xmlns="http://www.w3.org/2000/svg"><path d="M6.259 16.453c.306 1.126 1.242 1.331 1.305 1.37 1.54.436 10.177.437 11.741 0 1.071-.32 1.268-1.305 1.305-1.37.408-2.248.434-5.18-.019-7.732l.019.127c-.306-1.125-1.242-1.33-1.305-1.37-1.52-.428-10.18-.444-11.741 0-1.071.321-1.268 1.305-1.305 1.37-.437 2.363-.458 5.075 0 7.605zm5.675-1.438v-4.722l3.913 2.365-3.913 2.357z" fill="var(--icon-color, #006484)"/></svg><svg fill="none" viewBox="0 0 17 16" id="icon-star" xmlns="http://www.w3.org/2000/svg"><path d="M8.5 1l2.318 4.609L16 6.348l-3.75 3.587.885 5.065L8.5 12.608 3.865 15l.885-5.065L1 6.348l5.182-.74L8.5 1z" fill="var(--srar-10, #333333)" stroke="var(--icon-color, #333333)" stroke-width="1.4" stroke-linecap="round" stroke-linejoin="round"/><path d="M8.5 1v11.608L3.865 15l.885-5.065L1 6.348l5.182-.74L8.5 1z" fill="var(--srar-05, #333333)"/></svg><svg fill="none" viewBox="0 0 17 17" id="icon-time" xmlns="http://www.w3.org/2000/svg"><path d="M8.5 16a7.5 7.5 0 100-15 7.5 7.5 0 000 15z" stroke="var(--icon-color, #0FA9DA)" stroke-linecap="round" stroke-linejoin="round"/><path d="M8.5 4.333V8.5L11 11" stroke="var(--icon-color, #0FA9DA)" stroke-linecap="round" stroke-linejoin="round"/></svg><svg fill="none" viewBox="0 0 21 20" id="icon-volume" xmlns="http://www.w3.org/2000/svg"><g opacity="var(--volume, 1)" fill="var(--icon-color, #0FA9DA)"><path d="M.667 6.667v6.667h4.444l5.556 5.555V1.111L5.111 6.667H.667z"/><path d="M15.667 10a4.992 4.992 0 00-2.778-4.472v8.95a5.007 5.007 0 002.778-4.477z" opacity="var(--volume05, 1)"/><path d="M12.89.256V2.55A7.777 7.777 0 0118.444 10a7.777 7.777 0 01-5.556 7.45v2.295c4.45-1.011 7.778-4.984 7.778-9.745 0-4.76-3.328-8.733-7.778-9.744z" opacity="var(--volume1, 1)"/></g><g opacity="var(--mute, 0)" fill="var(--icon-color, #0FA9DA)"><path d="M15.667 10a4.992 4.992 0 00-2.778-4.472v2.456l2.728 2.728c.033-.234.05-.473.05-.711z"/><path d="M18.445 10a7.684 7.684 0 01-.6 2.934l1.683 1.683A9.942 9.942 0 0020.668 10c0-4.755-3.329-8.733-7.779-9.744V2.55A7.777 7.777 0 0118.445 10zM10.667 1.111L8.345 3.434l2.322 2.322V1.11zM2.084 0L.667 1.417l5.25 5.25H.667v6.666h4.444l5.556 5.556v-7.472l4.728 4.727a7.826 7.826 0 01-2.506 1.312v2.294a9.967 9.967 0 004.095-2.011L19.25 20l1.417-1.417-10-10L2.084 0z"/></g></svg><svg fill="none" viewBox="0 0 45 45" id="icon-webinar" xmlns="http://www.w3.org/2000/svg"><path d="M43.83 34.005h-2.255a3.7 3.7 0 00.863-2.36V8.714A3.723 3.723 0 0038.715 5H24.038a.658.658 0 100 1.316h14.677a2.404 2.404 0 012.404 2.399v22.93c0 1.149-.846 2.155-1.977 2.36H5.858a2.421 2.421 0 01-1.977-2.36V8.714c0-1.323 1.078-2.4 2.404-2.4h14.677a.658.658 0 100-1.315H6.285a3.723 3.723 0 00-3.722 3.715v22.93a3.7 3.7 0 00.862 2.36H1.17C.525 34.005 0 34.53 0 35.178v1.773C0 38.632 1.36 40 3.033 40h38.934A3.044 3.044 0 0045 36.95v-1.772c0-.647-.525-1.173-1.17-1.173zM16.787 35.32h11.424v.532c0 .22-.181.405-.395.405H17.183a.406.406 0 01-.395-.405v-.532zm26.894 1.63c0 .957-.77 1.734-1.715 1.734H3.033a1.726 1.726 0 01-1.715-1.733v-1.63H15.47v.531c0 .949.77 1.72 1.714 1.72h10.634a1.72 1.72 0 001.714-1.72v-.532h14.15v1.63z" fill="var(--icon-color, #ffffff)"/><path d="M31.546 26.793c.364 0 .659-.294.659-.658v-8.693a.658.658 0 00-1.319 0v.021l-2.358 1.103v-.89a2.427 2.427 0 00-2.427-2.421H15.223a2.427 2.427 0 00-2.427 2.422V25.9a2.427 2.427 0 002.427 2.422H26.1a2.427 2.427 0 002.427-2.422v-.89l2.358 1.104v.02c0 .364.296.658.66.658zm-4.336-.892c0 .61-.498 1.107-1.109 1.107H15.223a1.109 1.109 0 01-1.109-1.107v-8.224c0-.61.497-1.107 1.109-1.107H26.1c.611 0 1.109.497 1.109 1.107V25.9zm1.318-2.342v-3.54l2.358-1.103v5.746l-2.358-1.103zM32.87 15.495a2.124 2.124 0 004.247 0 2.124 2.124 0 00-4.248 0zm2.929 0a.806.806 0 01-1.611 0 .806.806 0 011.61 0z" fill="var(--icon-color, #ffffff)"/><path d="M23.084 20.676l-2.83-1.924c-.894-.61-2.11.032-2.11 1.113v3.85c0 1.08 1.215 1.721 2.11 1.112l2.83-1.925a1.347 1.347 0 000-2.226zm-.743 1.14l-2.829 1.924a.031.031 0 01-.05-.026v-3.85c0-.024.026-.042.05-.026l2.829 1.925a.031.031 0 010 .053z" fill="var(--icon-color, #ffffff)"/><path d="M39.026 20.912c.364 0 .659-.295.659-.658V8.932c0-.665-.542-1.206-1.209-1.206H6.523c-.667 0-1.209.54-1.209 1.206v22.46c0 .666.542 1.207 1.209 1.207h31.953c.667 0 1.209-.541 1.209-1.206v-8.07a.658.658 0 00-1.318 0v7.96H6.632v-18.99h31.735v7.96c0 .364.295.659.659.659zm-30.14-9.934H6.633V9.041h2.255v1.937zm1.32 0V9.041h28.16v1.937h-28.16z" fill="var(--icon-color, #ffffff)"/></svg><svg fill="none" viewBox="0 0 512 512" id="logo-min" xmlns="http://www.w3.org/2000/svg"><path d="M156.898 240.694L8.994 217.285c0-1.201.599-1.801.599-3.002l147.305 23.41v3.001zm347.904 20.408h-56.287l35.928 28.812 17.964 3.001c0 1.2-.599 1.8-.599 3.001l-13.173-1.801 11.377 9.604c0 1.201-.599 2.401-.599 3.602l-16.766-13.806L406 281.51l-1.797 12.005 92.815 24.01c-.599 3.001-1.797 6.002-2.395 9.003l-91.617-25.21-.599 3.001 89.222 31.813c-.599 1.201-.599 1.801-1.198 3.001l-88.623-30.612-2.395 13.806 3.593 4.201 44.91 22.209 36.527 6.002c-.599 1.201-.599 1.801-1.198 3.002l-26.347-4.202 22.755 11.405c-1.198 3.001-2.994 6.002-4.192 8.403l-49.701-25.21-3.592-.6 1.197 1.2 50.3 28.812c-1.797 3.001-2.994 5.402-4.791 8.403l-26.347-15.006 20.958 24.01c-.599.6-1.198 1.8-1.797 2.401l-27.544-31.213-38.324-22.209-2.994 20.408 58.084 46.819c-.599.6-1.198 1.801-1.796 2.401l-56.288-45.618-2.395 15.006 45.509 45.618c-2.395 2.401-4.192 4.802-6.587 6.603l-40.718-40.817-1.797 10.204 33.533 39.016c-.599.6-1.796 1.2-2.395 1.801l-31.737-37.215-8.383 51.621 5.988 10.204c-.599.6-1.796 1.2-2.395 1.2l-4.192-6.603-.598 4.202 2.994 3.602c-.599.6-1.797 1.2-2.396 1.8l-1.197-1.2-.599 2.401c-1.198.6-2.994 1.2-4.192 2.401l-36.527-20.408 11.976 31.812c-1.197.6-1.796.6-2.994 1.201l-13.173-34.814-9.581-5.402 12.575 44.417c-7.186 2.401-14.371 4.202-22.156 6.003l-18.563-66.027-1.796-1.2 13.173 68.427c-1.197 0-1.796.601-2.994.601l-13.772-71.429-28.144-15.606L260.491 506h-2.994l-1.198-92.437-22.754-12.605-16.168 102.641c-1.197 0-1.796-.6-2.994-.6l16.767-103.242-19.761-11.404-11.976 34.214 1.198 78.031c-1.198 0-1.797-.6-2.994-.6l-.599-68.428-21.557 62.425c-1.198-.6-1.796-.6-2.994-1.2l23.952-70.228v-24.61l-22.754 26.41-30.539 55.222c-6.587-3.601-13.174-7.202-19.761-11.404l55.09-98.44-8.982-4.801-70.06 86.434c-.599-.6-1.796-1.2-2.395-1.801l69.461-86.434-19.761-11.405-79.041 68.428c-.6-.601-1.198-1.801-1.797-2.401l78.443-67.827-22.155-12.605-29.94 18.007-31.138 56.422c-5.39-6.602-10.18-13.205-14.97-20.408l6.587-12.005-10.779 6.603c0-.6-.599-1.801-1.198-2.401l14.97-9.004 23.953-42.617-53.893 21.609-3.593-9.004 64.671-26.41-3.593-1.801-64.67 18.608c-2.395-7.203-4.192-14.406-5.988-22.209L55.7 300.118l-5.39-3.002-38.922 7.804c0-1.201-.599-1.801-.599-3.002l35.928-7.203-18.562-10.804-19.76-3.001v-3.001l12.574 1.8-13.174-7.202v-3.602l22.156 12.005 47.305 7.803 30.539-6.002 12.575-22.209H6V255.7v-4.802h117.964l4.79-9.004 16.168 9.004H155.7v9.604h-10.778l-8.982 16.206 20.958-6.002c1.198 9.003 4.192 18.007 7.785 26.41l-10.779 4.202 13.773 2.401c.598 1.801 1.796 3.001 2.395 4.202l-45.509 28.211 21.557 12.005 32.335-27.611c.599.6 1.198 1.2 1.796 2.401l-31.137 27.011 19.161 10.804 22.156-27.611c.599.6 1.796 1.2 2.395 1.801l-22.155 27.611 8.383 4.802 16.766-30.012c5.988 4.201 12.575 8.403 19.761 11.404l-15.569 29.412 5.389 3.001 9.581-11.405 6.587-19.207c1.197.6 1.796.6 2.994 1.2l-4.192 11.405 8.383-10.204c1.198 0 2.396.6 2.994.6l-14.371 17.407-4.79 14.406 19.76 10.804 6.587-41.417c1.198 0 1.796.601 2.994.601l-6.587 42.617 22.156 12.605-.599-53.422h2.994l.599 55.223 27.545 15.606-8.982-45.618-7.186-26.411c7.785-1.201 15.569-3.001 22.755-6.002l16.766 43.817 64.072 73.83.599-4.802-71.258-119.448c.599-.6 1.797-1.201 2.395-1.801l67.665 114.646 8.383-51.02-63.473-72.629a72.574 72.574 0 009.581-9.604l7.785 7.803 11.377 1.801-16.168-13.206c.599-.6 1.198-1.8 1.797-2.401l20.359 16.207 14.97 2.401-30.539-24.61c2.994-4.202 5.389-9.004 7.186-13.806l50.299 25.211-20.359-24.01-26.348-9.004c1.198-3.601 2.396-7.803 3.593-11.404l7.186 1.8-5.988-6.602c0-1.201.599-3.001.599-4.202l49.101 7.803 2.396-16.206h-51.497V255.7v-4.802h52.694l2.994-16.807-7.784-6.002-43.114 8.403-6.587 1.801c-1.197-8.403-4.191-16.207-7.185-24.01l26.946-10.804-12.575-10.204-19.162 12.005c-.599-.601-1.197-1.801-1.796-2.401l17.964-10.805-13.174-10.804-11.976 10.804c-.599-.6-1.197-1.2-1.796-2.401l12.575-10.804-14.372-11.404-8.982 11.404c-.598-.6-1.796-1.2-2.395-1.801l8.982-11.404-5.389-4.802-7.785 13.205c-5.988-4.201-12.574-8.403-19.76-10.804l8.982-16.807-6.587-5.402-7.185 20.408c-1.198-.6-1.797-.6-2.994-1.2l7.185-21.009-15.569-12.605-4.79 30.613c-1.198 0-1.796-.601-2.994-.601l5.389-32.413-19.162-15.606.599 46.819H252.108l-19.162-22.209 2.395 13.205 2.994 10.805c-7.784 1.2-14.97 3.601-22.156 6.602l-5.988-20.408-10.179 18.607 4.79 7.804c-.599.6-1.796 1.2-2.395 1.8l-3.593-6.602-4.191 7.803v4.201c-1.198.601-1.797 1.201-2.994 2.401v-1.2l-.599 1.2.599.601c-.599.6-1.198 1.2-2.396 1.8l-1.796-1.8-2.395-1.201 3.593 3.602c-2.396 2.401-4.791 4.201-6.587 6.602l-28.144-28.211-85.03-70.828c.599-.6 1.198-1.801 1.797-2.401l59.88 49.82L76.06 82.831c2.395-2.401 4.191-4.802 6.587-6.603l89.82 89.436 1.198-2.401L91.03 67.825c.599-.6 1.796-1.2 2.395-1.801l81.437 94.238 10.18-18.608-58.683-99.64c.599-.6 1.797-1.2 2.395-1.2l58.084 98.439 4.192-7.203-.599-41.416-19.162-50.42-16.167-13.206c1.197-.6 1.796-1.2 2.994-1.2l10.778 9.004-4.191-11.405c1.197-.6 1.796-.6 2.994-1.2l5.988 16.206 9.58 7.803-7.784-27.01c7.186-2.402 14.371-4.803 22.156-6.003l16.167 58.223 4.192 3.602L206 10.802c1.197 0 1.796-.6 2.994-.6l12.575 66.026 30.539-54.021V6h2.994v10.804L261.09 6c8.383 0 16.766.6 25.149 1.8L255.7 62.424l.599 42.016 19.761 16.207L294.024 8.401c1.197 0 1.796.6 2.994.6l-17.964 113.446 16.167 13.205 40.12-116.447c1.198.6 1.797.6 2.994 1.2l-40.718 118.248 7.185 5.402 61.677-111.644 19.76 10.804-64.071 115.246 5.988 4.802 83.233-102.641c.599.6 1.796 1.2 2.395 1.8l-83.233 103.242 14.371 12.005 87.425-75.631 2.994-19.207c.599 1.2 1.797 1.8 2.395 3l-2.395 13.806 8.383-7.202c.599.6 1.198 1.8 1.797 2.4l-10.779 9.604-7.185 46.219 40.718-24.61c.599.6 1.198 1.801 1.797 2.401l-42.515 25.81-4.791 31.213 63.473-25.21 3.593 9.003-68.862 27.611 71.257-20.408c2.396 7.203 4.791 14.406 6.587 21.609l-82.036 23.409-.599 2.401 84.432-16.206c0 1.2.598 1.8.598 3.001l-85.03 16.807-1.197 7.202 22.754 18.008H506v4.802c-1.198 0-1.198 1.8-1.198 3.601zM190.431 81.63V70.826l-5.389-19.808-8.982-7.203 14.371 37.815zm9.581 33.614l-6.587-16.807.599 28.211 5.988-11.404zm1.796-4.202l-8.383-29.412v7.803l8.383 21.609zm17.964-30.612l-.598-1.8-3.593-3.002 2.395 7.803 1.796-3.001zm19.761 10.804l13.173 10.804-.598-34.213-12.575 23.41zm13.772 61.825l-.599-46.219-14.97-12.005-9.58 16.807 2.994 16.207 22.155 25.21zM50.311 294.115l16.767-3.001-31.138-4.802 14.371 7.803zm30.54-.6l-4.791-.6-20.958 4.201 4.79 3.002 20.958-6.603zm8.382 21.008l-1.796.601 1.198.6.598-1.201zm11.378-27.01l-16.168 3.001 3.593.6 12.575-3.601zm17.964 48.619l-11.976-6.603-11.976 21.009 23.952-14.406zm48.503-28.811l-18.563-3.002-35.33 13.806-4.79 8.403 13.773 7.803 44.91-27.01zm29.341 84.633v-7.203l-13.772 24.61 13.772-17.407zm2.395-3.601l4.192-4.802-4.192-2.401v7.203zm9.581-1.801l-2.994-1.801-6.587 8.404v19.808l9.581-26.411zm2.994-9.003l-4.192 4.802 1.797 1.2 2.395-6.002zm80.24 52.22l-3.593-13.205 2.395 12.605 1.198.6zm12.574-43.817l-4.191-10.804 2.395 9.003 1.796 1.801zm24.551 64.826l-21.557-56.423-2.994-3.601 15.569 54.622 8.982 5.402zm44.312 19.208l-59.881-69.628 19.761 52.221 39.521 22.208.599-4.801zm2.395-133.254l11.377 1.801-31.138-18.007 19.761 16.206zm10.18 55.823l-60.479-60.024-2.396-.601 61.078 70.228 1.797-9.603zm4.191-26.411l-35.928-29.412-11.976-1.8 46.108 46.218 1.796-15.006zm3.593-23.409l-19.162-3.002-14.97-2.4 30.539 25.21 3.593-19.808zm-20.958-48.02l-1.198-1.2-10.778-3.001 11.976 4.201zm24.551 24.01l1.796-12.005-17.365-6.002 15.569 18.007zm.599 15.606l15.568 9.004h1.198l-1.198-1.801-15.568-7.203zm2.395-33.013l-23.952-6.603 1.796 1.801 21.557 7.803.599-3.001zm3.593-21.008l-46.108-7.203 7.784 9.003 36.527 10.205 1.797-12.005zm10.179-43.818l-2.395 15.006h20.958l-18.563-15.006zm-52.694-46.819l63.473-38.415 7.185-45.018-84.431 72.629 13.773 10.804zm15.569 13.206l41.916-16.807 4.79-30.612-59.88 36.614 13.174 10.805zm27.544 22.209l8.384-1.801v-1.801l-9.581 3.001 1.197.601zm7.186 6.002l.599-4.202-4.791.601 4.192 3.601zm32.335 30.012h-34.131l-2.396 16.807 71.258 11.404-34.731-28.211zm-283.832-35.414L15.581 186.672c-.6 3.001-1.797 6.003-2.396 9.004l144.312 39.015c.599-3.001 1.796-6.002 2.395-9.003zm19.162-34.814L62.886 96.636c-.599.6-1.198 1.801-1.796 2.401l116.167 94.238c.599-.6 1.198-1.201 1.797-2.401zm-18.563 34.214c.599-1.201 1.197-2.401 1.197-4.202l-1.197-.6-8.383-9.604 10.778 5.402c2.395-4.802 4.791-9.604 7.785-14.406l-52.096-30.012-60.48-69.027c-.598.6-1.197 1.8-1.796 2.401l53.892 62.425-68.862-39.616c-1.796 3.001-2.994 5.402-4.79 8.403l85.03 49.22-88.024-43.818c-1.198 2.401-2.395 5.402-4.192 8.404l115.569 57.623 9.581 10.804-134.132-46.218c-.599 1.2-.599 1.8-1.197 3.001l138.922 48.619 2.395 1.201z" fill="var(--icon-color, #ffffff)"/></svg><svg fill="none" viewBox="0 0 205 40" id="main-logo" xmlns="http://www.w3.org/2000/svg"><path d="M12.353 18.776L.245 16.902c0-.096.05-.144.05-.24l12.058 1.872v.24zm28.48 1.632h-4.608l2.942 2.305 1.47.24c0 .096-.049.144-.049.24l-1.078-.144.931.768c0 .097-.049.193-.049.289L39.02 23l-6.275-.96-.147.96 7.598 1.921c-.049.24-.147.48-.196.72l-7.5-2.017-.049.24 7.304 2.546c-.05.096-.05.144-.098.24l-7.255-2.45-.196 1.105.294.336 3.676 1.777 2.99.48c-.048.096-.048.144-.097.24l-2.157-.336 1.863.912c-.099.24-.246.48-.344.673l-4.068-2.017-.294-.048.098.096 4.117 2.305c-.147.24-.245.432-.392.672l-2.157-1.2 1.716 1.92c-.049.049-.098.145-.147.192l-2.255-2.497-3.137-1.776-.245 1.633 4.755 3.745c-.05.048-.098.144-.147.192l-4.608-3.65-.196 1.201 3.725 3.65c-.196.192-.343.384-.54.528l-3.332-3.266-.148.817 2.746 3.121c-.05.048-.147.096-.197.144l-2.598-2.977-.686 4.13.49.816a.374.374 0 01-.196.096l-.343-.528-.049.336.245.288c-.049.048-.147.096-.196.144l-.098-.096-.049.192c-.098.048-.245.096-.343.192l-2.99-1.633.98 2.546c-.098.047-.147.047-.245.096l-1.078-2.786-.785-.432 1.03 3.554c-.588.192-1.177.336-1.814.48l-1.52-5.282-.147-.096 1.079 5.474c-.098 0-.147.048-.245.048l-1.128-5.714-2.304-1.249.098 7.251h-.245l-.098-7.395-1.862-1.008-1.324 8.21c-.098 0-.147-.047-.245-.047l1.372-8.26-1.617-.912-.98 2.737.097 6.243c-.098 0-.147-.048-.245-.048l-.049-5.474-1.764 4.994c-.098-.048-.147-.048-.245-.096l1.96-5.619v-1.969l-1.862 2.113-2.5 4.418c-.54-.288-1.079-.576-1.618-.912l4.51-7.875-.736-.385-5.735 6.915c-.049-.048-.147-.096-.196-.144l5.686-6.915-1.617-.912-6.471 5.474c-.049-.048-.098-.144-.147-.192l6.421-5.426-1.813-1.008-2.451 1.44-2.55 4.514a20.42 20.42 0 01-1.225-1.633l.54-.96-.883.528a.36.36 0 00-.098-.192l1.226-.72 1.96-3.41-4.411 1.73-.294-.721 5.294-2.113-.294-.144-5.295 1.488a18.865 18.865 0 01-.49-1.776l3.53-1.009-.442-.24-3.186.625c0-.097-.049-.145-.049-.24l2.941-.577-1.52-.864-1.617-.24v-.24l1.03.144-1.079-.576v-.289l1.814.96 3.872.625 2.5-.48 1.03-1.777H0v-.384-.384h9.657l.392-.72 1.324.72h.882v.768h-.883l-.735 1.297 1.716-.48c.098.72.343 1.44.637 2.112l-.882.336 1.127.192c.05.145.147.24.196.337L9.706 26.41l1.765.96 2.647-2.209c.049.048.098.096.147.192l-2.55 2.161 1.57.864 1.813-2.209c.05.048.147.096.196.144l-1.814 2.21.687.384 1.372-2.401c.49.336 1.03.672 1.618.912l-1.275 2.353.441.24.785-.912.54-1.537c.097.048.146.048.244.096l-.343.912.686-.816c.098 0 .196.048.245.048l-1.176 1.393-.392 1.152 1.617.864.54-3.313c.098 0 .147.048.245.048l-.54 3.41 1.814 1.008-.049-4.274h.245l.05 4.418 2.254 1.248-.735-3.649-.588-2.113c.637-.096 1.274-.24 1.863-.48L25 31.02l5.245 5.907.05-.384-5.834-9.556c.049-.048.147-.096.196-.144l5.54 9.171.685-4.081-5.196-5.81c.294-.24.54-.48.785-.769l.637.624.931.144-1.323-1.056c.049-.048.098-.144.147-.192l1.666 1.297 1.226.192-2.5-1.97c.245-.335.441-.72.588-1.104l4.118 2.017-1.667-1.92-2.157-.72c.098-.289.196-.625.294-.913l.589.144-.49-.528c0-.096.048-.24.048-.337l4.02.625.196-1.297h-4.216v-.384-.384h4.314l.245-1.345-.637-.48-3.53.672-.539.144c-.098-.672-.343-1.296-.588-1.92l2.206-.865-1.03-.816-1.568.96c-.049-.048-.098-.144-.147-.192l1.47-.864-1.078-.864-.98.864c-.05-.048-.098-.096-.147-.192l1.029-.865-1.176-.912-.736.912c-.049-.048-.147-.096-.196-.144l.736-.912-.442-.384-.637 1.056c-.49-.336-1.03-.672-1.618-.864l.736-1.345-.54-.432-.588 1.633c-.098-.048-.147-.048-.245-.096l.588-1.68-1.274-1.01-.392 2.45c-.098 0-.147-.048-.245-.048l.44-2.593-1.568-1.249.05 3.746h-.344l-1.569-1.777.197 1.056.245.865c-.638.096-1.226.288-1.814.528l-.49-1.633-.834 1.489.393.624c-.05.048-.147.096-.197.144l-.294-.528-.343.624v.336a.855.855 0 00-.245.193v-.097l-.049.097.05.048a.676.676 0 01-.197.144l-.147-.144-.196-.097.294.289c-.196.192-.392.336-.54.528l-2.303-2.257-6.96-5.666c.048-.048.097-.144.146-.192l4.902 3.985-4.46-4.37c.195-.192.342-.384.539-.528l7.352 7.155.098-.192-6.764-7.635c.049-.048.147-.096.196-.144l6.666 7.539.834-1.489-4.804-7.97a.375.375 0 01.196-.097l4.755 7.875.343-.576-.049-3.313-1.569-4.034-1.323-1.056c.098-.048.147-.096.245-.096l.882.72-.343-.912c.098-.048.147-.048.245-.096l.49 1.296.785.624-.637-2.16c.588-.193 1.176-.385 1.813-.48l1.324 4.657.343.288-.98-5.138c.098 0 .147-.048.245-.048l1.03 5.282 2.5-4.321V0h.244v.864l.49-.864c.687 0 1.373.048 2.06.144l-2.5 4.37.048 3.361 1.618 1.297 1.47-8.98c.099 0 .148.048.245.048l-1.47 9.076 1.323 1.056 3.285-9.316c.098.048.147.048.245.096l-3.334 9.46.589.432 5.049-8.931 1.617.864-5.245 9.22.49.384 6.814-8.211c.05.048.147.096.196.144l-6.813 8.26 1.176.96 7.157-6.05.245-1.538c.05.096.147.145.196.24l-.196 1.105.686-.576c.05.048.098.144.147.192l-.882.768-.588 3.698 3.333-1.97c.05.049.098.145.147.193l-3.48 2.065-.392 2.497 5.196-2.017.294.72-5.637 2.21 5.833-1.634c.196.577.392 1.153.54 1.73l-6.717 1.872-.049.192 6.912-1.297c0 .096.05.145.05.24l-6.962 1.345-.098.576 1.863 1.44h5.588v.385c-.098 0-.098.144-.098.288zM15.098 6.05v-.864l-.441-1.585-.735-.576 1.176 3.025zm.784 2.69l-.539-1.345.05 2.257.49-.912zm.147-.337l-.686-2.353v.625l.686 1.728zM17.5 5.954l-.049-.144-.294-.24.196.624.147-.24zm1.618.865l1.078.864-.049-2.737-1.03 1.873zm1.127 4.946l-.049-3.698-1.225-.96-.785 1.344.245 1.297 1.814 2.017zM3.627 23.049L5 22.81l-2.549-.384 1.176.624zm2.5-.048l-.392-.048-1.715.336.392.24 1.715-.528zm.687 1.68l-.147.049.098.048.049-.096zm.931-2.16l-1.323.24.294.048 1.03-.288zm1.47 3.89l-.98-.529-.98 1.681 1.96-1.152zm3.971-2.305l-1.52-.24-2.891 1.104-.393.672 1.128.625 3.676-2.161zm2.402 6.77V30.3l-1.127 1.969 1.127-1.393zm.196-.288l.344-.384-.344-.192v.576zm.785-.144l-.245-.144-.54.672v1.585l.785-2.113zm.245-.72l-.343.384.147.096.196-.48zm6.568 4.178l-.294-1.057.196 1.008.098.049zm1.03-3.506l-.343-.864.196.72.147.144zm2.01 5.186l-1.765-4.514-.245-.288 1.274 4.37.736.432zm3.627 1.537l-4.902-5.57 1.618 4.177L30 37.503l.049-.384zm.196-10.66l.931.144-2.548-1.44 1.617 1.296zm.833 4.465l-4.95-4.802-.197-.048 5 5.619.147-.769zm.344-2.113L28.48 26.46l-.98-.145 3.774 3.698.148-1.2zm.294-1.872l-1.569-.24-1.225-.192 2.5 2.016.294-1.584zM30 23.097l-.098-.096-.882-.24.98.336zm2.01 1.921l.147-.96-1.422-.48 1.275 1.44zm.049 1.248l1.274.72h.098l-.098-.143-1.274-.576zm.196-2.64l-1.96-.529.146.144 1.765.625.049-.24zm.294-1.681l-3.774-.576.637.72 2.99.816.147-.96zm.833-3.506l-.196 1.2h1.716l-1.52-1.2zm-4.313-3.745l5.196-3.073.588-3.602-6.912 5.81 1.128.865zm1.274 1.056l3.432-1.344.392-2.45-4.902 2.93 1.078.864zm1.912 1.825l-.54.096.54-.096zm.343-.048l.686-.144v-.144l-.784.24.098.048zm.588.48l.05-.336-.393.048.343.288zm2.647 2.401H33.04l-.196 1.345 5.833.912-2.843-2.257zm-23.235-2.833L.784 14.454c-.049.24-.147.48-.196.72l11.814 3.121c.049-.24.147-.48.196-.72zm1.569-2.785l-9.51-7.54c-.05.049-.098.145-.147.193l9.51 7.539a.665.665 0 00.147-.192zm-1.52 2.737a.684.684 0 00.098-.336l-.098-.048-.686-.768.882.432c.196-.384.392-.769.637-1.153l-4.264-2.4L4.265 7.73c-.05.048-.098.144-.147.192l4.411 4.994-5.637-3.17c-.147.241-.245.433-.392.673l6.96 3.938-7.205-3.506c-.098.192-.196.432-.343.673l9.46 4.61.785.864L1.177 13.3c-.05.096-.05.144-.099.24l11.373 3.89.196.096zm105.294-2.785c.981 1.729 1.52 3.841 1.52 6.002 0 2.161-.49 4.178-1.471 5.955-1.078 1.824-2.451 3.217-4.215 4.13-1.618 1.008-3.726 1.536-6.079 1.536-2.353 0-4.412-.528-6.078-1.537-1.814-.912-3.236-2.353-4.216-4.13-1.03-1.872-1.569-3.84-1.569-5.954 0-2.113.54-4.177 1.569-6.002.98-1.777 2.402-3.121 4.216-4.082 1.617-1.008 3.627-1.536 6.029-1.632 2.402.096 4.461.672 6.078 1.632 1.716 1.009 3.138 2.353 4.216 4.082zm-1.863 6.05c0-1.776-.343-3.12-1.078-4.418-.637-1.296-1.569-2.304-2.941-3.217a8.987 8.987 0 00-4.412-1.152c-1.667 0-3.284.384-4.51 1.152-1.372.913-2.304 1.921-2.892 3.17a9.54 9.54 0 00-1.078 4.465c0 1.489.343 2.881 1.078 4.466.637 1.297 1.667 2.353 2.892 3.121 1.177.769 2.696 1.153 4.51 1.153 1.814 0 3.235-.384 4.412-1.153 1.274-.72 2.255-1.824 2.941-3.12.735-1.393 1.078-2.834 1.078-4.467zm87.402-6.05c.981 1.729 1.52 3.841 1.52 6.002 0 2.161-.49 4.178-1.471 5.955-1.078 1.824-2.451 3.217-4.215 4.13-1.618 1.008-3.726 1.536-6.079 1.536-2.353 0-4.411-.528-6.078-1.537-1.814-.912-3.235-2.353-4.216-4.13-1.029-1.872-1.568-3.84-1.568-5.954 0-2.113.539-4.177 1.568-6.002.981-1.777 2.402-3.121 4.216-4.082 1.618-1.008 3.627-1.536 6.029-1.632 2.402.096 4.461.672 6.079 1.632 1.715 1.009 3.137 2.353 4.215 4.082zm-1.813 6.05c0-1.776-.343-3.12-1.079-4.418-.637-1.296-1.568-2.304-2.941-3.217a8.984 8.984 0 00-4.412-1.152c-1.666 0-3.284.384-4.51 1.152-1.372.913-2.303 1.921-2.892 3.17a9.542 9.542 0 00-1.078 4.465c0 1.489.343 2.881 1.078 4.466.638 1.297 1.667 2.353 2.892 3.121 1.177.769 2.697 1.153 4.51 1.153 1.814 0 3.236-.384 4.412-1.153 1.275-.72 2.255-1.824 2.941-3.12.736-1.393 1.079-2.834 1.079-4.467zm-24.51 5.81c-1.52 1.873-3.628 2.834-6.275 2.834-1.666 0-2.99-.384-4.166-1.153-1.226-.72-2.255-1.824-2.941-3.12-.687-1.346-1.03-2.786-1.03-4.515 0-1.536.343-2.977 1.03-4.273a7.461 7.461 0 012.941-3.17c1.274-.816 2.598-1.248 4.166-1.248 1.226 0 2.157.192 2.991.672a5.428 5.428 0 012.402 1.873l.147.192 2.745-1.873-.147-.192c-1.03-1.248-2.255-2.16-3.628-2.689-1.372-.576-2.794-.864-4.51-.864-2.206.096-4.166.624-5.882 1.632-1.716.913-3.088 2.305-4.069 4.13-.98 1.873-1.47 3.793-1.47 5.858 0 2.305.539 4.274 1.568 6.003a9.825 9.825 0 004.069 4.13c1.618.96 3.48 1.44 5.784 1.536 3.726 0 6.618-1.297 8.628-3.89l.147-.192-2.353-1.92-.147.24zm-32.255-4.801h10.49v-2.93h-10.49v-6.338h11.274V9.7h-14.362v22.233h14.951v-2.93h-11.863v-7.202zm-23.873-9.268h7.304v19.4h3.089v-19.4h7.303V9.7h-17.696v2.833zm-48.382-.432c.784 1.056 1.176 2.305 1.176 3.697-.097 1.729-.49 2.978-1.176 3.842-.98.96-1.912 1.537-2.941 1.873a9.523 9.523 0 01-3.334.576h-4.166v9.7h-3.137V9.652h7.303c1.226 0 2.305.24 3.334.528 1.323.48 2.255 1.104 2.941 1.92zm-2.059 3.793c-.098-1.104-.49-1.968-1.225-2.497-.686-.576-1.667-.864-3.04-.864h-4.166v6.675h4.166c1.324 0 2.354-.288 3.04-.769.735-.576 1.127-1.44 1.225-2.545zm16.569 5.907l6.323 10.036h-3.823l-4.902-8.067-1.03-1.633h-2.99v9.7h-3.137V9.652H85c.931.096 1.814.192 2.794.336 1.226.24 2.304.816 3.383 1.729.882.864 1.372 2.209 1.47 4.033-.098 1.681-.637 2.977-1.618 4.034-.931 1.008-2.156 1.633-3.872 2.017zm-1.324-2.69c1.128-.191 1.863-.48 2.402-.96.638-.48.932-1.2.932-2.353 0-.96-.245-1.632-.687-2.113-.49-.48-1.127-.768-1.862-.96l-1.03-.144-.686-.096h-4.216v6.723h4.216c.294-.096.637-.096.931-.096z" fill="var(--icon-color, #004065)"/></svg></svg>