<?xml version="1.0" encoding="utf-8"?><svg viewBox="0 0 205 40" xmlns="http://www.w3.org/2000/svg" xmlns:xlink="http://www.w3.org/1999/xlink"><style>:root>svg{display:none}:root>svg:target{display:block}</style><svg fill="none" viewBox="0 0 14 8" id="icon-arrow" xmlns="http://www.w3.org/2000/svg"><path d="M12.657 1.172L7 6.829 1.343 1.172" stroke="var(--icon-color, #0FA9DA)" stroke-width="var(--icon-stroke-width, 1)" stroke-linecap="round" stroke-linejoin="round"/></svg><svg fill="none" viewBox="0 0 11 11" id="icon-button-play" xmlns="http://www.w3.org/2000/svg"><path d="M10.667 5.2l-7.5 4.33V.87l7.5 4.33z" fill="var(--icon-color, #0FA9DA)"/></svg><svg fill="none" viewBox="0 0 20 20" id="icon-cancel-button" xmlns="http://www.w3.org/2000/svg"><path d="M2.929 2.929L17.071 17.07M17.071 2.929L2.929 17.07" stroke="var(--icon-color, #0FA9DA)" stroke-width="var(--icon-stroke-width, 1.8)"/></svg><svg fill="none" viewBox="0 0 20 20" id="icon-login" xmlns="http://www.w3.org/2000/svg"><circle cx="10" cy="10" r="9.2" stroke="var(--icon-color, #333333)" stroke-width="1.6"/><circle cx="10" cy="8.734" r="3.814" stroke="var(--icon-color, #333333)" stroke-width="1.6"/><path d="M4.334 17.145a5.79 5.79 0 0111.34.03" stroke="var(--icon-color, #333333)" stroke-width="1.6"/></svg><svg fill="none" viewBox="0 0 20 20" id="icon-search" xmlns="http://www.w3.org/2000/svg"><path d="M8 15A7 7 0 108 1a7 7 0 000 14zM19 19l-6-6" stroke="var(--icon-color, #333333)" stroke-width="1.8" stroke-linecap="round" stroke-linejoin="round"/></svg><svg fill="none" viewBox="0 0 26 26" id="icon-soc-fb" xmlns="http://www.w3.org/2000/svg"><path d="M15.463 7.641h1.46V5.256a20.098 20.098 0 00-2.127-.105c-4.621 0-3.364 4.906-3.548 5.625H8.923v2.666h2.324v6.709h2.85v-6.708h2.23l.353-2.667h-2.584c.125-1.765-.508-3.135 1.367-3.135z" fill="var(--icon-color, #006484)"/></svg><svg fill="none" viewBox="0 0 26 26" id="icon-soc-in" xmlns="http://www.w3.org/2000/svg"><path d="M13.424 5.158c-3.072 0-5.99-.273-7.104 2.584-.46 1.18-.393 2.713-.393 4.908 0 1.925-.062 3.735.393 4.906 1.112 2.86 4.053 2.585 7.102 2.585 2.941 0 5.975.306 7.102-2.585.461-1.192.394-2.702.394-4.906 0-2.927.161-4.817-1.26-6.235-1.437-1.437-3.383-1.257-6.238-1.257h.004zm-.672 1.35c6.408-.01 7.223-.722 6.773 9.166-.16 3.498-2.825 3.114-6.1 3.114-5.974 0-6.145-.17-6.145-6.142 0-6.04.473-6.135 5.472-6.14v.002zm4.673 1.243a.899.899 0 100 1.799.899.899 0 000-1.799zm-4.002 1.051a3.848 3.848 0 100 7.694 3.847 3.847 0 100-7.694zm0 1.35c3.304 0 3.309 4.995 0 4.995-3.302 0-3.307-4.995 0-4.995z" fill="var(--icon-color, #006484)"/></svg><svg fill="none" viewBox="0 0 26 26" id="icon-soc-tw" xmlns="http://www.w3.org/2000/svg"><path d="M19.393 10.535c0-.134-.005-.264-.01-.392a6.088 6.088 0 001.54-1.571V8.57a6.5 6.5 0 01-1.771.478 3.02 3.02 0 001.353-1.673 6.212 6.212 0 01-1.95.733 3.103 3.103 0 00-2.247-.958c-1.702 0-3.073 1.36-3.073 3.028 0 .24.02.47.072.69a8.752 8.752 0 01-6.34-3.167 3.018 3.018 0 00-.42 1.53 3.02 3.02 0 001.366 2.517 3.076 3.076 0 01-1.39-.373v.033c0 1.471 1.066 2.694 2.464 2.975a3.3 3.3 0 01-1.388.048 3.1 3.1 0 002.873 2.11 6.243 6.243 0 01-3.813 1.291c-.252 0-.494-.011-.736-.041a8.759 8.759 0 004.718 1.359c5.659 0 8.752-4.616 8.752-8.616z" fill="var(--icon-color, #006484)"/></svg><svg fill="none" viewBox="0 0 26 26" id="icon-soc-vk" xmlns="http://www.w3.org/2000/svg"><path d="M17.37 13.312c-.242-.316-.173-.456 0-.737.003-.003 2.005-2.849 2.211-3.814h.002c.102-.352 0-.61-.496-.61h-1.64c-.417 0-.61.221-.713.47 0 0-.835 2.055-2.016 3.388-.382.385-.558.509-.766.509-.102 0-.262-.124-.262-.476V8.761c0-.422-.117-.61-.462-.61h-2.579c-.262 0-.417.196-.417.38 0 .4.59.491.651 1.616v2.441c0 .535-.094.634-.303.634-.558 0-1.911-2.065-2.713-4.427-.162-.459-.32-.644-.74-.644H5.485c-.468 0-.563.222-.563.47 0 .439.558 2.619 2.593 5.499 1.356 1.965 3.266 3.03 5.004 3.03 1.044 0 1.171-.236 1.171-.643 0-1.878-.094-2.056.43-2.056.242 0 .66.124 1.634 1.072 1.115 1.124 1.298 1.628 1.921 1.628h1.64c.468 0 .705-.237.569-.704-.312-.981-2.42-3-2.515-3.135z" fill="var(--icon-color, #006484)"/></svg><svg fill="none" viewBox="0 0 26 26" id="icon-soc-yt" xmlns="http://www.w3.org/2000/svg"><path d="M6.259 16.453c.306 1.126 1.242 1.331 1.305 1.37 1.54.436 10.177.437 11.741 0 1.071-.32 1.268-1.305 1.305-1.37.408-2.248.434-5.18-.019-7.732l.019.127c-.306-1.125-1.242-1.33-1.305-1.37-1.52-.428-10.18-.444-11.741 0-1.071.321-1.268 1.305-1.305 1.37-.437 2.363-.458 5.075 0 7.605zm5.675-1.438v-4.722l3.913 2.365-3.913 2.357z" fill="var(--icon-color, #006484)"/></svg><svg fill="none" viewBox="0 0 205 40" id="main-logo" xmlns="http://www.w3.org/2000/svg"><path d="M12.353 18.776L.245 16.902c0-.096.05-.144.05-.24l12.058 1.872v.24zm28.48 1.632h-4.608l2.942 2.305 1.47.24c0 .096-.049.144-.049.24l-1.078-.144.931.768c0 .097-.049.193-.049.289L39.02 23l-6.275-.96-.147.96 7.598 1.921c-.049.24-.147.48-.196.72l-7.5-2.017-.049.24 7.304 2.546c-.05.096-.05.144-.098.24l-7.255-2.45-.196 1.105.294.336 3.676 1.777 2.99.48c-.048.096-.048.144-.097.24l-2.157-.336 1.863.912c-.099.24-.246.48-.344.673l-4.068-2.017-.294-.048.098.096 4.117 2.305c-.147.24-.245.432-.392.672l-2.157-1.2 1.716 1.92c-.049.049-.098.145-.147.192l-2.255-2.497-3.137-1.776-.245 1.633 4.755 3.745c-.05.048-.098.144-.147.192l-4.608-3.65-.196 1.201 3.725 3.65c-.196.192-.343.384-.54.528l-3.332-3.266-.148.817 2.746 3.121c-.05.048-.147.096-.197.144l-2.598-2.977-.686 4.13.49.816a.374.374 0 01-.196.096l-.343-.528-.049.336.245.288c-.049.048-.147.096-.196.144l-.098-.096-.049.192c-.098.048-.245.096-.343.192l-2.99-1.633.98 2.546c-.098.047-.147.047-.245.096l-1.078-2.786-.785-.432 1.03 3.554c-.588.192-1.177.336-1.814.48l-1.52-5.282-.147-.096 1.079 5.474c-.098 0-.147.048-.245.048l-1.128-5.714-2.304-1.249.098 7.251h-.245l-.098-7.395-1.862-1.008-1.324 8.21c-.098 0-.147-.047-.245-.047l1.372-8.26-1.617-.912-.98 2.737.097 6.243c-.098 0-.147-.048-.245-.048l-.049-5.474-1.764 4.994c-.098-.048-.147-.048-.245-.096l1.96-5.619v-1.969l-1.862 2.113-2.5 4.418c-.54-.288-1.079-.576-1.618-.912l4.51-7.875-.736-.385-5.735 6.915c-.049-.048-.147-.096-.196-.144l5.686-6.915-1.617-.912-6.471 5.474c-.049-.048-.098-.144-.147-.192l6.421-5.426-1.813-1.008-2.451 1.44-2.55 4.514a20.42 20.42 0 01-1.225-1.633l.54-.96-.883.528a.36.36 0 00-.098-.192l1.226-.72 1.96-3.41-4.411 1.73-.294-.721 5.294-2.113-.294-.144-5.295 1.488a18.865 18.865 0 01-.49-1.776l3.53-1.009-.442-.24-3.186.625c0-.097-.049-.145-.049-.24l2.941-.577-1.52-.864-1.617-.24v-.24l1.03.144-1.079-.576v-.289l1.814.96 3.872.625 2.5-.48 1.03-1.777H0v-.384-.384h9.657l.392-.72 1.324.72h.882v.768h-.883l-.735 1.297 1.716-.48c.098.72.343 1.44.637 2.112l-.882.336 1.127.192c.05.145.147.24.196.337L9.706 26.41l1.765.96 2.647-2.209c.049.048.098.096.147.192l-2.55 2.161 1.57.864 1.813-2.209c.05.048.147.096.196.144l-1.814 2.21.687.384 1.372-2.401c.49.336 1.03.672 1.618.912l-1.275 2.353.441.24.785-.912.54-1.537c.097.048.146.048.244.096l-.343.912.686-.816c.098 0 .196.048.245.048l-1.176 1.393-.392 1.152 1.617.864.54-3.313c.098 0 .147.048.245.048l-.54 3.41 1.814 1.008-.049-4.274h.245l.05 4.418 2.254 1.248-.735-3.649-.588-2.113c.637-.096 1.274-.24 1.863-.48L25 31.02l5.245 5.907.05-.384-5.834-9.556c.049-.048.147-.096.196-.144l5.54 9.171.685-4.081-5.196-5.81c.294-.24.54-.48.785-.769l.637.624.931.144-1.323-1.056c.049-.048.098-.144.147-.192l1.666 1.297 1.226.192-2.5-1.97c.245-.335.441-.72.588-1.104l4.118 2.017-1.667-1.92-2.157-.72c.098-.289.196-.625.294-.913l.589.144-.49-.528c0-.096.048-.24.048-.337l4.02.625.196-1.297h-4.216v-.384-.384h4.314l.245-1.345-.637-.48-3.53.672-.539.144c-.098-.672-.343-1.296-.588-1.92l2.206-.865-1.03-.816-1.568.96c-.049-.048-.098-.144-.147-.192l1.47-.864-1.078-.864-.98.864c-.05-.048-.098-.096-.147-.192l1.029-.865-1.176-.912-.736.912c-.049-.048-.147-.096-.196-.144l.736-.912-.442-.384-.637 1.056c-.49-.336-1.03-.672-1.618-.864l.736-1.345-.54-.432-.588 1.633c-.098-.048-.147-.048-.245-.096l.588-1.68-1.274-1.01-.392 2.45c-.098 0-.147-.048-.245-.048l.44-2.593-1.568-1.249.05 3.746h-.344l-1.569-1.777.197 1.056.245.865c-.638.096-1.226.288-1.814.528l-.49-1.633-.834 1.489.393.624c-.05.048-.147.096-.197.144l-.294-.528-.343.624v.336a.855.855 0 00-.245.193v-.097l-.049.097.05.048a.676.676 0 01-.197.144l-.147-.144-.196-.097.294.289c-.196.192-.392.336-.54.528l-2.303-2.257-6.96-5.666c.048-.048.097-.144.146-.192l4.902 3.985-4.46-4.37c.195-.192.342-.384.539-.528l7.352 7.155.098-.192-6.764-7.635c.049-.048.147-.096.196-.144l6.666 7.539.834-1.489-4.804-7.97a.375.375 0 01.196-.097l4.755 7.875.343-.576-.049-3.313-1.569-4.034-1.323-1.056c.098-.048.147-.096.245-.096l.882.72-.343-.912c.098-.048.147-.048.245-.096l.49 1.296.785.624-.637-2.16c.588-.193 1.176-.385 1.813-.48l1.324 4.657.343.288-.98-5.138c.098 0 .147-.048.245-.048l1.03 5.282 2.5-4.321V0h.244v.864l.49-.864c.687 0 1.373.048 2.06.144l-2.5 4.37.048 3.361 1.618 1.297 1.47-8.98c.099 0 .148.048.245.048l-1.47 9.076 1.323 1.056 3.285-9.316c.098.048.147.048.245.096l-3.334 9.46.589.432 5.049-8.931 1.617.864-5.245 9.22.49.384 6.814-8.211c.05.048.147.096.196.144l-6.813 8.26 1.176.96 7.157-6.05.245-1.538c.05.096.147.145.196.24l-.196 1.105.686-.576c.05.048.098.144.147.192l-.882.768-.588 3.698 3.333-1.97c.05.049.098.145.147.193l-3.48 2.065-.392 2.497 5.196-2.017.294.72-5.637 2.21 5.833-1.634c.196.577.392 1.153.54 1.73l-6.717 1.872-.049.192 6.912-1.297c0 .096.05.145.05.24l-6.962 1.345-.098.576 1.863 1.44h5.588v.385c-.098 0-.098.144-.098.288zM15.098 6.05v-.864l-.441-1.585-.735-.576 1.176 3.025zm.784 2.69l-.539-1.345.05 2.257.49-.912zm.147-.337l-.686-2.353v.625l.686 1.728zM17.5 5.954l-.049-.144-.294-.24.196.624.147-.24zm1.618.865l1.078.864-.049-2.737-1.03 1.873zm1.127 4.946l-.049-3.698-1.225-.96-.785 1.344.245 1.297 1.814 2.017zM3.627 23.049L5 22.81l-2.549-.384 1.176.624zm2.5-.048l-.392-.048-1.715.336.392.24 1.715-.528zm.687 1.68l-.147.049.098.048.049-.096zm.931-2.16l-1.323.24.294.048 1.03-.288zm1.47 3.89l-.98-.529-.98 1.681 1.96-1.152zm3.971-2.305l-1.52-.24-2.891 1.104-.393.672 1.128.625 3.676-2.161zm2.402 6.77V30.3l-1.127 1.969 1.127-1.393zm.196-.288l.344-.384-.344-.192v.576zm.785-.144l-.245-.144-.54.672v1.585l.785-2.113zm.245-.72l-.343.384.147.096.196-.48zm6.568 4.178l-.294-1.057.196 1.008.098.049zm1.03-3.506l-.343-.864.196.72.147.144zm2.01 5.186l-1.765-4.514-.245-.288 1.274 4.37.736.432zm3.627 1.537l-4.902-5.57 1.618 4.177L30 37.503l.049-.384zm.196-10.66l.931.144-2.548-1.44 1.617 1.296zm.833 4.465l-4.95-4.802-.197-.048 5 5.619.147-.769zm.344-2.113L28.48 26.46l-.98-.145 3.774 3.698.148-1.2zm.294-1.872l-1.569-.24-1.225-.192 2.5 2.016.294-1.584zM30 23.097l-.098-.096-.882-.24.98.336zm2.01 1.921l.147-.96-1.422-.48 1.275 1.44zm.049 1.248l1.274.72h.098l-.098-.143-1.274-.576zm.196-2.64l-1.96-.529.146.144 1.765.625.049-.24zm.294-1.681l-3.774-.576.637.72 2.99.816.147-.96zm.833-3.506l-.196 1.2h1.716l-1.52-1.2zm-4.313-3.745l5.196-3.073.588-3.602-6.912 5.81 1.128.865zm1.274 1.056l3.432-1.344.392-2.45-4.902 2.93 1.078.864zm1.912 1.825l-.54.096.54-.096zm.343-.048l.686-.144v-.144l-.784.24.098.048zm.588.48l.05-.336-.393.048.343.288zm2.647 2.401H33.04l-.196 1.345 5.833.912-2.843-2.257zm-23.235-2.833L.784 14.454c-.049.24-.147.48-.196.72l11.814 3.121c.049-.24.147-.48.196-.72zm1.569-2.785l-9.51-7.54c-.05.049-.098.145-.147.193l9.51 7.539a.665.665 0 00.147-.192zm-1.52 2.737a.684.684 0 00.098-.336l-.098-.048-.686-.768.882.432c.196-.384.392-.769.637-1.153l-4.264-2.4L4.265 7.73c-.05.048-.098.144-.147.192l4.411 4.994-5.637-3.17c-.147.241-.245.433-.392.673l6.96 3.938-7.205-3.506c-.098.192-.196.432-.343.673l9.46 4.61.785.864L1.177 13.3c-.05.096-.05.144-.099.24l11.373 3.89.196.096zm105.294-2.785c.981 1.729 1.52 3.841 1.52 6.002 0 2.161-.49 4.178-1.471 5.955-1.078 1.824-2.451 3.217-4.215 4.13-1.618 1.008-3.726 1.536-6.079 1.536-2.353 0-4.412-.528-6.078-1.537-1.814-.912-3.236-2.353-4.216-4.13-1.03-1.872-1.569-3.84-1.569-5.954 0-2.113.54-4.177 1.569-6.002.98-1.777 2.402-3.121 4.216-4.082 1.617-1.008 3.627-1.536 6.029-1.632 2.402.096 4.461.672 6.078 1.632 1.716 1.009 3.138 2.353 4.216 4.082zm-1.863 6.05c0-1.776-.343-3.12-1.078-4.418-.637-1.296-1.569-2.304-2.941-3.217a8.987 8.987 0 00-4.412-1.152c-1.667 0-3.284.384-4.51 1.152-1.372.913-2.304 1.921-2.892 3.17a9.54 9.54 0 00-1.078 4.465c0 1.489.343 2.881 1.078 4.466.637 1.297 1.667 2.353 2.892 3.121 1.177.769 2.696 1.153 4.51 1.153 1.814 0 3.235-.384 4.412-1.153 1.274-.72 2.255-1.824 2.941-3.12.735-1.393 1.078-2.834 1.078-4.467zm87.402-6.05c.981 1.729 1.52 3.841 1.52 6.002 0 2.161-.49 4.178-1.471 5.955-1.078 1.824-2.451 3.217-4.215 4.13-1.618 1.008-3.726 1.536-6.079 1.536-2.353 0-4.411-.528-6.078-1.537-1.814-.912-3.235-2.353-4.216-4.13-1.029-1.872-1.568-3.84-1.568-5.954 0-2.113.539-4.177 1.568-6.002.981-1.777 2.402-3.121 4.216-4.082 1.618-1.008 3.627-1.536 6.029-1.632 2.402.096 4.461.672 6.079 1.632 1.715 1.009 3.137 2.353 4.215 4.082zm-1.813 6.05c0-1.776-.343-3.12-1.079-4.418-.637-1.296-1.568-2.304-2.941-3.217a8.984 8.984 0 00-4.412-1.152c-1.666 0-3.284.384-4.51 1.152-1.372.913-2.303 1.921-2.892 3.17a9.542 9.542 0 00-1.078 4.465c0 1.489.343 2.881 1.078 4.466.638 1.297 1.667 2.353 2.892 3.121 1.177.769 2.697 1.153 4.51 1.153 1.814 0 3.236-.384 4.412-1.153 1.275-.72 2.255-1.824 2.941-3.12.736-1.393 1.079-2.834 1.079-4.467zm-24.51 5.81c-1.52 1.873-3.628 2.834-6.275 2.834-1.666 0-2.99-.384-4.166-1.153-1.226-.72-2.255-1.824-2.941-3.12-.687-1.346-1.03-2.786-1.03-4.515 0-1.536.343-2.977 1.03-4.273a7.461 7.461 0 012.941-3.17c1.274-.816 2.598-1.248 4.166-1.248 1.226 0 2.157.192 2.991.672a5.428 5.428 0 012.402 1.873l.147.192 2.745-1.873-.147-.192c-1.03-1.248-2.255-2.16-3.628-2.689-1.372-.576-2.794-.864-4.51-.864-2.206.096-4.166.624-5.882 1.632-1.716.913-3.088 2.305-4.069 4.13-.98 1.873-1.47 3.793-1.47 5.858 0 2.305.539 4.274 1.568 6.003a9.825 9.825 0 004.069 4.13c1.618.96 3.48 1.44 5.784 1.536 3.726 0 6.618-1.297 8.628-3.89l.147-.192-2.353-1.92-.147.24zm-32.255-4.801h10.49v-2.93h-10.49v-6.338h11.274V9.7h-14.362v22.233h14.951v-2.93h-11.863v-7.202zm-23.873-9.268h7.304v19.4h3.089v-19.4h7.303V9.7h-17.696v2.833zm-48.382-.432c.784 1.056 1.176 2.305 1.176 3.697-.097 1.729-.49 2.978-1.176 3.842-.98.96-1.912 1.537-2.941 1.873a9.523 9.523 0 01-3.334.576h-4.166v9.7h-3.137V9.652h7.303c1.226 0 2.305.24 3.334.528 1.323.48 2.255 1.104 2.941 1.92zm-2.059 3.793c-.098-1.104-.49-1.968-1.225-2.497-.686-.576-1.667-.864-3.04-.864h-4.166v6.675h4.166c1.324 0 2.354-.288 3.04-.769.735-.576 1.127-1.44 1.225-2.545zm16.569 5.907l6.323 10.036h-3.823l-4.902-8.067-1.03-1.633h-2.99v9.7h-3.137V9.652H85c.931.096 1.814.192 2.794.336 1.226.24 2.304.816 3.383 1.729.882.864 1.372 2.209 1.47 4.033-.098 1.681-.637 2.977-1.618 4.034-.931 1.008-2.156 1.633-3.872 2.017zm-1.324-2.69c1.128-.191 1.863-.48 2.402-.96.638-.48.932-1.2.932-2.353 0-.96-.245-1.632-.687-2.113-.49-.48-1.127-.768-1.862-.96l-1.03-.144-.686-.096h-4.216v6.723h4.216c.294-.096.637-.096.931-.096z" fill="var(--icon-color, #004065)"/></svg></svg>