<svg width="20" height="20" viewBox="0 0 20 20" fill="none"
    xmlns="http://www.w3.org/2000/svg">
    <path d="M17.5446 9.50079L10.4104 16.635C9.53639 17.509 8.351 18 7.11499 18C5.87897 18 4.69358 17.509 3.81959 16.635C2.94559 15.761 2.45459 14.5756 2.45459 13.3396C2.45459 12.1036 2.94559 10.9182 3.81959 10.0442L10.9538 2.91C11.5365 2.32734 12.3267 2 13.1507 2C13.9747 2 14.765 2.32734 15.3477 2.91C15.9303 3.49266 16.2577 4.28292 16.2577 5.10693C16.2577 5.93094 15.9303 6.7212 15.3477 7.30386L8.20569 14.4381C7.91436 14.7294 7.51923 14.8931 7.10722 14.8931C6.69522 14.8931 6.30009 14.7294 6.00876 14.4381C5.71743 14.1467 5.55376 13.7516 5.55376 13.3396C5.55376 12.9276 5.71743 12.5325 6.00876 12.2411L12.5996 5.6581" stroke="var(--icon-color, #ffffff)" stroke-linecap="round" stroke-linejoin="round"/>
</svg>
