<svg width="32" height="32" viewBox="0 0 32 32" fill="none" xmlns="http://www.w3.org/2000/svg">
<path fill-rule="evenodd" clip-rule="evenodd" d="M8.95957 6.61623C8.80589 6.08576 8.25128 5.7803 7.72081 5.93397L4.60622 6.83624L3.70396 3.72165C3.55028 3.19118 2.99567 2.88572 2.4652 3.0394C1.93472 3.19307 1.62927 3.74768 1.78294 4.27816L2.96346 8.35325C3.11713 8.88372 3.67174 9.18918 4.20221 9.03551L8.27731 7.85499C8.80778 7.70132 9.11324 7.14671 8.95957 6.61623Z" fill="#0FA9DA"/>
<path fill-rule="evenodd" clip-rule="evenodd" d="M16 2C23.732 2 30 8.26801 30 16C30 23.732 23.732 30 16 30C12.3031 30 8.94192 28.5682 6.43865 26.2266C6.03532 25.8493 5.40492 25.8226 5 26.1981V26.1981C4.59508 26.5737 4.56922 27.209 4.96923 27.5898C7.8387 30.3215 11.724 32 16 32C24.8366 32 32 24.8366 32 16C32 7.16344 24.8366 0 16 0C10.8879 0 6.33614 2.39827 3.4083 6.12735C3.06724 6.56174 3.18431 7.18666 3.6391 7.5V7.5C4.0939 7.81334 4.71391 7.69606 5.05877 7.26468C7.6255 4.05404 11.573 2 16 2Z" fill="#0FA9DA"/>
</svg>
