<svg width="26" height="26" viewBox="0 0 26 26" fill="none" xmlns="http://www.w3.org/2000/svg">
<path d="M13.4235 5.15786C10.3515 5.15786 7.43438 4.88481 6.32014 7.74218C5.85989 8.92232 5.92673 10.455 5.92673 12.6496C5.92673 14.5753 5.86496 16.3853 6.32014 17.5561C7.43184 20.4152 10.3727 20.1413 13.4218 20.1413C16.3635 20.1413 19.3966 20.4473 20.5244 17.5561C20.9855 16.3642 20.9178 14.8543 20.9178 12.6496C20.9178 9.72289 21.0794 7.83348 19.6589 6.41494C18.2206 4.9778 16.2755 5.15786 13.4201 5.15786H13.4235ZM12.7518 6.50793C19.1597 6.49778 19.9753 5.78598 19.5252 15.6743C19.3653 19.1716 16.7003 18.7878 13.4244 18.7878C7.4513 18.7878 7.27955 18.6171 7.27955 12.6462C7.27955 6.60599 7.75334 6.51131 12.7518 6.50624V6.50793ZM17.4253 7.75148C16.9287 7.75148 16.526 8.15387 16.526 8.65011C16.526 9.14634 16.9287 9.54874 17.4253 9.54874C17.9219 9.54874 18.3247 9.14634 18.3247 8.65011C18.3247 8.15387 17.9219 7.75148 17.4253 7.75148V7.75148ZM13.4235 8.80228C11.2974 8.80228 9.57402 10.5252 9.57402 12.6496C9.57402 14.774 11.2974 16.496 13.4235 16.496C15.5496 16.496 17.2722 14.774 17.2722 12.6496C17.2722 10.5252 15.5496 8.80228 13.4235 8.80228V8.80228ZM13.4235 10.1523C16.7273 10.1523 16.7316 15.1468 13.4235 15.1468C10.1206 15.1468 10.1155 10.1523 13.4235 10.1523Z" fill="var(--icon-color, #006484)"/>
</svg>
