<svg width="18" height="11" viewBox="0 0 18 11" fill="none" xmlns="http://www.w3.org/2000/svg">
<path d="M9.00002 6.99555C9.88368 6.99555 10.6 6.32597 10.6 5.50001C10.6 4.67404 9.88368 4.00447 9.00002 4.00447C8.11637 4.00447 7.40002 4.67404 7.40002 5.50001C7.40002 6.32597 8.11637 6.99555 9.00002 6.99555Z" stroke="var(--icon-color, #0FA9DA)" stroke-linecap="round" stroke-linejoin="round"/>
<path d="M1 5.5L2.2 6.99555C3.0255 7.9349 4.06349 8.69155 5.23929 9.21105C6.41509 9.73055 7.69946 10 9 10C10.3005 10 11.5849 9.73055 12.7607 9.21105C13.9365 8.69155 14.9745 7.9349 15.8 6.99555L17 5.5" stroke="var(--icon-color, #0FA9DA)" stroke-linecap="round" stroke-linejoin="round"/>
<path d="M1 5.5L2.2 4.00445C3.0255 3.0651 4.06349 2.30845 5.23929 1.78895C6.41509 1.26945 7.69946 1 9 1C10.3005 1 11.5849 1.26945 12.7607 1.78895C13.9365 2.30845 14.9745 3.0651 15.8 4.00445L17 5.5" stroke="var(--icon-color, #0FA9DA)" stroke-linecap="round" stroke-linejoin="round"/>
</svg>
