<svg width="17" height="17" viewBox="0 0 17 17" fill="none"
    xmlns="http://www.w3.org/2000/svg">
    <path d="M15.6667 12.2797V14.2797C15.6675 14.4654 15.6294 14.6492 15.555 14.8193C15.4807 14.9894 15.3716 15.1421 15.2348 15.2676C15.0979 15.3932 14.9364 15.4887 14.7605 15.5482C14.5847 15.6077 14.3983 15.6298 14.2134 15.6131C12.1619 15.3902 10.1914 14.6892 8.46004 13.5664C6.84926 12.5428 5.48359 11.1772 4.46004 9.56641C3.33336 7.82721 2.6322 5.84707 2.41337 3.78641C2.39671 3.60205 2.41862 3.41625 2.4777 3.24082C2.53679 3.0654 2.63175 2.9042 2.75655 2.76749C2.88134 2.63077 3.03324 2.52155 3.20256 2.44675C3.37189 2.37196 3.55493 2.33325 3.74004 2.33307H5.74004C6.06357 2.32989 6.37723 2.44446 6.62254 2.65543C6.86786 2.8664 7.02809 3.15937 7.07337 3.47974C7.15779 4.11978 7.31434 4.74822 7.54004 5.35307C7.62973 5.59169 7.64915 5.85101 7.59597 6.10033C7.5428 6.34964 7.41928 6.57848 7.24004 6.75974L6.39337 7.6064C7.34241 9.27544 8.72434 10.6574 10.3934 11.6064L11.24 10.7597C11.4213 10.5805 11.6501 10.457 11.8995 10.4038C12.1488 10.3506 12.4081 10.37 12.6467 10.4597C13.2516 10.6854 13.88 10.842 14.52 10.9264C14.8439 10.9721 15.1396 11.1352 15.3511 11.3847C15.5625 11.6343 15.6748 11.9528 15.6667 12.2797Z" stroke="var(--icon-color, #0FA9DA)" stroke-linecap="round" stroke-linejoin="round"/>
</svg>
