<svg width="18" height="20" viewBox="0 0 18 20" fill="none"
    xmlns="http://www.w3.org/2000/svg">
    <path d="M9.00019 3.20898C4.02963 3.20898 0 7.27686 0 12.2949C0 15.0158 1.17422 16.7903 1.17422 16.7903L16.8224 16.7911C16.8224 16.7911 18 14.8517 18 12.2947C18 7.27686 13.9704 3.20898 9.00019 3.20898ZM16.1623 15.6842L1.86658 15.678C1.86658 15.678 1.10482 14.2354 1.10482 12.2662C1.10482 7.86812 4.65314 4.30248 9.03036 4.30248C13.4074 4.30248 16.9559 7.86793 16.9559 12.2662C16.9561 14.2576 16.1623 15.6842 16.1623 15.6842Z" fill="var(--icon-color, #0FA9DA)"/>
    <path d="M11.5435 5.62141L11.4305 5.62123L9.02982 10.3254L6.54275 5.58105L3.13758 14.1519H2.25757V14.8403H7.07857V14.1519H6.12199L7.07857 11.4732L9.02982 14.8403L10.9047 11.4732L11.8611 14.1519H10.9047V14.8403H15.6872V14.1519H14.8587L11.5435 5.62141Z" fill="var(--icon-color, #0FA9DA)"/>
</svg>
