<svg width="512" height="512" viewBox="0 0 512 512" fill="none" xmlns="http://www.w3.org/2000/svg">
<path d="M156.898 240.694L8.99389 217.285C8.99389 216.084 9.59269 215.484 9.59269 214.283L156.898 237.693C156.898 238.893 156.898 239.493 156.898 240.694ZM504.802 261.102H448.515L484.443 289.914L502.407 292.915C502.407 294.115 501.808 294.715 501.808 295.916L488.635 294.115L500.012 303.719C500.012 304.92 499.413 306.12 499.413 307.321L482.647 293.515L406 281.51L404.203 293.515L497.018 317.525C496.419 320.526 495.221 323.527 494.623 326.528L403.006 301.318L402.407 304.319L491.629 336.132C491.03 337.333 491.03 337.933 490.431 339.133L401.808 308.521L399.413 322.327L403.006 326.528L447.916 348.737L484.443 354.739C483.844 355.94 483.844 356.54 483.245 357.741L456.898 353.539L479.653 364.944C478.455 367.945 476.659 370.946 475.461 373.347L425.76 348.137L422.168 347.537L423.365 348.737L473.665 377.549C471.868 380.55 470.671 382.951 468.874 385.952L442.527 370.946L463.485 394.956C462.886 395.556 462.287 396.756 461.688 397.357L434.144 366.144L395.82 343.935L392.826 364.343L450.91 411.162C450.311 411.762 449.712 412.963 449.114 413.563L392.826 367.945L390.431 382.951L435.94 428.569C433.545 430.97 431.748 433.371 429.353 435.172L388.635 394.355L386.838 404.559L420.371 443.575C419.772 444.175 418.575 444.775 417.976 445.376L386.239 408.161L377.856 459.782L383.844 469.986C383.245 470.586 382.048 471.186 381.449 471.186L377.257 464.583L376.659 468.785L379.653 472.387C379.054 472.987 377.856 473.587 377.257 474.187L376.06 472.987L375.461 475.388C374.263 475.988 372.467 476.588 371.269 477.789L334.742 457.381L346.718 489.193C345.521 489.793 344.922 489.793 343.724 490.394L330.551 455.58L320.97 450.178L333.545 494.595C326.359 496.996 319.174 498.797 311.389 500.598L292.826 434.571L291.03 433.371L304.203 501.798C303.006 501.798 302.407 502.399 301.209 502.399L287.437 430.97L259.293 415.364L260.491 506C259.293 506 258.694 506 257.497 506L256.299 413.563L233.545 400.958L217.377 503.599C216.18 503.599 215.581 502.999 214.383 502.999L231.15 399.757L211.389 388.353L199.413 422.567L200.611 500.598C199.413 500.598 198.814 499.998 197.617 499.998L197.018 431.57L175.461 493.995C174.263 493.395 173.665 493.395 172.467 492.795L196.419 422.567V397.957L173.665 424.367L143.126 479.589C136.539 475.988 129.952 472.387 123.365 468.185L178.455 369.745L169.473 364.944L99.4131 451.378C98.8142 450.778 97.6166 450.178 97.0178 449.577L166.479 363.143L146.718 351.738L67.6765 420.166C67.0777 419.565 66.4789 418.365 65.8801 417.765L144.323 349.938L122.168 337.333L92.2274 355.34L61.0897 411.762C55.7005 405.16 50.9101 398.557 46.1196 391.354L52.7065 379.349L41.928 385.952C41.928 385.352 41.3292 384.151 40.7304 383.551L55.7005 374.547L79.6526 331.93L25.7604 353.539C24.5628 350.538 23.3651 347.537 22.1675 344.535L86.8382 318.125L83.2454 316.324L18.5747 334.932C16.1795 327.729 14.3831 320.526 12.5867 312.723L55.7005 300.118L50.3113 297.116L11.3891 304.92C11.3891 303.719 10.7903 303.119 10.7903 301.918L46.7184 294.715L28.1556 283.911L8.39509 280.91C8.39509 279.709 8.39509 279.109 8.39509 277.909L20.9699 279.709L7.79629 272.507C7.79629 271.306 7.79629 270.106 7.79629 268.905L29.952 280.91L77.2574 288.713L107.796 282.711L120.371 260.502H5.99988C5.99988 258.701 5.99988 256.9 5.99988 255.7C5.99988 253.899 5.99988 252.699 5.99988 250.898H123.964L128.754 241.894L144.922 250.898H155.7C155.7 252.699 155.7 253.899 155.7 255.7C155.7 257.501 155.7 259.301 155.7 260.502H144.922L135.94 276.708L156.898 270.706C158.096 279.709 161.09 288.713 164.683 297.116L153.904 301.318L167.677 303.719C168.275 305.52 169.473 306.72 170.072 307.921L124.563 336.132L146.12 348.137L178.455 320.526C179.054 321.126 179.653 321.726 180.251 322.927L149.114 349.938L168.275 360.742L190.431 333.131C191.03 333.731 192.227 334.331 192.826 334.932L170.671 362.543L179.054 367.345L195.82 337.333C201.808 341.534 208.395 345.736 215.581 348.737L200.012 378.149L205.401 381.15L214.982 369.745L221.569 350.538C222.766 351.138 223.365 351.138 224.563 351.738L220.371 363.143L228.754 352.939C229.952 352.939 231.15 353.539 231.748 353.539L217.377 370.946L212.587 385.352L232.347 396.156L238.934 354.739C240.132 354.739 240.73 355.34 241.928 355.34L235.341 397.957L257.497 410.562L256.898 357.14C258.096 357.14 258.694 357.14 259.892 357.14L260.491 412.363L288.036 427.969L279.054 382.351L271.868 355.94C279.653 354.739 287.437 352.939 294.623 349.938L311.389 393.755L375.461 467.585L376.06 462.783L304.802 343.335C305.401 342.735 306.599 342.134 307.197 341.534L374.862 456.18L383.245 405.16L319.772 332.531C323.365 329.529 326.359 326.528 329.353 322.927L337.138 330.73L348.515 332.531L332.347 319.325C332.946 318.725 333.545 317.525 334.144 316.924L354.503 333.131L369.473 335.532L338.934 310.922C341.928 306.72 344.323 301.918 346.12 297.116L396.419 322.327L376.06 298.317L349.712 289.313C350.91 285.712 352.108 281.51 353.305 277.909L360.491 279.709L354.503 273.107C354.503 271.906 355.102 270.106 355.102 268.905L404.203 276.708L406.599 260.502H355.102C355.102 258.701 355.102 257.501 355.102 255.7C355.102 253.899 355.102 252.699 355.102 250.898H407.796L410.79 234.091L403.006 228.089L359.892 236.492L353.305 238.293C352.108 229.89 349.114 222.086 346.12 214.283L373.066 203.479L360.491 193.275L341.329 205.28C340.73 204.679 340.132 203.479 339.533 202.879L357.497 192.074L344.323 181.27L332.347 192.074C331.748 191.474 331.15 190.874 330.551 189.673L343.126 178.869L328.754 167.465L319.772 178.869C319.174 178.269 317.976 177.669 317.377 177.068L326.359 165.664L320.97 160.862L313.185 174.067C307.197 169.866 300.611 165.664 293.425 163.263L302.407 146.456L295.82 141.054L288.635 161.462C287.437 160.862 286.838 160.862 285.641 160.262L292.826 139.253L277.257 126.648L272.467 157.261C271.269 157.261 270.671 156.66 269.473 156.66L274.862 124.247L255.7 108.641L256.299 155.46C255.7 155.46 255.7 155.46 255.102 155.46C253.904 155.46 252.706 155.46 252.108 155.46L232.946 133.251L235.341 146.456L238.335 157.261C230.551 158.461 223.365 160.862 216.179 163.863L210.191 143.455L200.012 162.062L204.802 169.866C204.203 170.466 203.006 171.066 202.407 171.666L198.814 165.064L194.623 172.867V177.068C193.425 177.669 192.826 178.269 191.629 179.469V178.269L191.03 179.469L191.629 180.07C191.03 180.67 190.431 181.27 189.233 181.87L187.437 180.07L185.042 178.869L188.635 182.471C186.239 184.872 183.844 186.672 182.048 189.073L153.904 160.862L68.8741 90.0336C69.4729 89.4334 70.0717 88.2329 70.6705 87.6327L130.551 137.453L76.0598 82.8307C78.455 80.4298 80.2514 78.0288 82.6466 76.2281L172.467 165.664L173.665 163.263L91.0298 67.8247C91.6286 67.2245 92.8262 66.6243 93.425 66.024L174.862 160.262L185.042 141.654L126.359 42.0144C126.958 41.4142 128.156 40.8139 128.754 40.8139L186.838 139.253L191.03 132.05L190.431 90.6339L171.269 40.2137L155.102 27.0084C156.299 26.4082 156.898 25.8079 158.096 25.8079L168.874 34.8115L164.683 23.407C165.88 22.8067 166.479 22.8067 167.677 22.2065L173.665 38.413L183.245 46.2161L175.461 19.2053C182.647 16.8043 189.832 14.4034 197.617 13.2029L213.784 71.4262L217.976 75.0276L206 10.8019C207.197 10.8019 207.796 10.2017 208.994 10.2017L221.569 76.2281L252.108 22.2065V6C253.305 6 253.904 6 255.102 6V16.8043L261.09 6C269.473 6 277.856 6.60024 286.239 7.80072L255.7 62.4226L256.299 104.439L276.06 120.646L294.024 8.40096C295.221 8.40096 295.82 9.0012 297.018 9.0012L279.054 122.447L295.221 135.652L335.341 19.2053C336.539 19.8055 337.138 19.8055 338.335 20.4058L297.617 138.653L304.802 144.055L366.479 32.4106C373.066 36.012 379.653 39.6134 386.239 43.2149L322.168 158.461L328.156 163.263L411.389 60.6219C411.988 61.2221 413.185 61.8223 413.784 62.4226L330.551 165.664L344.922 177.669L432.347 102.038L435.341 82.8307C435.94 84.0312 437.138 84.6315 437.736 85.8319L435.341 99.6375L443.724 92.4346C444.323 93.0348 444.922 94.2353 445.521 94.8355L434.742 104.439L427.557 150.658L468.275 126.048C468.874 126.648 469.473 127.849 470.072 128.449L427.557 154.259L422.766 185.472L486.239 160.262C487.437 163.263 488.635 166.264 489.832 169.265L420.97 196.876L492.227 176.468C494.623 183.671 497.018 190.874 498.814 198.077L416.778 221.486L416.179 223.887L500.611 207.681C500.611 208.881 501.209 209.481 501.209 210.682L416.179 227.489L414.982 234.691L437.736 252.699H506C506 254.499 506 255.7 506 257.501C504.802 257.501 504.802 259.301 504.802 261.102ZM190.431 81.6303V70.8259L185.042 51.018L176.06 43.8151L190.431 81.6303ZM200.012 115.244L193.425 98.437L194.024 126.648L200.012 115.244ZM201.808 111.042L193.425 81.6303V89.4334L201.808 111.042ZM219.772 80.4298L219.174 78.6291L215.581 75.6279L217.976 83.431L219.772 80.4298ZM239.533 91.2341L252.706 102.038L252.108 67.8247L239.533 91.2341ZM253.305 153.059L252.706 106.84L237.736 94.8355L228.156 111.642L231.15 127.849L253.305 153.059ZM50.3113 294.115L67.0777 291.114L35.94 286.312L50.3113 294.115ZM80.8502 293.515L76.0598 292.915L55.1017 297.116L59.8921 300.118L80.8502 293.515ZM89.2334 314.523L87.437 315.124L88.6346 315.724L89.2334 314.523ZM100.611 287.513L84.443 290.514L88.0358 291.114L100.611 287.513ZM118.575 336.132L106.599 329.529L94.6226 350.538L118.575 336.132ZM167.078 307.321L148.515 304.319L113.185 318.125L108.395 326.528L122.168 334.331L167.078 307.321ZM196.419 391.954V384.751L182.647 409.361L196.419 391.954ZM198.814 388.353L203.006 383.551L198.814 381.15V388.353ZM208.395 386.552L205.401 384.751L198.814 393.155V412.963L208.395 386.552ZM211.389 377.549L207.197 382.351L208.994 383.551L211.389 377.549ZM291.629 429.769L288.036 416.564L290.431 429.169L291.629 429.769ZM304.203 385.952L300.012 375.148L302.407 384.151L304.203 385.952ZM328.754 450.778L307.197 394.355L304.203 390.754L319.772 445.376L328.754 450.778ZM373.066 469.986L313.185 400.358L332.946 452.579L372.467 474.787L373.066 469.986ZM375.461 336.732L386.838 338.533L355.7 320.526L375.461 336.732ZM385.641 392.555L325.162 332.531L322.766 331.93L383.844 402.158L385.641 392.555ZM389.832 366.144L353.904 336.732L341.928 334.932L388.036 381.15L389.832 366.144ZM393.425 342.735L374.263 339.733L359.293 337.333L389.832 362.543L393.425 342.735ZM372.467 294.715L371.269 293.515L360.491 290.514L372.467 294.715ZM397.018 318.725L398.814 306.72L381.449 300.718L397.018 318.725ZM397.617 334.331L413.185 343.335H414.383L413.185 341.534L397.617 334.331ZM400.012 301.318L376.06 294.715L377.856 296.516L399.413 304.319L400.012 301.318ZM403.605 280.31L357.497 273.107L365.281 282.11L401.808 292.315L403.605 280.31ZM413.784 236.492L411.389 251.498H432.347L413.784 236.492ZM361.09 189.673L424.563 151.258L431.748 106.24L347.317 178.869L361.09 189.673ZM376.659 202.879L418.575 186.072L423.365 155.46L363.485 192.074L376.659 202.879ZM404.203 225.088L412.587 223.287V221.486L403.006 224.487L404.203 225.088ZM411.389 231.09L411.988 226.888L407.197 227.489L411.389 231.09ZM443.724 261.102H409.593L407.197 277.909L478.455 289.313L443.724 261.102ZM159.892 225.688L15.5807 186.672C14.9819 189.673 13.7843 192.675 13.1855 195.676L157.497 234.691C158.096 231.69 159.293 228.689 159.892 225.688ZM179.054 190.874L62.8861 96.6363C62.2873 97.2365 61.6885 98.437 61.0897 99.0372L177.257 193.275C177.856 192.675 178.455 192.074 179.054 190.874ZM160.491 225.088C161.09 223.887 161.688 222.687 161.688 220.886L160.491 220.286L152.108 210.682L162.886 216.084C165.281 211.282 167.677 206.48 170.671 201.678L118.575 171.666L58.0957 102.639C57.4969 103.239 56.8981 104.439 56.2993 105.04L110.191 167.465L41.3292 127.849C39.5328 130.85 38.3352 133.251 36.5388 136.252L121.569 185.472L33.5448 141.654C32.3472 144.055 31.1496 147.056 29.3532 150.058L144.922 207.681L154.503 218.485L20.3711 172.267C19.7723 173.467 19.7723 174.067 19.1735 175.268L158.096 223.887L160.491 225.088Z" fill="var(--icon-color, #ffffff)"/>
</svg>
