<svg width="205" height="40" viewBox="0 0 205 40" fill="none" xmlns="http://www.w3.org/2000/svg">
<path d="M12.3529 18.7755L0.245098 16.9028C0.245098 16.8067 0.294118 16.7587 0.294118 16.6627L12.3529 18.5354C12.3529 18.6315 12.3529 18.6795 12.3529 18.7755ZM40.8333 20.4082H36.2255L39.1667 22.7131L40.6373 22.9532C40.6373 23.0492 40.5882 23.0972 40.5882 23.1933L39.5098 23.0492L40.4412 23.8175C40.4412 23.9136 40.3922 24.0096 40.3922 24.1056L39.0196 23.0012L32.7451 22.0408L32.598 23.0012L40.1961 24.922C40.1471 25.1621 40.049 25.4022 40 25.6423L32.5 23.6254L32.451 23.8655L39.7549 26.4106C39.7059 26.5066 39.7059 26.5546 39.6569 26.6507L32.402 24.2017L32.2059 25.3061L32.5 25.6423L36.1765 27.419L39.1667 27.8992C39.1176 27.9952 39.1176 28.0432 39.0686 28.1393L36.9118 27.8031L38.7745 28.7155C38.6765 28.9556 38.5294 29.1957 38.4314 29.3878L34.3627 27.3709L34.0686 27.3229L34.1667 27.419L38.2843 29.7239C38.1373 29.964 38.0392 30.1561 37.8922 30.3962L35.7353 29.1957L37.451 31.1164C37.402 31.1645 37.3529 31.2605 37.3039 31.3085L35.049 28.8115L31.9118 27.0348L31.6667 28.6675L36.4216 32.413C36.3726 32.461 36.3235 32.557 36.2745 32.605L31.6667 28.9556L31.4706 30.1561L35.1961 33.8055C35 33.9976 34.8529 34.1897 34.6569 34.3337L31.3235 31.0684L31.1765 31.8848L33.9216 35.006C33.8725 35.054 33.7745 35.102 33.7255 35.1501L31.1275 32.1729L30.4412 36.3025L30.9314 37.1188C30.8824 37.1669 30.7843 37.2149 30.7353 37.2149L30.3922 36.6867L30.3431 37.0228L30.5882 37.3109C30.5392 37.3589 30.4412 37.407 30.3922 37.455L30.2941 37.3589L30.2451 37.551C30.1471 37.599 30 37.6471 29.902 37.7431L26.9118 36.1104L27.8922 38.6555C27.7941 38.7035 27.7451 38.7035 27.6471 38.7515L26.5686 35.9664L25.7843 35.5342L26.8137 39.0876C26.2255 39.2797 25.6373 39.4238 25 39.5678L23.4804 34.2857L23.3333 34.1897L24.4118 39.6639C24.3137 39.6639 24.2647 39.7119 24.1667 39.7119L23.0392 33.9976L20.7353 32.7491L20.8333 40C20.7353 40 20.6863 40 20.5882 40L20.4902 32.605L18.6275 31.5966L17.3039 39.8079C17.2059 39.8079 17.1569 39.7599 17.0588 39.7599L18.4314 31.5006L16.8137 30.5882L15.8333 33.3253L15.9314 39.5678C15.8333 39.5678 15.7843 39.5198 15.6863 39.5198L15.6373 34.0456L13.8725 39.0396C13.7745 38.9916 13.7255 38.9916 13.6275 38.9436L15.5882 33.3253V31.3565L13.7255 33.4694L11.2255 37.8872C10.6863 37.599 10.1471 37.3109 9.60784 36.9748L14.1176 29.0996L13.3824 28.7155L7.64706 35.6302C7.59804 35.5822 7.5 35.5342 7.45098 35.4862L13.1373 28.5714L11.5196 27.6591L5.04902 33.1333C5 33.0852 4.95098 32.9892 4.90196 32.9412L11.3235 27.515L9.5098 26.5066L7.05882 27.9472L4.5098 32.461C4.06863 31.9328 3.67647 31.4046 3.28431 30.8283L3.82353 29.8679L2.94118 30.3962C2.94118 30.3481 2.89216 30.2521 2.84314 30.2041L4.06863 29.4838L6.02941 26.0744L1.61765 27.8031C1.51961 27.563 1.42157 27.3229 1.32353 27.0828L6.61765 24.97L6.32353 24.8259L1.02941 26.3145C0.833333 25.7383 0.686275 25.1621 0.539216 24.5378L4.06863 23.5294L3.62745 23.2893L0.441176 23.9136C0.441176 23.8175 0.392157 23.7695 0.392157 23.6735L3.33333 23.0972L1.81373 22.2329L0.196078 21.9928C0.196078 21.8968 0.196078 21.8487 0.196078 21.7527L1.22549 21.8968L0.147059 21.3205C0.147059 21.2245 0.147059 21.1285 0.147059 21.0324L1.96078 21.9928L5.83333 22.617L8.33333 22.1369L9.36275 20.3601H0C0 20.2161 0 20.072 0 19.976C0 19.8319 0 19.7359 0 19.5918H9.65686L10.049 18.8715L11.3725 19.5918H12.2549C12.2549 19.7359 12.2549 19.8319 12.2549 19.976C12.2549 20.12 12.2549 20.2641 12.2549 20.3601H11.3725L10.6373 21.6567L12.3529 21.1765C12.451 21.8968 12.6961 22.617 12.9902 23.2893L12.1078 23.6254L13.2353 23.8175C13.2843 23.9616 13.3824 24.0576 13.4314 24.1537L9.70588 26.4106L11.4706 27.3709L14.1176 25.1621C14.1667 25.2101 14.2157 25.2581 14.2647 25.3541L11.7157 27.515L13.2843 28.3794L15.098 26.1705C15.1471 26.2185 15.2451 26.2665 15.2941 26.3145L13.4804 28.5234L14.1667 28.9076L15.5392 26.5066C16.0294 26.8427 16.5686 27.1789 17.1569 27.419L15.8824 29.7719L16.3235 30.012L17.1078 29.0996L17.6471 27.563C17.7451 27.611 17.7941 27.611 17.8922 27.6591L17.549 28.5714L18.2353 27.7551C18.3333 27.7551 18.4314 27.8031 18.4804 27.8031L17.3039 29.1957L16.9118 30.3481L18.5294 31.2125L19.0686 27.8992C19.1667 27.8992 19.2157 27.9472 19.3137 27.9472L18.7745 31.3565L20.5882 32.3649L20.5392 28.0912C20.6373 28.0912 20.6863 28.0912 20.7843 28.0912L20.8333 32.509L23.0882 33.7575L22.3529 30.108L21.7647 27.9952C22.402 27.8992 23.0392 27.7551 23.6275 27.515L25 31.0204L30.2451 36.9268L30.2941 36.5426L24.4608 26.9868C24.5098 26.9388 24.6078 26.8908 24.6569 26.8427L30.1961 36.0144L30.8824 31.9328L25.6863 26.1224C25.9804 25.8824 26.2255 25.6423 26.4706 25.3541L27.1078 25.9784L28.0392 26.1224L26.7157 25.066C26.7647 25.018 26.8137 24.922 26.8627 24.8739L28.5294 26.1705L29.7549 26.3625L27.2549 24.3938C27.5 24.0576 27.6961 23.6735 27.8431 23.2893L31.9608 25.3061L30.2941 23.3854L28.1373 22.6651C28.2353 22.377 28.3333 22.0408 28.4314 21.7527L29.0196 21.8968L28.5294 21.3685C28.5294 21.2725 28.5784 21.1285 28.5784 21.0324L32.598 21.6567L32.7941 20.3601H28.5784C28.5784 20.2161 28.5784 20.12 28.5784 19.976C28.5784 19.8319 28.5784 19.7359 28.5784 19.5918H32.8922L33.1373 18.2473L32.5 17.7671L28.9706 18.4394L28.4314 18.5834C28.3333 17.9112 28.0882 17.2869 27.8431 16.6627L30.049 15.7983L29.0196 14.982L27.451 15.9424C27.402 15.8944 27.3529 15.7983 27.3039 15.7503L28.7745 14.886L27.6961 14.0216L26.7157 14.886C26.6667 14.8379 26.6176 14.7899 26.5686 14.6939L27.598 13.8295L26.4216 12.9172L25.6863 13.8295C25.6373 13.7815 25.5392 13.7335 25.4902 13.6855L26.2255 12.7731L25.7843 12.389L25.1471 13.4454C24.6569 13.1092 24.1176 12.7731 23.5294 12.581L24.2647 11.2365L23.7255 10.8043L23.1373 12.437C23.0392 12.389 22.9902 12.389 22.8922 12.3409L23.4804 10.6603L22.2059 9.65186L21.8137 12.1008C21.7157 12.1008 21.6667 12.0528 21.5686 12.0528L22.0098 9.45978L20.4412 8.21128L20.4902 11.9568C20.4412 11.9568 20.4412 11.9568 20.3922 11.9568C20.2941 11.9568 20.1961 11.9568 20.1471 11.9568L18.5784 10.1801L18.7745 11.2365L19.0196 12.1008C18.3824 12.1969 17.7941 12.389 17.2059 12.6291L16.7157 10.9964L15.8824 12.485L16.2745 13.1092C16.2255 13.1573 16.1275 13.2053 16.0784 13.2533L15.7843 12.7251L15.4412 13.3493V13.6855C15.3431 13.7335 15.2941 13.7815 15.1961 13.8776V13.7815L15.1471 13.8776L15.1961 13.9256C15.1471 13.9736 15.098 14.0216 15 14.0696L14.8529 13.9256L14.6569 13.8295L14.951 14.1176C14.7549 14.3097 14.5588 14.4538 14.4118 14.6459L12.1078 12.389L5.14706 6.72269C5.19608 6.67467 5.2451 6.57863 5.29412 6.53061L10.1961 10.5162L5.73529 6.14646C5.93137 5.95438 6.07843 5.7623 6.27451 5.61825L13.6275 12.7731L13.7255 12.581L6.96078 4.94598C7.0098 4.89796 7.10784 4.84994 7.15686 4.80192L13.8235 12.3409L14.6569 10.8523L9.85294 2.88115C9.90196 2.83313 10 2.78511 10.049 2.78511L14.8039 10.6603L15.1471 10.084L15.098 6.77071L13.5294 2.73709L12.2059 1.68067C12.3039 1.63265 12.3529 1.58463 12.451 1.58463L13.3333 2.30492L12.9902 1.39256C13.0882 1.34454 13.1373 1.34454 13.2353 1.29652L13.7255 2.59304L14.5098 3.21729L13.8725 1.05642C14.4608 0.864346 15.049 0.672269 15.6863 0.576231L17.0098 5.23409L17.3529 5.52221L16.3725 0.384154C16.4706 0.384154 16.5196 0.336134 16.6176 0.336134L17.6471 5.61825L20.1471 1.29652V0C20.2451 0 20.2941 0 20.3922 0V0.864346L20.8824 0C21.5686 0 22.2549 0.0480192 22.9412 0.144058L20.4412 4.51381L20.4902 7.87515L22.1078 9.17167L23.5784 0.192077C23.6765 0.192077 23.7255 0.240096 23.8235 0.240096L22.3529 9.31573L23.6765 10.3721L26.9608 1.05642C27.0588 1.10444 27.1078 1.10444 27.2059 1.15246L23.8725 10.6122L24.4608 11.0444L29.5098 2.11285C30.049 2.40096 30.5882 2.68908 31.1275 2.97719L25.8824 12.1969L26.3725 12.581L33.1863 4.36975C33.2353 4.41777 33.3333 4.46579 33.3824 4.51381L26.5686 12.7731L27.7451 13.7335L34.902 7.68307L35.1471 6.14646C35.1961 6.2425 35.2941 6.29052 35.3431 6.38655L35.1471 7.491L35.8333 6.91477C35.8824 6.96278 35.9314 7.05882 35.9804 7.10684L35.098 7.87515L34.5098 11.5726L37.8431 9.60384C37.8922 9.65186 37.9412 9.7479 37.9902 9.79592L34.5098 11.8607L34.1176 14.3577L39.3137 12.3409C39.4118 12.581 39.5098 12.8211 39.6078 13.0612L33.9706 15.2701L39.8039 13.6375C40 14.2137 40.1961 14.7899 40.3431 15.3661L33.6275 17.2389L33.5784 17.431L40.4902 16.1345C40.4902 16.2305 40.5392 16.2785 40.5392 16.3745L33.5784 17.7191L33.4804 18.2953L35.3431 19.7359H40.9314C40.9314 19.88 40.9314 19.976 40.9314 20.12C40.8333 20.12 40.8333 20.2641 40.8333 20.4082ZM15.098 6.05042V5.18607L14.6569 3.60144L13.9216 3.02521L15.098 6.05042ZM15.8824 8.7395L15.3431 7.39496L15.3922 9.65186L15.8824 8.7395ZM16.0294 8.40336L15.3431 6.05042V6.67467L16.0294 8.40336ZM17.5 5.95438L17.451 5.81032L17.1569 5.57023L17.3529 6.19448L17.5 5.95438ZM19.1176 6.81873L20.1961 7.68307L20.1471 4.94598L19.1176 6.81873ZM20.2451 11.7647L20.1961 8.06723L18.9706 7.10684L18.1863 8.45138L18.4314 9.7479L20.2451 11.7647ZM3.62745 23.0492L5 22.8091L2.45098 22.425L3.62745 23.0492ZM6.12745 23.0012L5.73529 22.9532L4.01961 23.2893L4.41176 23.5294L6.12745 23.0012ZM6.81373 24.6819L6.66667 24.7299L6.76471 24.7779L6.81373 24.6819ZM7.7451 22.521L6.42157 22.7611L6.71569 22.8091L7.7451 22.521ZM9.21569 26.4106L8.23529 25.8824L7.2549 27.563L9.21569 26.4106ZM13.1863 24.1056L11.6667 23.8655L8.77451 24.97L8.38235 25.6423L9.5098 26.2665L13.1863 24.1056ZM15.5882 30.8764V30.3001L14.4608 32.2689L15.5882 30.8764ZM15.7843 30.5882L16.1275 30.2041L15.7843 30.012V30.5882ZM16.5686 30.4442L16.3235 30.3001L15.7843 30.9724V32.557L16.5686 30.4442ZM16.8137 29.7239L16.4706 30.108L16.6176 30.2041L16.8137 29.7239ZM23.3824 33.9016L23.0882 32.8451L23.2843 33.8535L23.3824 33.9016ZM24.4118 30.3962L24.0686 29.5318L24.2647 30.2521L24.4118 30.3962ZM26.4216 35.5822L24.6569 31.0684L24.4118 30.7803L25.6863 35.1501L26.4216 35.5822ZM30.049 37.1188L25.1471 31.5486L26.7647 35.7263L30 37.503L30.049 37.1188ZM30.2451 26.4586L31.1765 26.6026L28.6275 25.1621L30.2451 26.4586ZM31.0784 30.9244L26.1275 26.1224L25.9314 26.0744L30.9314 31.6927L31.0784 30.9244ZM31.4216 28.8115L28.4804 26.4586L27.5 26.3145L31.2745 30.012L31.4216 28.8115ZM31.7157 26.9388L30.1471 26.6987L28.9216 26.5066L31.4216 28.5234L31.7157 26.9388ZM30 23.0972L29.902 23.0012L29.0196 22.7611L30 23.0972ZM32.0098 25.018L32.1569 24.0576L30.7353 23.5774L32.0098 25.018ZM32.0588 26.2665L33.3333 26.9868H33.4314L33.3333 26.8427L32.0588 26.2665ZM32.2549 23.6254L30.2941 23.0972L30.4412 23.2413L32.2059 23.8655L32.2549 23.6254ZM32.549 21.9448L28.7745 21.3685L29.4118 22.0888L32.402 22.9052L32.549 21.9448ZM33.3824 18.4394L33.1863 19.6399H34.902L33.3824 18.4394ZM29.0686 14.6939L34.2647 11.6206L34.8529 8.01921L27.9412 13.8295L29.0686 14.6939ZM30.3431 15.7503L33.7745 14.4058L34.1667 11.9568L29.2647 14.886L30.3431 15.7503ZM32.2549 17.575L31.7157 17.6711L32.2549 17.575ZM32.598 17.527L33.2843 17.383V17.2389L32.5 17.479L32.598 17.527ZM33.1863 18.0072L33.2353 17.6711L32.8431 17.7191L33.1863 18.0072ZM35.8333 20.4082H33.0392L32.8431 21.7527L38.6765 22.6651L35.8333 20.4082ZM12.598 17.575L0.784314 14.4538C0.735294 14.6939 0.637255 14.934 0.588235 15.1741L12.402 18.2953C12.451 18.0552 12.549 17.8151 12.598 17.575ZM14.1667 14.7899L4.65686 7.2509C4.60784 7.29892 4.55882 7.39496 4.5098 7.44298L14.0196 14.982C14.0686 14.934 14.1176 14.886 14.1667 14.7899ZM12.6471 17.527C12.6961 17.431 12.7451 17.3349 12.7451 17.1909L12.6471 17.1429L11.9608 16.3745L12.8431 16.8067C13.0392 16.4226 13.2353 16.0384 13.4804 15.6543L9.21569 13.2533L4.26471 7.73109C4.21569 7.77911 4.16667 7.87515 4.11765 7.92317L8.52941 12.9172L2.89216 9.7479C2.7451 9.98799 2.64706 10.1801 2.5 10.4202L9.46078 14.3577L2.2549 10.8523C2.15686 11.0444 2.05882 11.2845 1.91176 11.5246L11.3725 16.1345L12.1569 16.9988L1.17647 13.3013C1.12745 13.3974 1.12745 13.4454 1.07843 13.5414L12.451 17.431L12.6471 17.527ZM117.941 14.7419C118.922 16.4706 119.461 18.5834 119.461 20.7443C119.461 22.9052 118.971 24.922 117.99 26.6987C116.912 28.5234 115.539 29.916 113.775 30.8283C112.157 31.8367 110.049 32.3649 107.696 32.3649C105.343 32.3649 103.284 31.8367 101.618 30.8283C99.8039 29.916 98.3824 28.4754 97.402 26.6987C96.3725 24.8259 95.8333 22.8571 95.8333 20.7443C95.8333 18.6315 96.3725 16.5666 97.402 14.7419C98.3824 12.9652 99.8039 11.6206 101.618 10.6603C103.235 9.65186 105.245 9.12365 107.647 9.02761C110.049 9.12365 112.108 9.69988 113.725 10.6603C115.441 11.6687 116.863 13.0132 117.941 14.7419ZM116.078 20.7923C116.078 19.0156 115.735 17.6711 115 16.3745C114.363 15.078 113.431 14.0696 112.059 13.1573C110.784 12.437 109.265 12.0048 107.647 12.0048C105.98 12.0048 104.363 12.389 103.137 13.1573C101.765 14.0696 100.833 15.078 100.245 16.3265C99.5098 17.7671 99.1667 19.2077 99.1667 20.7923C99.1667 22.2809 99.5098 23.6735 100.245 25.2581C100.882 26.5546 101.912 27.611 103.137 28.3794C104.314 29.1477 105.833 29.5318 107.647 29.5318C109.461 29.5318 110.882 29.1477 112.059 28.3794C113.333 27.6591 114.314 26.5546 115 25.2581C115.735 23.8655 116.078 22.425 116.078 20.7923ZM203.48 14.7419C204.461 16.4706 205 18.5834 205 20.7443C205 22.9052 204.51 24.922 203.529 26.6987C202.451 28.5234 201.078 29.916 199.314 30.8283C197.696 31.8367 195.588 32.3649 193.235 32.3649C190.882 32.3649 188.824 31.8367 187.157 30.8283C185.343 29.916 183.922 28.4754 182.941 26.6987C181.912 24.8259 181.373 22.8571 181.373 20.7443C181.373 18.6315 181.912 16.5666 182.941 14.7419C183.922 12.9652 185.343 11.6206 187.157 10.6603C188.775 9.65186 190.784 9.12365 193.186 9.02761C195.588 9.12365 197.647 9.69988 199.265 10.6603C200.98 11.6687 202.402 13.0132 203.48 14.7419ZM201.667 20.7923C201.667 19.0156 201.324 17.6711 200.588 16.3745C199.951 15.078 199.02 14.0696 197.647 13.1573C196.373 12.437 194.853 12.0048 193.235 12.0048C191.569 12.0048 189.951 12.389 188.725 13.1573C187.353 14.0696 186.422 15.078 185.833 16.3265C185.098 17.7671 184.755 19.2077 184.755 20.7923C184.755 22.2809 185.098 23.6735 185.833 25.2581C186.471 26.5546 187.5 27.611 188.725 28.3794C189.902 29.1477 191.422 29.5318 193.235 29.5318C195.049 29.5318 196.471 29.1477 197.647 28.3794C198.922 27.6591 199.902 26.5546 200.588 25.2581C201.324 23.8655 201.667 22.425 201.667 20.7923ZM177.157 26.6026C175.637 28.4754 173.529 29.4358 170.882 29.4358C169.216 29.4358 167.892 29.0516 166.716 28.2833C165.49 27.563 164.461 26.4586 163.775 25.1621C163.088 23.8175 162.745 22.377 162.745 20.6483C162.745 19.1116 163.088 17.6711 163.775 16.3745C164.461 14.982 165.49 13.9256 166.716 13.2053C167.99 12.389 169.314 11.9568 170.882 11.9568C172.108 11.9568 173.039 12.1489 173.873 12.6291C174.853 13.0132 175.686 13.6855 176.275 14.5018L176.422 14.6939L179.167 12.8211L179.02 12.6291C177.99 11.3806 176.765 10.4682 175.392 9.93998C174.02 9.36375 172.598 9.07563 170.882 9.07563C168.676 9.17167 166.716 9.69988 165 10.7083C163.284 11.6206 161.912 13.0132 160.931 14.8379C159.951 16.7107 159.461 18.6315 159.461 20.6963C159.461 23.0012 160 24.97 161.029 26.6987C161.961 28.4754 163.333 29.8679 165.098 30.8283C166.716 31.7887 168.578 32.2689 170.882 32.3649C174.608 32.3649 177.5 31.0684 179.51 28.4754L179.657 28.2833L177.304 26.3625L177.157 26.6026ZM144.902 21.8007H155.392V18.8715H144.902V12.533H156.176V9.69988H141.814V31.9328H156.765V29.0036H144.902V21.8007ZM121.029 12.533H128.333V31.9328H131.422V12.533H138.725V9.69988H121.029V12.533ZM72.6471 12.1008C73.4314 13.1573 73.8235 14.4058 73.8235 15.7983C73.7255 17.527 73.3333 18.7755 72.6471 19.6399C71.6667 20.6002 70.7353 21.1765 69.7059 21.5126C68.6765 21.8968 67.549 22.0888 66.3725 22.0888H62.2059V31.7887H59.0686V9.65186H66.3725C67.598 9.65186 68.6765 9.89196 69.7059 10.1801C71.0294 10.6603 71.9608 11.2845 72.6471 12.1008ZM70.5882 15.8944C70.4902 14.7899 70.098 13.9256 69.3627 13.3974C68.6765 12.8211 67.6961 12.533 66.3235 12.533H62.1569V19.2077H66.3235C67.6471 19.2077 68.6765 18.9196 69.3627 18.4394C70.098 17.8631 70.4902 16.9988 70.5882 15.8944ZM87.1569 21.8007L93.4804 31.8367H89.6569L84.7549 23.7695L83.7255 22.1369H80.7353V31.8367H77.598V9.65186H85C85.9314 9.7479 86.8137 9.84394 87.7941 9.98799C89.0196 10.2281 90.098 10.8043 91.1765 11.7167C92.0588 12.581 92.549 13.9256 92.6471 15.7503C92.549 17.431 92.0098 18.7275 91.0294 19.7839C90.098 20.7923 88.8726 21.4166 87.1569 21.8007ZM85.8333 19.1116C86.9608 18.9196 87.6961 18.6315 88.2353 18.1513C88.8725 17.6711 89.1667 16.9508 89.1667 15.7983C89.1667 14.8379 88.9216 14.1657 88.4804 13.6855C87.9902 13.2053 87.3529 12.9172 86.6176 12.7251C86.2745 12.6771 85.9314 12.6291 85.5882 12.581L84.902 12.485H80.6863V19.2077H84.902C85.1961 19.1116 85.5392 19.1116 85.8333 19.1116Z" fill="var(--icon-color, #004065)"/>
</svg>
